<svg width="41" height="34" viewBox="0 0 41 34" fill="none" xmlns="http://www.w3.org/2000/svg">
<g clip-path="url(#clip0_47_17)">
<path d="M16.5 29.5C25.0604 29.5 32 23.232 32 15.5C32 7.76801 25.0604 1.5 16.5 1.5C7.93959 1.5 1 7.76801 1 15.5C1 23.232 7.93959 29.5 16.5 29.5Z" fill="#F9D053"/>
<path d="M35.9549 29.2608L30.6804 23.2867C33.1507 19.5356 33.7516 14.9817 32.3162 10.721C32.1826 10.3197 31.7153 10.1036 31.2813 10.2271C30.8473 10.3506 30.5969 10.7828 30.7472 11.1842C32.0992 15.1669 31.4649 19.4275 28.9945 22.9008L28.9445 22.9626C28.7776 23.2404 28.7942 23.58 29.0112 23.827L34.6697 30.2179C34.6697 30.2179 34.7531 30.3106 34.7698 30.3106C35.2372 30.8045 35.2372 31.4992 34.7865 32.0086C34.7698 32.0241 34.7698 32.0395 34.7531 32.0395L34.6363 32.1476C34.1022 32.5644 33.3177 32.5644 32.7668 32.1167C32.7335 32.0858 32.7168 32.0704 32.6834 32.0395L25.7731 26.8218C25.4893 26.6057 25.0887 26.5903 24.7883 26.7755L24.7215 26.8218C18.8961 30.3414 11.1012 29.6313 6.12709 25.1237C6.0937 25.0774 6.07701 25.0311 6.04363 25.0002C0.234962 19.659 0.234962 10.9372 6.02694 5.58053C11.8189 0.223907 21.2497 0.223907 27.0416 5.58053C27.075 5.61141 27.1251 5.64228 27.1752 5.65772C27.1919 5.67316 27.2252 5.70403 27.2419 5.71947C27.5257 6.04364 28.0598 6.08995 28.4103 5.81209C28.7609 5.54966 28.8109 5.05568 28.5105 4.7315C28.4437 4.65432 28.3436 4.56169 28.2434 4.46907C21.8172 -1.45873 11.3516 -1.50504 4.87522 4.42276C4.85853 4.4382 4.82515 4.45364 4.80845 4.48451C2.1378 6.95442 0.468644 10.2425 0.0847374 13.7158C-0.0821783 15.2286 0.00127959 16.7415 0.301728 18.208C0.936008 21.2182 2.50502 23.9505 4.85853 26.1271C10.2499 31.0978 18.7125 32.0086 25.1889 28.3655L31.5984 33.2127C31.6318 33.2436 31.6819 33.2899 31.7153 33.3208C32.2995 33.7839 33.0005 34 33.7016 34C34.4193 34 35.137 33.7684 35.7213 33.3053L36.005 33.0583C36.0551 33.012 36.0885 32.9657 36.1218 32.904C37.0065 31.8388 36.9731 30.3569 36.0217 29.3226C36.005 29.3072 35.9716 29.2763 35.9549 29.2608Z" fill="#114F80"/>
<path d="M40.8273 0.470661C40.6604 0.254543 40.3766 0.131047 40.0762 0.161921L34.7182 0.686778C34.4177 0.717652 34.1674 0.887459 34.0505 1.13445C33.9337 1.38144 33.9671 1.67474 34.134 1.89086L35.3191 3.38825L16.491 15.9385C16.2907 16.062 16.1738 16.2781 16.1572 16.4942L15.6564 22.4375L7.51092 15.074C7.344 14.9197 7.11032 14.8425 6.87664 14.8579L4.48974 15.0123C4.03907 15.0432 3.68854 15.3982 3.72193 15.8304C3.75531 16.2472 4.15591 16.5714 4.60658 16.5405L6.62626 16.4171L15.7732 24.6758C15.9235 24.8148 16.1405 24.892 16.3574 24.892C16.4576 24.892 16.5577 24.8765 16.6412 24.8456C16.9417 24.7376 17.142 24.4906 17.1753 24.1973L17.7929 16.9882L36.3373 4.65408L37.3555 5.95079C37.5057 6.15147 37.7561 6.25953 38.0231 6.25953C38.0565 6.25953 38.0899 6.25953 38.1066 6.25953C38.407 6.22865 38.6574 6.05884 38.7742 5.81185L40.9441 1.25795C41.0443 0.980081 41.0109 0.702215 40.8273 0.470661ZM37.8228 3.95942L36.3373 2.07611L38.841 1.82911L37.8228 3.95942Z" fill="#114F80"/>
<path d="M35.1423 31.6001C34.5436 32.1727 31.5827 30.0483 28.529 26.8551C25.4753 23.662 23.4852 20.6093 24.0839 20.0367C24.6826 19.4642 27.6435 21.5886 30.6972 24.7817C33.7508 27.9748 35.741 31.0276 35.1423 31.6001Z" fill="#F9D053"/>
<path d="M34.7388 31.9639C34.206 32.5982 31.0315 30.8087 27.6483 27.967C24.2652 25.1253 21.9546 22.3073 22.4874 21.673C23.0202 21.0386 26.1947 22.8281 29.5779 25.6698C32.961 28.5116 35.2717 31.3295 34.7388 31.9639Z" fill="#F9D053"/>
<path d="M35.1423 31.6001C34.5436 32.1727 31.5827 30.0483 28.529 26.8551C25.4753 23.662 23.4852 20.6093 24.0839 20.0367C24.6826 19.4642 27.6435 21.5886 30.6972 24.7817C33.7508 27.9748 35.741 31.0276 35.1423 31.6001Z" fill="#F9D053"/>
<path d="M34.6164 31.9171C34.1128 32.5749 30.8605 30.9309 27.3523 28.2451C23.8441 25.5593 21.4083 22.8488 21.9119 22.191C22.4155 21.5332 25.6677 23.1773 29.176 25.863C32.6842 28.5488 35.1199 31.2593 34.6164 31.9171Z" fill="#F9D053"/>
<path d="M34.204 32.4557C33.9281 32.8161 30.8604 30.931 27.3522 28.2452C23.844 25.5594 21.2236 23.09 21.4995 22.7296C21.7754 22.3693 24.843 24.2544 28.3512 26.9402C31.8595 29.626 34.4798 32.0954 34.204 32.4557Z" fill="#F9D053"/>
<path d="M34.204 31.3786C33.9281 31.7389 30.8604 29.8538 27.3522 27.168C23.844 24.4822 21.2236 22.0128 21.4995 21.6525C21.7754 21.2921 24.843 23.1773 28.3512 25.863C31.8595 28.5488 34.4798 31.0182 34.204 31.3786Z" fill="#F9D053"/>
</g>
<defs>
<clipPath id="clip0_47_17">
<rect width="41" height="34" fill="white"/>
</clipPath>
</defs>
</svg>
