<svg width="17" height="17" viewBox="0 0 17 17" fill="none" xmlns="http://www.w3.org/2000/svg">
<path d="M8.5 1H4C2.94991 1 2.42485 1 2.02377 1.18166C1.67096 1.34144 1.38412 1.59641 1.20437 1.91002C1 2.26653 1 2.73325 1 3.66667V13.3333C1 14.2667 1 14.7335 1.20437 15.09C1.38412 15.4036 1.67096 15.6586 2.02377 15.8183C2.42485 16 2.94991 16 4 16H7.5625M8.5 1L14.125 6M8.5 1V4.66667C8.5 5.13337 8.5 5.36673 8.60219 5.54499C8.69209 5.70179 8.83544 5.82928 9.01187 5.90918C9.21241 6 9.47491 6 10 6H14.125M14.125 6V8.5M12.25 14.3333H16M14.125 12.6667V16" stroke="white" stroke-linecap="round" stroke-linejoin="round"/>
</svg>
