<svg width="28" height="28" viewBox="0 0 28 28" fill="none" xmlns="http://www.w3.org/2000/svg">
<g filter="url(#filter0_d_1247_13365)">
<path d="M14 24H8.375C7.87772 24 7.40081 23.8025 7.04918 23.4508C6.69755 23.0992 6.5 22.6223 6.5 22.125C6.5 20.9647 6.96094 19.8519 7.78141 19.0314C8.60188 18.2109 9.71468 17.75 10.875 17.75H14C13.0054 17.75 12.0516 17.3549 11.3483 16.6517C10.6451 15.9484 10.25 14.9946 10.25 14H5.875C5.37772 14 4.90081 13.8025 4.54918 13.4508C4.19755 13.0992 4 12.6223 4 12.125C4 11.2962 4.32924 10.5013 4.91529 9.91529C5.50134 9.32924 6.2962 9 7.125 9H9C8.33696 9 7.70107 8.73661 7.23223 8.26777C6.76339 7.79893 6.5 7.16304 6.5 6.5C6.5 5.83696 6.76339 5.20107 7.23223 4.73223C7.70107 4.26339 8.33696 4 9 4C9.66304 4 10.2989 4.26339 10.7678 4.73223C11.2366 5.20107 11.5 5.83696 11.5 6.5C11.5 7.16304 11.2366 7.79893 10.7678 8.26777C10.2989 8.73661 9.66304 9 9 9H10.875C11.3708 9.00242 11.859 9.12242 12.2995 9.35015C12.7399 9.57787 13.1201 9.90683 13.4088 10.31C13.6039 10.2739 13.8016 10.2538 14 10.25C14.1984 10.2539 14.3961 10.274 14.5912 10.31C14.8798 9.90668 15.2599 9.57762 15.7004 9.34988C16.1409 9.12213 16.6291 9.00222 17.125 9H19C18.337 9 17.7011 8.73661 17.2322 8.26777C16.7634 7.79893 16.5 7.16304 16.5 6.5C16.5 5.83696 16.7634 5.20107 17.2322 4.73223C17.7011 4.26339 18.337 4 19 4C19.663 4 20.2989 4.26339 20.7678 4.73223C21.2366 5.20107 21.5 5.83696 21.5 6.5C21.5 7.16304 21.2366 7.79893 20.7678 8.26777C20.2989 8.73661 19.663 9 19 9H20.875C21.7038 9 22.4987 9.32924 23.0847 9.91529C23.6708 10.5013 24 11.2962 24 12.125C24 12.6223 23.8025 13.0992 23.4508 13.4508C23.0992 13.8025 22.6223 14 22.125 14H17.75V14.0538V14.125H16.5C16.5 14.0875 16.5 14.0487 16.5 14C16.5 13.337 16.2366 12.7011 15.7678 12.2322C15.2989 11.7634 14.663 11.5 14 11.5C13.337 11.5 12.7011 11.7634 12.2322 12.2322C11.7634 12.7011 11.5 13.337 11.5 14C11.5 14.663 11.7634 15.2989 12.2322 15.7678C12.7011 16.2366 13.337 16.5 14 16.5V19H10.875C10.0462 19 9.25134 19.3292 8.66529 19.9153C8.07924 20.5013 7.75 21.2962 7.75 22.125C7.75 22.2908 7.81585 22.4497 7.93306 22.5669C8.05027 22.6842 8.20924 22.75 8.375 22.75H14V24ZM17.125 10.25C16.6509 10.251 16.1951 10.4324 15.85 10.7575C16.6264 11.2013 17.2187 11.9079 17.52 12.75H22.125C22.2908 12.75 22.4497 12.6842 22.5669 12.5669C22.6842 12.4497 22.75 12.2908 22.75 12.125C22.75 11.6277 22.5525 11.1508 22.2008 10.7992C21.8492 10.4475 21.3723 10.25 20.875 10.25H17.125ZM7.125 10.25C6.62772 10.25 6.15081 10.4475 5.79918 10.7992C5.44755 11.1508 5.25 11.6277 5.25 12.125C5.25 12.2908 5.31585 12.4497 5.43306 12.5669C5.55027 12.6842 5.70924 12.75 5.875 12.75H10.4812C10.7815 11.9078 11.3735 11.2009 12.15 10.7575C11.8049 10.4324 11.3491 10.251 10.875 10.25H7.125ZM19 5.25C18.6685 5.25 18.3505 5.3817 18.1161 5.61612C17.8817 5.85054 17.75 6.16848 17.75 6.5C17.75 6.83152 17.8817 7.14946 18.1161 7.38388C18.3505 7.6183 18.6685 7.75 19 7.75C19.3315 7.75 19.6495 7.6183 19.8839 7.38388C20.1183 7.14946 20.25 6.83152 20.25 6.5C20.25 6.16848 20.1183 5.85054 19.8839 5.61612C19.6495 5.3817 19.3315 5.25 19 5.25ZM9 5.25C8.66848 5.25 8.35054 5.3817 8.11612 5.61612C7.8817 5.85054 7.75 6.16848 7.75 6.5C7.75 6.83152 7.8817 7.14946 8.11612 7.38388C8.35054 7.6183 8.66848 7.75 9 7.75C9.33152 7.75 9.64946 7.6183 9.88388 7.38388C10.1183 7.14946 10.25 6.83152 10.25 6.5C10.25 6.16848 10.1183 5.85054 9.88388 5.61612C9.64946 5.3817 9.33152 5.25 9 5.25Z" fill="#00C0CC"/>
<path d="M24 19.625C24 19.7908 23.9342 19.9497 23.8169 20.0669C23.6997 20.1842 23.5408 20.25 23.375 20.25H20.25V23.375C20.25 23.5408 20.1842 23.6997 20.0669 23.8169C19.9497 23.9342 19.7908 24 19.625 24C19.4592 24 19.3003 23.9342 19.1831 23.8169C19.0658 23.6997 19 23.5408 19 23.375V20.25H15.875C15.7092 20.25 15.5503 20.1842 15.4331 20.0669C15.3158 19.9497 15.25 19.7908 15.25 19.625C15.25 19.4592 15.3158 19.3003 15.4331 19.1831C15.5503 19.0658 15.7092 19 15.875 19H19V15.875C19 15.7092 19.0658 15.5503 19.1831 15.4331C19.3003 15.3158 19.4592 15.25 19.625 15.25C19.7908 15.25 19.9497 15.3158 20.0669 15.4331C20.1842 15.5503 20.25 15.7092 20.25 15.875V19H23.375C23.5408 19 23.6997 19.0658 23.8169 19.1831C23.9342 19.3003 24 19.4592 24 19.625Z" fill="#00C0CC"/>
</g>
<defs>
<filter id="filter0_d_1247_13365" x="0" y="0" width="28" height="28" filterUnits="userSpaceOnUse" color-interpolation-filters="sRGB">
<feFlood flood-opacity="0" result="BackgroundImageFix"/>
<feColorMatrix in="SourceAlpha" type="matrix" values="0 0 0 0 0 0 0 0 0 0 0 0 0 0 0 0 0 0 127 0" result="hardAlpha"/>
<feOffset/>
<feGaussianBlur stdDeviation="2"/>
<feComposite in2="hardAlpha" operator="out"/>
<feColorMatrix type="matrix" values="0 0 0 0 0 0 0 0 0 0.752 0 0 0 0 0.8 0 0 0 1 0"/>
<feBlend mode="normal" in2="BackgroundImageFix" result="effect1_dropShadow_1247_13365"/>
<feBlend mode="normal" in="SourceGraphic" in2="effect1_dropShadow_1247_13365" result="shape"/>
</filter>
</defs>
</svg>
