<svg width="22" height="22" viewBox="0 0 22 22" fill="none" xmlns="http://www.w3.org/2000/svg">
<path fill-rule="evenodd" clip-rule="evenodd" d="M0.155547 19.5151C0.0696094 19.5151 0 19.4107 0 19.2818C0 19.2148 0.00601562 19.1497 0.0167578 19.0846C0.265977 16.1202 1.81371 15.3295 2.91156 14.9023C3.46113 14.689 4.82797 13.8757 4.28312 12.7563C3.97805 12.1287 3.70176 11.6879 3.42504 11.0248C3.22523 10.5827 3.11996 10.1876 3.11996 9.87187C3.11996 9.53483 3.23898 9.14044 3.47746 9.05087C3.44609 8.37229 3.43535 7.47975 3.45684 6.75348C3.53246 5.50652 4.12887 4.58756 4.8993 4.18028C5.20395 4.00629 5.05656 3.31095 5.39344 3.29613C6.1832 3.26391 7.47785 4.27502 7.98359 5.09537C8.27836 5.56903 8.46742 6.20057 8.49922 7.03768L8.46742 9.12949C8.6148 9.19264 8.70977 9.33506 8.75187 9.5561C8.79398 9.80872 8.75187 10.1561 8.60449 10.6458C8.60449 10.6613 8.59375 10.6613 8.59375 10.6774C8.26891 11.4804 7.93031 12.0127 7.5582 12.7563C7.39234 13.0889 7.42457 13.4066 7.5625 13.6927C7.36871 13.8622 7.17922 14.0574 6.99746 14.2868C6.27602 15.1948 5.71871 16.5481 5.52277 18.7031C5.4841 18.9551 5.46906 19.2599 5.49699 19.5151H0.155547ZM18.0134 14.7715C18.0121 14.542 17.9979 14.3784 18.1874 14.3822L18.801 14.3938C18.9991 14.3919 19.0519 14.486 19.0498 14.7644V16.0197H19.8816C20.0342 16.0178 20.1433 15.9965 20.1407 16.2807L20.1334 17.2016C20.1343 17.4987 20.0716 17.5773 19.8859 17.5741H19.0498V18.8288C19.0519 19.1072 18.9991 19.2012 18.801 19.1993L18.1874 19.2109C17.9979 19.2148 18.0121 19.0511 18.0134 18.8217V17.5741H17.1759C16.9907 17.5773 16.928 17.4987 16.9288 17.2016L16.9215 16.2807C16.9185 15.9965 17.0281 16.0178 17.1806 16.0197H18.0134V14.7715ZM18.5311 11.5938C19.4889 11.5938 20.3564 12.1763 20.9838 13.1179C21.6116 14.0594 22 15.3611 22 16.7969C22 18.234 21.6116 19.5344 20.9838 20.4759C20.3564 21.4174 19.4885 22 18.5311 22C17.5729 22 16.7058 21.4174 16.078 20.4759L16.0587 20.445C15.4421 19.5048 15.0618 18.2159 15.0618 16.7969C15.0618 15.3624 15.4503 14.0613 16.0785 13.1198C16.7058 12.1763 17.5734 11.5938 18.5311 11.5938ZM20.478 13.8763C19.98 13.1295 19.2917 12.6674 18.5311 12.6674C17.7706 12.6674 17.0814 13.1295 16.5834 13.8763C16.0849 14.6219 15.7773 15.655 15.7773 16.7969C15.7773 17.9266 16.0785 18.9499 16.5662 19.6929L16.5838 19.7174C17.0818 20.465 17.7702 20.927 18.5311 20.927C19.2913 20.927 19.98 20.465 20.478 19.7174C20.9765 18.9705 21.2846 17.9375 21.2846 16.7969C21.2846 15.6569 20.9765 14.6232 20.478 13.8763ZM6.61418 19.5177C6.50934 19.5177 6.42426 19.3901 6.42426 19.2322C6.42426 19.1516 6.43156 19.0711 6.44488 18.9918C6.7491 15.3746 8.195 14.5884 9.53305 14.0722C10.1754 13.8248 11.4572 12.8575 11.3016 11.6105C10.9777 11.1601 10.6558 10.5376 10.6 9.60894L10.5609 9.61023C10.4711 9.6083 10.3843 9.57737 10.303 9.50906C10.1243 9.35633 10.0263 9.06376 9.97906 8.73059C9.88023 7.71304 9.85488 7.19363 10.2167 6.96615L10.2197 6.96421C10.175 5.70887 10.3164 3.86194 9.45656 3.47141C11.1538 0.325963 13.1111 -1.38564 14.5802 1.41311C16.2173 1.542 16.9473 5.01933 15.9307 6.96615H15.8877C16.2495 7.19363 16.1949 7.77683 16.1253 8.73059C16.078 9.06376 15.9801 9.35633 15.8013 9.50906C15.7201 9.57737 15.6333 9.6083 15.5435 9.61023L15.5044 9.60894C15.4486 10.5376 15.1259 11.1601 14.8019 11.6105C14.7495 12.0326 14.8607 12.4212 15.0567 12.7621C14.4796 13.877 14.1367 15.2773 14.1367 16.7969C14.1367 17.7668 14.2764 18.6883 14.5273 19.5177H6.61418Z" fill="white"/>
</svg>
