<svg width="38" height="38" viewBox="0 0 38 38" fill="none" xmlns="http://www.w3.org/2000/svg">
<path d="M24.2548 10.1587C24.2548 8.13602 23.1229 6.37673 21.4669 5.49262C21.9472 4.91126 22.2369 4.16343 22.2369 3.34825C22.2369 1.50205 20.7526 0 18.9279 0C17.1033 0 15.6189 1.50205 15.6189 3.34825C15.6189 4.18891 15.9274 4.95749 16.4349 5.5461C14.8324 6.4465 13.7451 8.17622 13.7451 10.1587V12.9676H24.2548V10.1587ZM18.9279 1.81071C19.7658 1.81071 20.4474 2.50048 20.4474 3.34825C20.4474 4.19603 19.7658 4.88567 18.9279 4.88567C18.0901 4.88567 17.4084 4.19603 17.4084 3.34825C17.4084 2.50048 18.0901 1.81071 18.9279 1.81071ZM22.4653 11.1569H15.5346V10.1587C15.5346 8.24961 17.0697 6.69638 18.9564 6.69638H19.0435C20.9302 6.69638 22.4653 8.24961 22.4653 10.1587V11.1569Z" fill="white"/>
<path d="M7.72162 30.5247C8.20193 29.9434 8.49171 29.1955 8.49171 28.3804C8.49171 26.5342 7.00737 25.0322 5.18278 25.0322C3.3582 25.0322 1.87374 26.5342 1.87374 28.3804C1.87374 29.221 2.18225 29.9896 2.68976 30.5783C1.08731 31.4786 0 33.2083 0 35.1908V37.9998H10.5097V35.1908C10.5097 33.1681 9.37764 31.4088 7.72162 30.5247ZM5.18278 26.8428C6.02063 26.8428 6.7022 27.5325 6.7022 28.3802C6.7022 29.228 6.02063 29.9178 5.18278 29.9178C4.34493 29.9178 3.66325 29.228 3.66325 28.3802C3.66325 27.5325 4.34493 26.8428 5.18278 26.8428ZM8.72017 36.189H1.78951V35.1907C1.78951 33.2816 3.32444 31.7285 5.21118 31.7285H5.29839C7.18513 31.7285 8.72017 33.2816 8.72017 35.1907V36.189Z" fill="white"/>
<path d="M35.2128 30.5247C35.6931 29.9434 35.9829 29.1955 35.9829 28.3804C35.9829 26.5342 34.4986 25.0322 32.674 25.0322C30.8494 25.0322 29.3649 26.5342 29.3649 28.3804C29.3649 29.221 29.6735 29.9896 30.181 30.5783C28.5785 31.4787 27.4912 33.2084 27.4912 35.1908V37.9998H38.0009V35.1908C38.0008 33.1681 36.8688 31.4088 35.2128 30.5247ZM32.674 26.8428C33.5117 26.8428 34.1934 27.5325 34.1934 28.3802C34.1934 29.228 33.5117 29.9178 32.674 29.9178C31.8361 29.9178 31.1545 29.228 31.1545 28.3802C31.1545 27.5325 31.8361 26.8428 32.674 26.8428ZM36.2113 36.189H29.2807V35.1907C29.2807 33.2816 30.8156 31.7285 32.7025 31.7285H32.7896C34.6763 31.7285 36.2114 33.2816 36.2114 35.1907L36.2113 36.189Z" fill="white"/>
<path d="M19.8952 16.0664H18.1057V22.0288L11.8623 28.3462L13.1276 29.6266L19.0004 23.6842L24.8731 29.6266L26.1387 28.3462L19.8952 22.0288V16.0664Z" fill="white"/>
</svg>
