<svg width="38" height="31" viewBox="0 0 38 31" fill="none" xmlns="http://www.w3.org/2000/svg">
<path fill-rule="evenodd" clip-rule="evenodd" d="M0.268672 27.4985C0.120234 27.4985 0 27.3514 0 27.1698C0 27.0754 0.0103906 26.9837 0.0289453 26.8919C0.459414 22.7149 3.13277 21.6007 5.02906 20.9987C5.97832 20.6981 8.33922 19.5521 7.39813 17.9748C6.87117 17.0904 6.39395 16.4693 5.91598 15.5349C5.57086 14.912 5.38902 14.3553 5.38902 13.9104C5.38902 13.4354 5.59461 12.8797 6.00652 12.7535C5.95234 11.7973 5.93379 10.5397 5.9709 9.51627C6.10152 7.75918 7.13168 6.46429 8.46242 5.8904C8.98863 5.64523 8.73406 4.66543 9.31594 4.64455C10.6801 4.59914 12.9163 6.02389 13.7898 7.17984C14.299 7.84727 14.6255 8.73716 14.6805 9.91673L14.6255 12.8643C14.8801 12.9533 15.0441 13.154 15.1169 13.4654C15.1896 13.8214 15.1169 14.3108 14.8623 15.0009C14.8623 15.0227 14.8438 15.0227 14.8438 15.0454C14.2827 16.1769 13.6978 16.9269 13.0551 17.9748C12.7686 18.4434 12.8243 18.8911 13.0625 19.2942C12.7278 19.5331 12.4005 19.8082 12.0865 20.1315C10.8404 21.4109 9.87777 23.3178 9.53934 26.3544C9.47254 26.7094 9.44656 27.1389 9.4948 27.4985H0.268672ZM31.114 20.8143C31.1118 20.4911 31.0873 20.2604 31.4146 20.2659L32.4744 20.2822C32.8166 20.2795 32.9079 20.4121 32.9041 20.8043V22.5732H34.341C34.6045 22.5705 34.793 22.5405 34.7886 22.941L34.7759 24.2386C34.7774 24.6572 34.6691 24.768 34.3484 24.7635H32.9041V26.5315C32.9079 26.9237 32.8166 27.0563 32.4744 27.0536L31.4146 27.0699C31.0873 27.0754 31.1118 26.8447 31.114 26.5215V24.7635H29.6675C29.3476 24.768 29.2392 24.6572 29.2407 24.2386L29.2281 22.941C29.2229 22.5405 29.4121 22.5705 29.6756 22.5732H31.114V20.8143ZM32.0083 16.3367C33.6627 16.3367 35.1611 17.1576 36.2447 18.4842C37.3291 19.8109 38 21.6452 38 23.6683C38 25.6933 37.3291 27.5258 36.2447 28.8524C35.1611 30.1791 33.6619 31 32.0083 31C30.3532 31 28.8555 30.1791 27.7712 28.8524L27.7378 28.8089C26.6727 27.484 26.0159 25.6679 26.0159 23.6683C26.0159 21.647 26.6868 19.8136 27.7719 18.487C28.8555 17.1576 30.354 16.3367 32.0083 16.3367ZM35.3712 19.553C34.511 18.5006 33.322 17.8495 32.0083 17.8495C30.6946 17.8495 29.5042 18.5006 28.644 19.553C27.783 20.6037 27.2516 22.0593 27.2516 23.6683C27.2516 25.2602 27.7719 26.7022 28.6143 27.7492L28.6447 27.7837C29.5049 28.837 30.6939 29.4881 32.0083 29.4881C33.3213 29.4881 34.511 28.837 35.3712 27.7837C36.2321 26.7312 36.7643 25.2756 36.7643 23.6683C36.7643 22.062 36.2321 20.6055 35.3712 19.553ZM11.4245 27.5022C11.2434 27.5022 11.0964 27.3224 11.0964 27.0999C11.0964 26.9864 11.1091 26.8729 11.1321 26.7612C11.6575 21.6643 14.155 20.5564 16.4662 19.8291C17.5757 19.4804 19.7897 18.1174 19.521 16.3603C18.9614 15.7256 18.4055 14.8484 18.309 13.5399L18.2415 13.5417C18.0864 13.539 17.9364 13.4954 17.7962 13.3991C17.4874 13.1839 17.3182 12.7717 17.2366 12.3022C17.0659 10.8684 17.0221 10.1365 17.647 9.81593L17.6522 9.81321C17.575 8.04431 17.8192 5.44182 16.3341 4.89154C19.2657 0.459311 22.6464 -1.95249 25.1839 1.9912C28.0116 2.17282 29.2726 7.07269 27.5166 9.81593H27.4424C28.0673 10.1365 27.973 10.9583 27.8528 12.3022C27.7712 12.7717 27.602 13.1839 27.2932 13.3991C27.1529 13.4954 27.003 13.539 26.8479 13.5417L26.7803 13.5399C26.6839 14.8484 26.1265 15.7256 25.5669 16.3603C25.4763 16.9551 25.6686 17.5026 26.007 17.983C25.0102 19.5539 24.418 21.5271 24.418 23.6683C24.418 25.035 24.6592 26.3335 25.0926 27.5022H11.4245Z" fill="white"/>
</svg>
