<svg width="22" height="22" viewBox="0 0 22 22" fill="none" xmlns="http://www.w3.org/2000/svg">
<path fill-rule="evenodd" clip-rule="evenodd" d="M21.9756 12.4896C22.2477 17.6655 20.2295 20.7253 16.6522 22C13.1978 20.804 11.1494 17.8804 11.3081 12.4108C13.2249 12.546 15.125 11.9917 16.6296 10.8586C18.1621 11.7788 20.1161 12.6489 21.9737 12.4896H21.9756ZM11.8788 2.16993L15.7905 5.64144H11.8788V2.16993ZM3.69253 10.1639C3.73359 10.1212 3.78345 10.087 3.83903 10.0633C3.89461 10.0395 3.95473 10.0269 4.01567 10.026H11.9242C11.9869 10.0262 12.0488 10.0391 12.1058 10.0638C12.1629 10.0885 12.2137 10.1245 12.2549 10.1693C12.3391 10.2629 12.3854 10.3819 12.3854 10.505C12.3854 10.628 12.3391 10.747 12.2549 10.8407C12.2265 10.8691 12.1948 10.8943 12.1604 10.9159C12.0092 10.9427 11.858 10.9642 11.7068 10.9839H4.02323C3.96045 10.9836 3.89842 10.9709 3.84113 10.9465C3.78385 10.9222 3.73259 10.8867 3.69064 10.8425C3.60464 10.7489 3.55726 10.629 3.55726 10.505C3.55726 10.3809 3.60464 10.261 3.69064 10.1675L3.69253 10.1639ZM3.69253 13.1592C3.73377 13.1143 3.78455 13.0782 3.84154 13.0532C3.89852 13.0282 3.96044 13.0149 4.02323 13.0142H9.52799C9.545 13.3418 9.56768 13.6623 9.59791 13.9756H4.02323C3.96041 13.9755 3.8983 13.9629 3.84099 13.9385C3.78367 13.9142 3.73244 13.8786 3.69064 13.8341C3.60464 13.7406 3.55726 13.6207 3.55726 13.4967C3.55726 13.3726 3.60464 13.2527 3.69064 13.1592H3.69253ZM3.69253 16.1527C3.73409 16.1083 3.78498 16.0726 3.84192 16.048C3.89887 16.0233 3.96062 16.0102 4.02323 16.0094H9.90972C9.98153 16.3401 10.0628 16.6605 10.1535 16.9709H4.02323C3.96021 16.9709 3.8979 16.9582 3.84052 16.9335C3.78314 16.9088 3.73203 16.8727 3.69064 16.8276C3.60421 16.734 3.55713 16.6136 3.55836 16.4893C3.55881 16.3654 3.60646 16.2459 3.69253 16.1527ZM3.69253 7.16862C3.73377 7.12376 3.78455 7.08764 3.84154 7.06265C3.89852 7.03766 3.96044 7.02436 4.02323 7.0236H8.55857C8.62083 7.02371 8.68236 7.03637 8.73906 7.06076C8.79575 7.08515 8.84632 7.1207 8.88738 7.16504C8.97424 7.2591 9.02136 7.38025 9.01966 7.50521C9.01974 7.62883 8.97277 7.74833 8.88738 7.8418C8.84603 7.88595 8.79545 7.92148 8.73885 7.94613C8.68225 7.97079 8.62086 7.98403 8.55857 7.98503H4.02323C3.96045 7.98476 3.89842 7.97203 3.84113 7.94767C3.78385 7.92331 3.73259 7.88786 3.69064 7.84359C3.60424 7.74928 3.5572 7.6283 3.55836 7.50342C3.55672 7.37761 3.60454 7.25571 3.69253 7.16146V7.16862ZM3.69253 4.38282C3.73377 4.33795 3.78455 4.30184 3.84154 4.27685C3.89852 4.25186 3.96044 4.23855 4.02323 4.2378H6.51767C6.57943 4.23815 6.64043 4.25076 6.69674 4.27481C6.75305 4.29887 6.80341 4.33383 6.84459 4.37745C6.93059 4.471 6.97797 4.59087 6.97797 4.71493C6.97797 4.83899 6.93059 4.95886 6.84459 5.05241C6.80339 5.09673 6.75284 5.13238 6.69621 5.15705C6.63957 5.18172 6.57811 5.19487 6.51578 5.19564H4.02323C3.96041 5.19559 3.8983 5.18297 3.84099 5.15859C3.78367 5.13422 3.73244 5.09864 3.69064 5.0542C3.60464 4.96065 3.55726 4.84078 3.55726 4.71672C3.55726 4.59266 3.60464 4.47279 3.69064 4.37924L3.69253 4.38282ZM17.9675 6.13916C17.9666 6.00552 17.9198 5.87578 17.8343 5.76952C17.7487 5.66327 17.629 5.58626 17.4932 5.55014L11.7295 0.227382C11.6692 0.156077 11.5927 0.0985945 11.5056 0.0592239C11.4186 0.0198533 11.3233 -0.000389433 11.2269 5.6745e-06H1.17164C0.860908 5.6745e-06 0.562899 0.116954 0.343177 0.325125C0.123454 0.533295 1.47492e-05 0.815634 1.47492e-05 1.11003V20.0986C-0.00076341 20.2447 0.0292572 20.3895 0.0883161 20.5245C0.147375 20.6594 0.234283 20.7819 0.343944 20.8846C0.563896 21.0919 0.861416 21.2084 1.17164 21.2087H12.4571C12.1015 20.8215 11.7804 20.4072 11.4971 19.9697H1.3077V1.23357H10.5673V6.26628C10.5678 6.43121 10.6373 6.58923 10.7606 6.70568C10.8839 6.82214 11.0509 6.88754 11.225 6.88754H16.6598V9.00375C17.102 9.26872 17.5379 9.51042 17.9675 9.72884V6.13916ZM13.7459 15.9199L14.7682 15.9074C15.0403 15.9504 15.5997 16.423 15.7962 16.6235C15.9644 16.3693 16.1382 16.1258 16.3178 15.8895C16.5168 15.6269 16.7209 15.3763 16.93 15.1375C17.1568 14.8761 17.393 14.6273 17.6349 14.3892C17.8447 14.1815 18.2226 13.7625 18.4966 13.6623C18.5047 13.6604 18.5131 13.6604 18.5212 13.6623H19.6399C19.6574 13.6623 19.6743 13.6689 19.6867 13.6806C19.6991 13.6924 19.706 13.7083 19.706 13.7249C19.7061 13.7334 19.7043 13.7417 19.7008 13.7494C19.6972 13.7572 19.6919 13.7641 19.6853 13.7697L19.4642 13.9971C19.119 14.3551 18.7902 14.7234 18.4777 15.1017C18.1621 15.4795 17.8617 15.8644 17.5782 16.2529C17.2948 16.6414 17.0283 17.0317 16.7751 17.431C16.5219 17.8302 16.28 18.242 16.0551 18.6556L15.9134 18.9134C15.905 18.9278 15.8911 18.9385 15.8746 18.9435C15.8581 18.9485 15.8402 18.9473 15.8245 18.9403C15.8118 18.9329 15.8013 18.9224 15.7943 18.9098L15.6658 18.6484C15.5508 18.4109 15.4208 18.1801 15.2765 17.9574C15.1364 17.7395 14.9811 17.5308 14.8117 17.3325C14.6429 17.135 14.4598 16.949 14.2636 16.7757C14.0632 16.5996 13.849 16.438 13.623 16.2923C13.6113 16.2845 13.6025 16.2733 13.5981 16.2604C13.5937 16.2475 13.5938 16.2336 13.5985 16.2207L13.6797 15.9629C13.6842 15.9497 13.693 15.9382 13.705 15.9301C13.7169 15.9221 13.7312 15.9179 13.7459 15.9181V15.9199Z" fill="white"/>
</svg>
