<svg width="32" height="25" viewBox="0 0 32 25" fill="none" xmlns="http://www.w3.org/2000/svg">
<path d="M5.2474 22.5026L8.23698 19.75C8.37407 19.6241 8.55095 19.5542 8.73438 19.5536H15.974C16.0059 19.5539 16.0375 19.5477 16.0671 19.5353C16.0966 19.5228 16.1234 19.5044 16.146 19.4811C16.1685 19.4578 16.1864 19.4301 16.1984 19.3995C16.2105 19.369 16.2165 19.3363 16.2161 19.3033V17.732H17.7083V19.3033C17.7063 19.7794 17.5223 20.2353 17.1966 20.572C16.8708 20.9086 16.4295 21.0986 15.9688 21.1008H9.01562L5.02604 24.7736C4.92199 24.8812 4.7895 24.9547 4.6452 24.9847C4.5009 25.0148 4.35121 25.0002 4.21492 24.9427C4.07863 24.8853 3.9618 24.7875 3.87909 24.6616C3.79638 24.5358 3.75147 24.3876 3.75 24.2355V21.1008H1.74219C1.281 21.0993 0.83906 20.9096 0.512707 20.5729C0.186355 20.2362 0.0020599 19.7799 0 19.3033L0 7.69282C0.00542139 7.21739 0.190795 6.76305 0.516423 6.4271C0.842052 6.09115 1.28205 5.9003 1.74219 5.8954H11.2891V7.44258H1.74219C1.6789 7.44636 1.61911 7.47386 1.57405 7.51993C1.52898 7.56599 1.50173 7.62747 1.4974 7.69282V19.3033C1.49763 19.3361 1.5042 19.3684 1.51672 19.3984C1.52925 19.4285 1.54747 19.4556 1.57031 19.4782C1.61662 19.5244 1.67785 19.5513 1.74219 19.5536H4.4974C4.69631 19.5536 4.88707 19.6352 5.02773 19.7806C5.16838 19.9259 5.2474 20.123 5.2474 20.3285V22.5026ZM5.30208 17.2611L7.70833 9.75123H10.0078L12.4141 17.2611H10.5078L10.1042 15.8942H7.59115L7.19792 17.2611H5.30208ZM8.01823 14.3255H9.67708L8.85417 11.25L8.01823 14.3255ZM19.9557 3.59213H22.2214V2.98941C22.2214 2.94017 22.2403 2.89294 22.274 2.85813C22.3077 2.82331 22.3534 2.80375 22.401 2.80375H23.612C23.6355 2.80375 23.6587 2.80857 23.6804 2.81793C23.702 2.82729 23.7216 2.84101 23.7381 2.85829C23.7546 2.87556 23.7676 2.89605 23.7763 2.91856C23.7851 2.94107 23.7894 2.96516 23.7891 2.98941V3.59213H26.3307C26.3542 3.59213 26.3774 3.59695 26.3991 3.60631C26.4208 3.61568 26.4404 3.6294 26.4569 3.64667C26.4734 3.66395 26.4863 3.68444 26.4951 3.70695C26.5038 3.72946 26.5082 3.75354 26.5078 3.77779V4.97786C26.5078 5.02639 26.4892 5.07293 26.4559 5.10724C26.4227 5.14156 26.3777 5.16083 26.3307 5.16083H25.9271C25.8738 5.51453 25.7945 5.86353 25.6901 6.20484V6.22098C25.5705 6.606 25.4189 6.97961 25.237 7.33764C25.07 7.65699 24.8839 7.96523 24.6797 8.26056C24.5052 8.52964 24.3125 8.7718 24.1068 9.02204C24.4011 9.38962 24.7214 9.73408 25.0651 10.0526C25.4815 10.4224 25.9246 10.7588 26.3906 11.0589C26.4103 11.0718 26.4274 11.0886 26.4408 11.1082C26.4542 11.1279 26.4637 11.1502 26.4688 11.1737C26.4739 11.1972 26.4744 11.2215 26.4704 11.2452C26.4664 11.2689 26.4578 11.2916 26.4453 11.3119L25.8229 12.3155C25.81 12.3376 25.7928 12.3567 25.7724 12.3716C25.7519 12.3865 25.7287 12.3967 25.7042 12.4018C25.6797 12.4069 25.6544 12.4066 25.63 12.401C25.6056 12.3954 25.5826 12.3846 25.5625 12.3693C25.0521 12.0417 24.5663 11.6747 24.1094 11.2715C23.7379 10.929 23.3899 10.5604 23.0677 10.1683C22.7344 10.475 22.4349 10.7629 22.1354 11.032C21.7813 11.3334 21.4089 11.624 20.9714 11.9361C20.9517 11.9518 20.9291 11.9631 20.9051 11.9693C20.881 11.9755 20.8559 11.9765 20.8315 11.9722C20.807 11.9679 20.7836 11.9584 20.7629 11.9443C20.7422 11.9302 20.7245 11.9119 20.7109 11.8904L20.0521 10.9056C20.0369 10.8853 20.026 10.8619 20.02 10.8371C20.014 10.8122 20.013 10.7863 20.0172 10.761C20.0213 10.7357 20.0305 10.7116 20.0442 10.6902C20.0578 10.6687 20.0756 10.6505 20.0964 10.6365C20.5286 10.3297 20.8776 10.0472 21.2318 9.75392C21.5339 9.48485 21.8255 9.21577 22.1406 8.90365C21.8778 8.5194 21.6369 8.11959 21.4193 7.70627C21.1711 7.21455 20.9747 6.69677 20.8333 6.16179C20.827 6.13864 20.8251 6.11443 20.8278 6.09054C20.8306 6.06665 20.8378 6.04354 20.8492 6.02255C20.8605 6.00156 20.8758 5.98309 20.8941 5.96819C20.9124 5.9533 20.9333 5.94228 20.9557 5.93577L22.0677 5.61557C22.0901 5.60901 22.1135 5.60708 22.1367 5.60988C22.1598 5.61269 22.1821 5.62018 22.2025 5.63193C22.2228 5.64367 22.2407 5.65945 22.2551 5.67834C22.2695 5.69723 22.2802 5.71888 22.2865 5.74203C22.4654 6.45224 22.7671 7.12316 23.1771 7.72242L23.5078 7.26499C23.6506 7.05107 23.7819 6.8292 23.901 6.60038C24.0273 6.34871 24.1336 6.08684 24.2188 5.81737C24.2872 5.6018 24.3445 5.38265 24.3906 5.16083H19.9635C19.9163 5.16084 19.871 5.14165 19.8374 5.10741C19.8038 5.07317 19.7845 5.02664 19.7839 4.97786V3.76703C19.7839 3.71779 19.8028 3.67057 19.8365 3.63575C19.8702 3.60093 19.9159 3.58137 19.9635 3.58137L19.9557 3.59213ZM26.987 18.8809L22.9844 15.2054H16.026C15.5653 15.2025 15.1241 15.0123 14.7981 14.676C14.472 14.3396 14.2873 13.884 14.2839 13.4079V1.8001C14.2879 1.32222 14.4752 0.865512 14.8047 0.530075L14.8568 0.481642C15.1745 0.175689 15.5917 0.00384765 16.026 0L30.2578 0C30.7195 0.00435139 31.1607 0.197909 31.4844 0.538147L31.5339 0.591962C31.8307 0.921942 31.9971 1.35496 32 1.80548V13.4079C31.9966 13.884 31.8119 14.3396 31.4858 14.676C31.1597 15.0123 30.7186 15.2025 30.2578 15.2054H28.2526V18.332C28.2504 18.4841 28.205 18.6321 28.1219 18.7577C28.0389 18.8833 27.9219 18.9808 27.7856 19.0382C27.6493 19.0956 27.4996 19.1102 27.3553 19.0804C27.211 19.0505 27.0784 18.9774 26.974 18.8701L26.987 18.8809ZM23.7656 13.8546L26.7526 16.6072V14.4331C26.7526 14.2276 26.8316 14.0305 26.9723 13.8852C27.1129 13.7398 27.3037 13.6582 27.5026 13.6582H30.2578C30.2894 13.6578 30.3207 13.6509 30.3497 13.638C30.3788 13.6251 30.4051 13.6063 30.4271 13.5828C30.4504 13.5604 30.4691 13.5334 30.4821 13.5033C30.4951 13.4733 30.502 13.4408 30.5026 13.4079V1.8001C30.5 1.74312 30.4799 1.68847 30.4453 1.64404L30.4271 1.61444C30.3818 1.56786 30.3216 1.54009 30.2578 1.53641H16.026C15.972 1.54546 15.9225 1.57293 15.8854 1.61444H15.8568C15.834 1.63718 15.8159 1.66434 15.8034 1.69436C15.7909 1.72438 15.7842 1.75666 15.7839 1.78934V13.4079C15.7835 13.4409 15.7895 13.4736 15.8016 13.5041C15.8136 13.5347 15.8315 13.5624 15.854 13.5857C15.8766 13.609 15.9034 13.6274 15.933 13.6399C15.9625 13.6523 15.9941 13.6585 16.026 13.6582H23.2682C23.4518 13.6581 23.6289 13.728 23.7656 13.8546Z" fill="white"/>
</svg>
