<svg width="24" height="16" viewBox="0 0 24 16" fill="none" xmlns="http://www.w3.org/2000/svg">
<path d="M0.146502 7.64649L7.6465 0.146496C7.84182 -0.048832 8.15823 -0.048832 8.35351 0.146496C8.54884 0.341824 8.54884 0.65823 8.35351 0.853511L1.70702 7.50001H23.5C23.7764 7.50001 24 7.72365 24 8.00002C24 8.2764 23.7764 8.50004 23.5 8.50004H1.70702L8.35351 15.1465C8.54884 15.3418 8.54884 15.6582 8.35351 15.8535C8.25587 15.9511 8.1279 16 7.99998 16C7.87206 16 7.74414 15.9511 7.64645 15.8535L0.146454 8.35351C-0.0488262 8.15822 -0.0488262 7.84182 0.146502 7.64649Z" fill="white"/>
</svg>
