<svg width="48" height="49" viewBox="0 0 48 49" fill="none" xmlns="http://www.w3.org/2000/svg">
<g clip-path="url(#clip0_1487_21733)">
<path d="M30.3671 27.966C30.3671 31.558 27.5187 34.4658 24 34.4658C20.4813 34.4658 17.6329 31.558 17.6329 27.966C17.6329 24.374 20.4813 21.4662 24 21.4662C27.5187 21.4662 30.3671 24.374 30.3671 27.966ZM43.3971 11.6763C45.94 11.6763 48 13.7791 48 16.375V28.6904V39.1344C48 41.9013 45.8021 44.1451 43.0916 44.1451H4.90842C2.19795 44.1451 0 41.9013 0 39.1344V28.6804V16.375C0 13.7791 2.05996 11.6763 4.60287 11.6763H13.8086L14.2423 9.8048C14.9027 6.90706 17.4357 4.85449 20.3532 4.85449H27.6567C30.5741 4.85449 33.1072 6.90706 33.7676 9.8048L34.1914 11.6763H43.3971ZM9.6 18.4578C9.6 17.1598 8.56509 16.1034 7.29363 16.1034C6.01232 16.1034 4.97741 17.1598 4.97741 18.4578C4.97741 19.7557 6.01232 20.8122 7.28378 20.8122C8.56509 20.8223 9.6 19.7658 9.6 18.4578ZM35.3544 27.966C35.3544 21.5668 30.2686 16.375 24 16.375C17.7314 16.375 12.6456 21.5668 12.6456 27.966C12.6456 34.3652 17.7314 39.557 24 39.557C30.2686 39.557 35.3544 34.3652 35.3544 27.966Z" fill="black"/>
</g>
<defs>
<clipPath id="clip0_1487_21733">
<rect width="48" height="49" fill="white"/>
</clipPath>
</defs>
</svg>
