<svg width="22" height="22" viewBox="0 0 22 22" fill="none" xmlns="http://www.w3.org/2000/svg">
<path d="M16.5763 7.30572C16.5763 3.2735 12.8688 0 8.29097 0C3.70836 0 0 3.2735 0 7.30572C0 9.78868 1.41328 11.9706 3.56013 13.2928L1.50203 17.9997L5.96568 14.2866C6.70775 14.4785 7.48001 14.6149 8.29097 14.6149C12.8698 14.6149 16.5763 11.3425 16.5763 7.30572ZM5.68715 8.09852H3.93683V5.99152H5.68715V8.09852ZM10.9986 5.99152H12.7489V8.09852H10.9986V5.99152ZM7.46772 5.99152H9.21712V8.09852H7.46772V5.99152Z" fill="white"/>
<path d="M21.9997 11.904C21.9997 9.25404 20.3031 6.95511 17.8155 5.79883C17.9382 6.34287 18.0043 6.90741 18.0043 7.48894C18.0043 12.2686 13.6143 16.1463 8.18956 16.1463C8.12251 16.1463 8.06023 16.1292 7.99414 16.1292C9.42444 17.7546 11.6572 18.8041 14.1713 18.8041C14.9379 18.8041 15.6658 18.6758 16.3663 18.4963L20.5845 22.0004L18.6387 17.5581C20.6666 16.3076 21.9997 14.2472 21.9997 11.904Z" fill="white"/>
</svg>
