<svg width="28" height="28" viewBox="0 0 28 28" fill="none" xmlns="http://www.w3.org/2000/svg">
<g filter="url(#filter0_d_1247_13370)">
<path fill-rule="evenodd" clip-rule="evenodd" d="M22.8235 17.2306C22.1082 17.7353 20.8576 18.4447 19.2412 18.8823C19.0447 17.8141 18.2753 16.9306 17.1988 16.6C16.2435 16.3059 15.2706 16.0965 14.2871 15.9576C15.0365 15.3247 15.5541 14.4388 15.7035 13.4247C15.9318 13.4165 16.1706 13.4118 16.4435 13.4118C18.1729 13.4212 19.8929 13.6859 21.5576 14.1976C22.3141 14.4306 22.8235 15.1118 22.8235 15.8941V17.2306ZM18.1176 20.76C16.9282 21.6012 14.6776 22.8235 11.6471 22.8235C10.2988 22.8235 7.69765 22.5506 5.17647 20.76V19.4188C5.17647 18.6376 5.68706 17.9553 6.4447 17.7224C8.13647 17.2047 9.88589 16.9424 11.6471 16.9424H11.7353C13.4706 16.9506 15.1918 17.2141 16.8541 17.7247C17.6094 17.9565 18.1177 18.6376 18.1177 19.4188V20.76H18.1176ZM8.70588 12.8235V11.6471C8.70588 10.0259 10.0247 8.70589 11.6471 8.70589C13.2694 8.70589 14.5882 10.0259 14.5882 11.6471V12.8235C14.5882 14.4459 13.2694 15.7647 11.6471 15.7647C10.0247 15.7647 8.70589 14.4459 8.70589 12.8235H8.70588ZM16.3529 5.17648C17.1365 5.17648 17.8753 5.48354 18.4318 6.04001C18.9871 6.59648 19.2941 7.33412 19.2941 8.11765V9.29412C19.2941 10.9165 17.9753 12.2353 16.3529 12.2353C16.1482 12.2353 15.9529 12.2082 15.7647 12.1682V11.6471C15.7647 10.0177 14.8059 8.61883 13.4294 7.95177C13.5165 6.40941 14.7882 5.17648 16.3529 5.17648ZM21.9035 13.0729C20.9518 12.7812 19.9812 12.5706 18.9894 12.4306C19.8871 11.6753 20.4706 10.5576 20.4706 9.29413V8.11764C20.4706 7.02 20.0424 5.98587 19.2635 5.20823C18.4847 4.42941 17.4518 4 16.3529 4C14.2624 4 12.5494 5.57294 12.2882 7.59529C12.0776 7.56117 11.8671 7.5294 11.6471 7.5294C9.37647 7.5294 7.52942 9.37763 7.52942 11.647V12.8235C7.52942 14.087 8.11294 15.2047 9.01176 15.9612C8.02942 16.0988 7.05176 16.3059 6.1 16.5976C4.84471 16.9835 4 18.1176 4 19.4188V21.3529L4.23529 21.5294C7.10235 23.6788 10.1082 24 11.6471 24C15.2329 24 17.8306 22.4518 19.0588 21.5294L19.2941 21.353V20.0976C21.4318 19.5706 22.9988 18.5765 23.7647 18L24 17.8235V15.8941C24 14.5918 23.1565 13.4576 21.9035 13.0729Z" fill="#00C0CC"/>
</g>
<defs>
<filter id="filter0_d_1247_13370" x="0" y="0" width="28" height="28" filterUnits="userSpaceOnUse" color-interpolation-filters="sRGB">
<feFlood flood-opacity="0" result="BackgroundImageFix"/>
<feColorMatrix in="SourceAlpha" type="matrix" values="0 0 0 0 0 0 0 0 0 0 0 0 0 0 0 0 0 0 127 0" result="hardAlpha"/>
<feOffset/>
<feGaussianBlur stdDeviation="2"/>
<feComposite in2="hardAlpha" operator="out"/>
<feColorMatrix type="matrix" values="0 0 0 0 0 0 0 0 0 0.752 0 0 0 0 0.8 0 0 0 1 0"/>
<feBlend mode="normal" in2="BackgroundImageFix" result="effect1_dropShadow_1247_13370"/>
<feBlend mode="normal" in="SourceGraphic" in2="effect1_dropShadow_1247_13370" result="shape"/>
</filter>
</defs>
</svg>
