<svg width="22" height="22" viewBox="0 0 22 22" fill="none" xmlns="http://www.w3.org/2000/svg">
<path d="M15.9403 9.04195C15.2008 10.3826 14.3485 11.6692 13.2418 12.8425C12.1316 14.023 10.751 15.0973 8.96398 16.015C8.83147 16.0798 8.70613 16.0798 8.59331 16.0348C8.4232 15.97 8.24951 15.8278 8.0794 15.6569C7.94689 15.5237 7.78215 15.3114 7.61025 15.0793C6.92264 14.1705 6.07208 13.0422 4.87056 13.6073C4.8437 13.6199 4.824 13.6343 4.79714 13.6451L0.789677 15.961C0.777142 15.9682 0.762815 15.9808 0.752071 15.988C0.223831 16.3533 0.00537109 16.9165 0 17.5554C0 18.205 0.238155 18.9356 0.587332 19.5528C1.04932 20.368 1.72976 20.9078 2.51407 21.2641C3.26077 21.6096 4.09163 21.795 4.89026 21.9137C6.14371 22.0991 7.31837 21.9803 8.5199 21.6096C9.69456 21.2443 10.8782 20.6415 12.171 19.8389L12.2659 19.7777C12.8586 19.4052 13.4997 19.0076 14.1282 18.5379C16.4274 16.7924 18.7714 14.2713 20.2988 11.4965C21.5791 9.16791 22.2774 6.65402 21.896 4.25889C21.6847 2.94526 21.1243 1.75039 20.1466 0.962216C19.2942 0.27121 18.1464 -0.106684 16.6602 0.0264782C16.4901 0.0390746 16.3379 0.138047 16.2573 0.285605L13.6877 4.65118C13.3117 5.14064 13.2651 5.62651 13.471 6.11237C13.6411 6.51006 13.985 6.87716 14.4541 7.21906C14.592 7.33783 14.7567 7.45839 14.9304 7.58436C15.5052 8.00364 16.1588 8.48771 15.935 9.05635L15.9403 9.04195Z" fill="white"/>
</svg>
