<svg width="22" height="29" viewBox="0 0 22 29" fill="none" xmlns="http://www.w3.org/2000/svg">
<path d="M6.73463 5.18284H19.5533C20.8995 5.18284 22 6.51285 22 8.13993V26.0429C22 27.6626 20.8939 29 19.5533 29H6.73463C5.38883 29 4.28836 27.6694 4.28836 26.0429V8.13993C4.28836 6.51172 5.38789 5.18284 6.73463 5.18284ZM12.4771 14.8178C12.0151 15.5916 11.0422 14.7463 11.5014 13.9708L12.3613 12.5268C12.5767 12.1642 12.8493 11.8567 13.1634 11.622C13.4793 11.3867 13.8302 11.2284 14.1963 11.156C14.9656 11.0046 15.7124 11.2427 16.2974 11.7507C16.8823 12.2598 17.3064 13.0387 17.4321 13.9685C17.4917 14.4111 17.4792 14.8635 17.395 15.3002C17.3112 15.7349 17.1569 16.1452 16.9409 16.5072L16.0816 17.9512C15.6205 18.7262 14.6457 17.8786 15.1073 17.1036L15.9657 15.6602C16.0928 15.4471 16.1791 15.2112 16.2261 14.9686C16.2748 14.7163 16.2809 14.4549 16.2472 14.2026C16.1745 13.6658 15.9315 13.2179 15.597 12.9271C15.2621 12.6357 14.8333 12.5002 14.3901 12.588C14.1813 12.6294 13.9787 12.7196 13.7957 12.8556C13.6157 12.99 13.4594 13.1661 13.336 13.3738L12.4771 14.8178ZM13.4678 15.188C13.9322 14.4164 14.899 15.26 14.4393 16.0355L12.8426 18.9512C12.381 19.7211 11.4123 18.8781 11.8706 18.1042L13.4678 15.188ZM13.7957 19.3917C14.2578 18.6167 15.2316 19.4643 14.7705 20.2393L13.9275 21.6555C13.7052 22.0285 13.4308 22.3324 13.1249 22.5603C12.8092 22.7959 12.4583 22.9542 12.092 23.0263C11.3227 23.1777 10.5764 22.9396 9.99147 22.4316C9.40652 21.9231 8.98247 21.1435 8.85676 20.2138C8.79693 19.7718 8.80937 19.32 8.89335 18.8838C8.9778 18.4496 9.13226 18.0398 9.34789 17.6779L10.1927 16.2555C10.6557 15.485 11.6253 16.332 11.1661 17.1053L10.3226 18.5221C10.1986 18.7292 10.1099 18.9641 10.0618 19.2131C10.0139 19.4642 10.0071 19.7242 10.0417 19.9785L10.0421 19.9825C10.1144 20.5171 10.3569 20.9644 10.6913 21.2546C11.0258 21.5455 11.4531 21.6815 11.8964 21.5948L11.8997 21.5937C12.108 21.5523 12.3106 21.4621 12.4922 21.3266C12.6676 21.1963 12.8252 21.0222 12.9523 20.8085L13.7957 19.3917ZM1.71591 19.8889C1.71591 20.4615 1.33173 20.9258 0.857953 20.9258C0.384179 20.9258 0 20.4615 0 19.8889V2.95709C0 1.32888 1.09953 0 2.44674 0H15.2649C15.7387 0 16.1229 0.464313 16.1229 1.03691C16.1229 1.6095 15.7387 2.07382 15.2649 2.07382H2.44674C2.04614 2.07382 1.71591 2.47293 1.71591 2.95709V19.8889ZM19.5533 7.25666H6.73463C6.3345 7.25666 6.00426 7.65578 6.00426 8.13993V26.0429C6.00426 26.5259 6.33544 26.9262 6.73463 26.9262H19.5533C19.9562 26.9262 20.2841 26.5299 20.2841 26.0429V8.13993C20.2841 7.65691 19.9529 7.25666 19.5533 7.25666Z" fill="black"/>
</svg>
