<svg width="34" height="34" viewBox="0 0 34 34" fill="none" xmlns="http://www.w3.org/2000/svg">
<path d="M8.49947 7.55703V9.44581H5.31217C3.55187 9.44581 2.12487 10.7143 2.12487 12.279V29.278C2.12487 30.8428 3.55187 32.1112 5.31217 32.1112H20.1862C21.9465 32.1112 23.3735 30.8428 23.3735 29.278V26.4449H25.4984V29.278C25.4984 31.8859 23.1201 34 20.1862 34H5.31217C2.37834 34 0 31.8859 0 29.278V12.279C0 9.67112 2.37834 7.55703 5.31217 7.55703H8.49947ZM25.4984 1.89068H13.8116C12.0513 1.89068 10.6243 3.15913 10.6243 4.72385V21.7229C10.6243 23.2876 12.0513 24.5561 13.8116 24.5561H28.6857C30.446 24.5561 31.873 23.2876 31.873 21.7229V7.55703H26.5608C25.9741 7.55703 25.4984 7.13421 25.4984 6.61264V1.89068ZM33.9979 6.66548V21.7229C33.9979 24.3308 31.6195 26.4449 28.6857 26.4449H13.8116C10.8778 26.4449 8.49947 24.3308 8.49947 21.7229V4.72385C8.49947 2.11599 10.8778 0.00189327 13.8116 0.00189327H26.5014C26.7835 -0.0140093 27.0771 0.0695865 27.3121 0.278499L33.6867 5.94485C33.9217 6.15376 34.0158 6.41475 33.9979 6.66548ZM27.6233 5.66824H30.3705L27.6233 3.22625V5.66824ZM15.9365 18.8897C15.3497 18.8897 14.8741 18.4669 14.8741 17.9453C14.8741 17.4238 15.3497 17.0009 15.9365 17.0009H20.1862C20.773 17.0009 21.2487 17.4238 21.2487 17.9453C21.2487 18.4669 20.773 18.8897 20.1862 18.8897H15.9365ZM15.9365 15.1122C15.3497 15.1122 14.8741 14.6893 14.8741 14.1678C14.8741 13.6462 15.3497 13.2234 15.9365 13.2234H26.5608C27.1476 13.2234 27.6233 13.6462 27.6233 14.1678C27.6233 14.6893 27.1476 15.1122 26.5608 15.1122H15.9365ZM15.9365 11.3346C15.3497 11.3346 14.8741 10.9118 14.8741 10.3902C14.8741 9.86863 15.3497 9.44581 15.9365 9.44581H26.5608C27.1476 9.44581 27.6233 9.86863 27.6233 10.3902C27.6233 10.9118 27.1476 11.3346 26.5608 11.3346H15.9365Z" fill="white"/>
</svg>
