<svg width="29" height="30" viewBox="0 0 29 30" fill="none" xmlns="http://www.w3.org/2000/svg">
<path d="M14.5 0C14.8205 0 15.1278 0.131696 15.3544 0.366117C15.581 0.600537 15.7083 0.918479 15.7083 1.25V6.25C15.7083 6.58152 15.581 6.89946 15.3544 7.13388C15.1278 7.3683 14.8205 7.5 14.5 7.5C14.1795 7.5 13.8722 7.3683 13.6456 7.13388C13.419 6.89946 13.2917 6.58152 13.2917 6.25V1.25C13.2917 0.918479 13.419 0.600537 13.6456 0.366117C13.8722 0.131696 14.1795 0 14.5 0ZM5.95587 4.39375C5.72798 4.16605 5.42275 4.04006 5.10593 4.04291C4.78911 4.04576 4.48605 4.17722 4.26201 4.40898C4.03798 4.64074 3.9109 4.95425 3.90814 5.282C3.90539 5.60974 4.02718 5.9255 4.24729 6.16125L7.66446 9.69625C7.89235 9.92395 8.19758 10.0499 8.5144 10.0471C8.83122 10.0442 9.13429 9.91278 9.35832 9.68102C9.58236 9.44926 9.70944 9.13575 9.71219 8.808C9.71494 8.48026 9.59315 8.1645 9.37304 7.92875L5.95587 4.39375ZM1.20833 13.75C0.887863 13.75 0.580519 13.8817 0.353913 14.1161C0.127306 14.3505 0 14.6685 0 15C0 15.3315 0.127306 15.6495 0.353913 15.8839C0.580519 16.1183 0.887863 16.25 1.20833 16.25H6.04167C6.36214 16.25 6.66948 16.1183 6.89609 15.8839C7.12269 15.6495 7.25 15.3315 7.25 15C7.25 14.6685 7.12269 14.3505 6.89609 14.1161C6.66948 13.8817 6.36214 13.75 6.04167 13.75H1.20833ZM21.75 15C21.75 14.6685 21.8773 14.3505 22.1039 14.1161C22.3305 13.8817 22.6379 13.75 22.9583 13.75H27.7917C28.1121 13.75 28.4195 13.8817 28.6461 14.1161C28.8727 14.3505 29 14.6685 29 15C29 15.3315 28.8727 15.6495 28.6461 15.8839C28.4195 16.1183 28.1121 16.25 27.7917 16.25H22.9583C22.6379 16.25 22.3305 16.1183 22.1039 15.8839C21.8773 15.6495 21.75 15.3315 21.75 15ZM21.3355 20.3037C21.1076 20.0761 20.8024 19.9501 20.4856 19.9529C20.1688 19.9558 19.8657 20.0872 19.6417 20.319C19.4176 20.5507 19.2906 20.8643 19.2878 21.192C19.2851 21.5197 19.4069 21.8355 19.627 22.0712L23.0441 25.6063C23.1556 25.7256 23.2889 25.8209 23.4363 25.8864C23.5838 25.9519 23.7423 25.9864 23.9028 25.9878C24.0632 25.9893 24.2223 25.9576 24.3708 25.8948C24.5193 25.8319 24.6542 25.7391 24.7677 25.6217C24.8811 25.5044 24.9709 25.3648 25.0316 25.2112C25.0924 25.0576 25.1229 24.893 25.1216 24.727C25.1202 24.561 25.0868 24.397 25.0235 24.2445C24.9602 24.092 24.8681 23.9541 24.7527 23.8387L21.3355 20.3037ZM9.37304 22.0712C9.48845 21.9559 9.5805 21.818 9.64383 21.6655C9.70716 21.513 9.74049 21.349 9.74189 21.183C9.74328 21.017 9.71271 20.8524 9.65195 20.6988C9.5912 20.5452 9.50147 20.4056 9.38802 20.2883C9.27457 20.1709 9.13965 20.0781 8.99115 20.0152C8.84265 19.9524 8.68354 19.9207 8.5231 19.9222C8.36266 19.9236 8.2041 19.9581 8.05668 20.0236C7.90926 20.0891 7.77592 20.1844 7.66446 20.3037L4.24729 23.8375C4.13188 23.9528 4.03983 24.0907 3.9765 24.2432C3.91318 24.3958 3.87984 24.5598 3.87845 24.7257C3.87705 24.8917 3.90763 25.0563 3.96838 25.2099C4.02914 25.3636 4.11886 25.5031 4.23231 25.6205C4.34577 25.7379 4.48068 25.8307 4.62918 25.8935C4.77768 25.9564 4.93679 25.988 5.09724 25.9866C5.25768 25.9851 5.41623 25.9506 5.56366 25.8851C5.71108 25.8196 5.84441 25.7244 5.95587 25.605L9.37304 22.0712ZM24.7527 6.16125C24.9728 5.9255 25.0946 5.60974 25.0919 5.282C25.0891 4.95425 24.962 4.64074 24.738 4.40898C24.514 4.17722 24.2109 4.04576 23.8941 4.04291C23.5772 4.04006 23.272 4.16605 23.0441 4.39375L19.627 7.92875C19.5116 8.04406 19.4195 8.18199 19.3562 8.33449C19.2928 8.487 19.2595 8.65102 19.2581 8.817C19.2567 8.98297 19.2873 9.14757 19.348 9.30119C19.4088 9.45481 19.4985 9.59438 19.612 9.71174C19.7254 9.82911 19.8603 9.92193 20.0088 9.98478C20.1573 10.0476 20.3165 10.0793 20.4769 10.0778C20.6373 10.0764 20.7959 10.0419 20.9433 9.97638C21.0907 9.91087 21.2241 9.81564 21.3355 9.69625L24.7527 6.16125ZM15.7083 23.75C15.7083 23.4185 15.581 23.1005 15.3544 22.8661C15.1278 22.6317 14.8205 22.5 14.5 22.5C14.1795 22.5 13.8722 22.6317 13.6456 22.8661C13.419 23.1005 13.2917 23.4185 13.2917 23.75V28.75C13.2917 29.0815 13.419 29.3995 13.6456 29.6339C13.8722 29.8683 14.1795 30 14.5 30C14.8205 30 15.1278 29.8683 15.3544 29.6339C15.581 29.3995 15.7083 29.0815 15.7083 28.75V23.75ZM14.5 8.75C12.8977 8.75 11.3609 9.40848 10.2279 10.5806C9.09486 11.7527 8.45833 13.3424 8.45833 15C8.45833 16.6576 9.09486 18.2473 10.2279 19.4194C11.3609 20.5915 12.8977 21.25 14.5 21.25C16.1024 21.25 17.6391 20.5915 18.7721 19.4194C19.9051 18.2473 20.5417 16.6576 20.5417 15C20.5417 13.3424 19.9051 11.7527 18.7721 10.5806C17.6391 9.40848 16.1024 8.75 14.5 8.75Z" fill="black"/>
</svg>
