<svg width="14" height="20" viewBox="0 0 14 20" fill="none" xmlns="http://www.w3.org/2000/svg">
<path fill-rule="evenodd" clip-rule="evenodd" d="M1.48658 5.47575H12.6003C13.1333 5.47575 13.5158 5.85792 13.4624 6.57653L12.5189 18.9676C12.4812 19.4897 12.2429 20 11.7422 20H2.34377C1.92531 19.9715 1.61491 19.619 1.57346 19.0567L0.63829 6.60349C0.584868 5.88527 0.937632 5.47575 1.48658 5.47575ZM0.751886 1.49076H4.94175V1.09804C4.94175 0.475167 5.25491 0 5.77132 0H8.26676C8.7979 0 9.11566 0.459927 9.11566 1.09453V1.49076H13.3728C13.3903 1.49076 13.4068 1.49349 13.4243 1.49584C13.7384 1.53218 13.9816 1.84831 13.9982 2.24688C13.9991 2.27775 14 2.3012 14 2.33168V4.00258C14 4.23665 13.8548 4.42812 13.6739 4.43984C13.6574 4.43984 13.6405 4.44101 13.6239 4.44101H0.344474C0.162719 4.44101 0.0138158 4.26126 0.000921053 4.0354C0.000921053 4.00727 0 3.97796 0 3.94826V2.40475C0 1.97765 0.129254 1.59548 0.516403 1.50522C0.594079 1.48763 0.672675 1.49076 0.751886 1.49076ZM3.32408 9.63346C3.30842 9.23606 3.57614 8.89766 3.92368 8.8789C4.27092 8.85976 4.56658 9.16807 4.58224 9.56547L4.84934 15.8419C4.865 16.2397 4.59697 16.5781 4.24974 16.5969C3.90219 16.6156 3.60684 16.3077 3.59088 15.9103L3.32408 9.63346ZM9.51662 9.56547C9.53228 9.16807 9.82794 8.85976 10.1752 8.8789C10.5227 8.89766 10.7904 9.23606 10.7748 9.63346L10.5089 15.9103C10.4929 16.3077 10.1976 16.6156 9.85004 16.5969C9.50281 16.5781 9.23478 16.2397 9.25044 15.8419L9.51662 9.56547ZM6.35618 9.59947C6.35618 9.19972 6.63956 8.87539 6.98803 8.87539C7.33618 8.87539 7.61987 9.19972 7.61987 9.59947V15.8763C7.61987 16.276 7.33618 16.6004 6.98803 16.6004C6.63956 16.6004 6.35618 16.276 6.35618 15.8763V9.59947Z" fill="#FD3B3B"/>
</svg>
