<svg width="103" height="88" viewBox="0 0 103 88" fill="none" xmlns="http://www.w3.org/2000/svg">
<path d="M86.0537 10.0765L75.7537 1.27655C75.2725 0.868758 74.7018 0.546129 74.0743 0.327166C73.4469 0.108203 72.775 -0.00278609 72.0972 0.000561824H25.7473C23.0155 0.000561824 20.3957 0.927696 18.4641 2.57801C16.5324 4.22832 15.4473 6.46662 15.4473 8.80051V39.6003C15.4517 40.325 15.6655 41.0376 16.0698 41.6747C16.4741 42.3118 17.0563 42.8537 17.7648 43.2523L45.7807 59.2242C47.4733 60.189 49.4625 60.7039 51.4972 60.7039C53.532 60.7039 55.5211 60.189 57.2137 59.2242L85.2297 43.2523C85.9381 42.8537 86.5204 42.3118 86.9247 41.6747C87.329 41.0376 87.5428 40.325 87.5472 39.6003V13.2005C87.5511 12.6214 87.4212 12.0474 87.1649 11.5113C86.9086 10.9752 86.531 10.4876 86.0537 10.0765Z" fill="#2CA9BC"/>
<path d="M103 39.0283V79.2001C103 81.5339 101.915 83.7722 99.9832 85.4225C98.0515 87.0729 95.4317 88 92.7 88H10.3C7.56831 88 4.94847 87.0729 3.01685 85.4225C1.08523 83.7722 5.12137e-05 81.5339 5.12137e-05 79.2001V39.0283C-0.00583655 37.4329 0.496043 35.8661 1.452 34.4956C2.40796 33.1251 3.78203 32.0024 5.42721 31.2477C7.07239 30.4929 8.9268 30.1344 10.792 30.2107C12.6573 30.2869 14.4632 30.7949 16.0165 31.6803L51.5 51.9202L86.9835 31.6803C88.5368 30.7949 90.3427 30.2869 92.208 30.2107C94.0732 30.1344 95.9276 30.4929 97.5728 31.2477C99.218 32.0024 100.592 33.1251 101.548 34.4956C102.504 35.8661 103.006 37.4329 103 39.0283ZM72.1 8.80049C72.1 9.96743 72.6426 11.0866 73.6084 11.9117C74.5742 12.7369 75.8841 13.2005 77.25 13.2005H87.55C87.5716 12.0372 87.0531 10.914 86.108 10.0765L75.808 1.27653C75.3207 0.863436 74.7416 0.53775 74.1048 0.318622C73.468 0.0994938 72.7864 -0.00865271 72.1 0.000540588V8.80049Z" fill="black"/>
</svg>
