<svg width="80" height="80" viewBox="0 0 80 80" fill="none" xmlns="http://www.w3.org/2000/svg">
<rect x="23" y="7" width="55" height="72" fill="#D9D9D9"/>
<path fill-rule="evenodd" clip-rule="evenodd" d="M42.7306 80H4.41538C1.97612 80 0 78.0227 0 75.5843V4.41536C0 1.97642 1.97643 0 4.41538 0H75.5849C78.0233 0 80 1.97642 80 4.41536V75.5843C80 78.023 78.0229 80 75.5849 80H55.1988V49.0196H65.5975L67.1546 36.946H55.1988V29.2377C55.1988 25.7422 56.1695 23.36 61.1821 23.36L67.5755 23.3572V12.5585C66.4698 12.4114 62.6746 12.0826 58.2593 12.0826C49.0414 12.0826 42.7306 17.7092 42.7306 28.042V36.946H32.3052V49.0196H42.7306V80Z" fill="#4460A0"/>
</svg>
