<svg width="74" height="59" viewBox="0 0 74 59" fill="none" xmlns="http://www.w3.org/2000/svg">
<g clip-path="url(#clip0_1711_23582)">
<path d="M1.09844 0H72.9016C73.5086 0 74 0.458331 74 1.02178V57.9782C74 58.5417 73.5086 59 72.9016 59H1.09844C0.491406 59 0 58.5417 0 57.9782V1.02178C0 0.458331 0.491406 0 1.09844 0ZM28.2082 15.3184C28.8889 15.3184 29.5306 15.4403 30.129 15.68C30.7346 15.9225 31.278 16.2785 31.7564 16.7424C32.2319 17.2035 32.5947 17.7207 32.8418 18.2912C33.0904 18.8617 33.2133 19.4742 33.2133 20.1231C33.2133 20.7889 33.0904 21.4126 32.8433 21.9943C32.5961 22.5774 32.2334 23.1002 31.7564 23.5641L31.6914 23.6216C31.2274 24.0631 30.7071 24.3967 30.1362 24.6266C29.535 24.8676 28.8918 24.9882 28.2082 24.9882C27.5231 24.9882 26.877 24.8676 26.2743 24.628C25.676 24.3897 25.1354 24.0337 24.6527 23.5613C24.1729 23.1002 23.8101 22.5774 23.5629 21.9943C23.3172 21.4126 23.1929 20.7889 23.1929 20.1231C23.1929 19.477 23.3172 18.8659 23.5644 18.2954C23.8101 17.7249 24.1729 17.2049 24.6512 16.7424C25.1296 16.2785 25.6731 15.9225 26.2801 15.68C26.8799 15.4403 27.5231 15.3184 28.2082 15.3184ZM29.2965 17.6437C28.9742 17.5133 28.61 17.4474 28.2082 17.4474C27.802 17.4474 27.4364 17.5133 27.1126 17.6423C26.7889 17.7726 26.4854 17.9744 26.2035 18.2478C25.9246 18.5183 25.7193 18.807 25.5878 19.1112C25.4563 19.4167 25.3898 19.7545 25.3898 20.1231C25.3898 20.5212 25.4563 20.8758 25.5878 21.187C25.7193 21.4967 25.9246 21.7869 26.2035 22.0588L26.2079 22.0672C26.481 22.3349 26.7816 22.5353 27.1068 22.6643C27.4306 22.7932 27.7977 22.8577 28.2082 22.8577C28.6143 22.8577 28.98 22.7932 29.3037 22.6629C29.6072 22.5423 29.8891 22.3587 30.1478 22.1148L30.2027 22.0588C30.4831 21.7869 30.6883 21.4967 30.8198 21.187C30.9514 20.8758 31.0179 20.5212 31.0179 20.1231C31.0179 19.7573 30.9514 19.4209 30.8184 19.114C30.6883 18.8056 30.4816 18.5183 30.2027 18.2478C29.9223 17.9744 29.6188 17.7726 29.2965 17.6437ZM10.6259 41.4951H17.8872L21.7996 32.4378C22.0266 31.9094 22.6668 31.6557 23.2276 31.8687C23.3668 31.9205 23.4933 31.9999 23.599 32.1017C23.7048 32.2036 23.7875 32.3257 23.8419 32.4602L26.5851 38.647H30.3718L35.4925 26.1669C35.7093 25.6371 36.3438 25.3722 36.9075 25.5769C37.1275 25.6566 37.3151 25.8031 37.4423 25.9945L43.2871 34.7841L52.4041 19.9395C52.7077 19.4461 53.3783 19.278 53.9015 19.5639C54.0954 19.6688 54.2509 19.8294 54.3466 20.0236L63.3741 38.448V10.2164H10.6259V41.4951ZM63.3741 43.2401C63.2909 43.1583 63.2225 43.0636 63.1717 42.9598L53.2424 22.6937L44.293 37.2636C44.2015 37.4271 44.0662 37.5636 43.9014 37.6589C43.3883 37.9602 42.7119 37.8116 42.3925 37.3281L36.7442 28.8314L32.1755 39.9701C32.0411 40.399 31.6205 40.713 31.1205 40.713H25.8552C25.4259 40.7116 25.0184 40.4719 24.8435 40.0753L22.8302 35.534L19.662 42.8687C19.5132 43.271 19.1041 43.5611 18.6257 43.5611H10.6259V48.7808H63.3741V43.2401ZM9.52894 8.17147H64.4711C65.0781 8.17147 65.5695 8.6298 65.5695 9.19466V49.8025C65.5695 50.366 65.0781 50.8243 64.4711 50.8243H9.52894C8.92191 50.8243 8.43051 50.366 8.43051 49.8025V9.19466C8.43051 8.6298 8.92191 8.17147 9.52894 8.17147ZM71.8046 2.04357H2.19543V56.9564H71.8046V2.04357Z" fill="white"/>
</g>
<defs>
<clipPath id="clip0_1711_23582">
<rect width="74" height="59" fill="white"/>
</clipPath>
</defs>
</svg>
