<svg width="32" height="29" viewBox="0 0 32 29" fill="none" xmlns="http://www.w3.org/2000/svg">
<path d="M31.4629 13.1053L26.6131 8.38543V2.93313C26.6131 1.94727 25.7922 1.14832 24.7778 1.14832C23.7657 1.14832 22.9448 1.94727 22.9448 2.93313V4.81537L19.3338 1.30089C17.5484 -0.435694 14.4443 -0.432614 12.6631 1.30404L0.536878 13.1053C-0.178959 13.8034 -0.178959 14.9329 0.536878 15.6299C1.25304 16.3278 2.41587 16.3278 3.13177 15.6299L15.2568 3.82826C15.6518 3.44586 16.348 3.44586 16.7409 3.82713L28.868 15.6299C29.2276 15.9789 29.6965 16.1524 30.1652 16.1524C30.6348 16.1524 31.1044 15.9787 31.4629 15.6299C32.179 14.933 32.179 13.8035 31.4629 13.1053Z" fill="white"/>
<path d="M16.6357 7.21599C16.2834 6.87331 15.713 6.87331 15.3617 7.21599L4.69551 17.5936C4.52711 17.7574 4.43164 17.9811 4.43164 18.2145V25.7835C4.43164 27.5597 5.91137 28.9997 7.7363 28.9997H13.0172V21.0404H18.9792V28.9997H24.2601C26.085 28.9997 27.5647 27.5597 27.5647 25.7836V18.2145C27.5647 17.9811 27.4701 17.7574 27.3008 17.5936L16.6357 7.21599Z" fill="white"/>
</svg>
