<svg width="22" height="22" viewBox="0 0 22 22" fill="none" xmlns="http://www.w3.org/2000/svg">
<path d="M21.6307 9.94199L18.2965 6.36136V2.22513C18.2965 1.47724 17.7322 0.87114 17.0347 0.87114C16.3389 0.87114 15.7745 1.47724 15.7745 2.22513V3.65304L13.292 0.986885C12.0645 -0.330527 9.93048 -0.32819 8.70587 0.98927L0.369103 9.94199C-0.123034 10.4715 -0.123034 11.3284 0.369103 11.8572C0.861463 12.3866 1.66091 12.3866 2.15309 11.8572L10.4891 2.9042C10.7606 2.6141 11.2393 2.6141 11.5094 2.90334L19.8468 11.8572C20.094 12.1219 20.4163 12.2536 20.7386 12.2536C21.0615 12.2536 21.3843 12.1217 21.6308 11.8572C22.1231 11.3285 22.1231 10.4716 21.6307 9.94199Z" fill="white"/>
<path d="M11.4372 5.47427C11.195 5.21431 10.8028 5.21431 10.5613 5.47427L3.22828 13.3469C3.11251 13.4712 3.04688 13.6409 3.04688 13.818V19.56C3.04688 20.9074 4.06419 21.9999 5.31883 21.9999H8.94942V15.9617H13.0483V21.9999H16.6789C17.9335 21.9999 18.9508 20.9074 18.9508 19.56V13.818C18.9508 13.6409 18.8858 13.4712 18.7694 13.3469L11.4372 5.47427Z" fill="white"/>
</svg>
