<svg width="97" height="97" viewBox="0 0 97 97" fill="none" xmlns="http://www.w3.org/2000/svg">
<path d="M76.2143 0H20.7857C9.30608 0 0 9.30608 0 20.7857V76.2143C0 87.6939 9.30608 97 20.7857 97H76.2143C87.6939 97 97 87.6939 97 76.2143V20.7857C97 9.30608 87.6939 0 76.2143 0Z" fill="url(#paint0_radial_1579_22439)"/>
<path d="M76.2143 0H20.7857C9.30608 0 0 9.30608 0 20.7857V76.2143C0 87.6939 9.30608 97 20.7857 97H76.2143C87.6939 97 97 87.6939 97 76.2143V20.7857C97 9.30608 87.6939 0 76.2143 0Z" fill="url(#paint1_radial_1579_22439)"/>
<path d="M76.2143 0H20.7857C9.30608 0 0 9.30608 0 20.7857V76.2143C0 87.6939 9.30608 97 20.7857 97H76.2143C87.6939 97 97 87.6939 97 76.2143V20.7857C97 9.30608 87.6939 0 76.2143 0Z" fill="url(#paint2_radial_1579_22439)"/>
<path d="M72.7503 29.4464C72.7503 32.3162 70.4237 34.6429 67.5539 34.6429C64.684 34.6429 62.3574 32.3162 62.3574 29.4464C62.3574 26.5765 64.684 24.25 67.5539 24.25C70.4237 24.25 72.7503 26.5765 72.7503 29.4464Z" fill="white"/>
<path fill-rule="evenodd" clip-rule="evenodd" d="M48.5031 65.8216C58.0693 65.8216 65.8245 58.0664 65.8245 48.5001C65.8245 38.9339 58.0693 31.1787 48.5031 31.1787C38.9368 31.1787 31.1816 38.9339 31.1816 48.5001C31.1816 58.0664 38.9368 65.8216 48.5031 65.8216ZM48.5031 58.893C54.243 58.893 58.8959 54.2401 58.8959 48.5001C58.8959 42.7602 54.243 38.1073 48.5031 38.1073C42.7631 38.1073 38.1102 42.7602 38.1102 48.5001C38.1102 54.2401 42.7631 58.893 48.5031 58.893Z" fill="white"/>
<path fill-rule="evenodd" clip-rule="evenodd" d="M13.8574 47.1148C13.8574 35.4738 13.8574 29.6531 16.1229 25.2069C18.1157 21.2958 21.2955 18.116 25.2066 16.1232C29.6528 13.8577 35.4735 13.8577 47.1146 13.8577H49.886C61.527 13.8577 67.3477 13.8577 71.7938 16.1232C75.705 18.116 78.8848 21.2958 80.8775 25.2069C83.1431 29.6531 83.1431 35.4738 83.1431 47.1148V49.8862C83.1431 61.5273 83.1431 67.348 80.8775 71.794C78.8848 75.7052 75.705 78.8851 71.7938 80.8777C67.3477 83.1434 61.527 83.1434 49.886 83.1434H47.1146C35.4735 83.1434 29.6528 83.1434 25.2066 80.8777C21.2955 78.8851 18.1157 75.7052 16.1229 71.794C13.8574 67.348 13.8574 61.5273 13.8574 49.8862V47.1148ZM47.1146 20.7862H49.886C55.821 20.7862 59.8552 20.7916 62.9737 21.0464C66.0116 21.2946 67.5649 21.7444 68.6486 22.2966C71.2558 23.6251 73.3756 25.745 74.7041 28.3522C75.2563 29.4359 75.7064 30.9893 75.9544 34.0271C76.209 37.1456 76.2146 41.1798 76.2146 47.1148V49.8862C76.2146 55.8213 76.209 59.8554 75.9544 62.974C75.7064 66.0118 75.2563 67.5652 74.7041 68.6488C73.3756 71.256 71.2558 73.3758 68.6486 74.7044C67.5649 75.2566 66.0116 75.7066 62.9737 75.9546C59.8552 76.2093 55.821 76.2148 49.886 76.2148H47.1146C41.1796 76.2148 37.1454 76.2093 34.0268 75.9546C30.989 75.7066 29.4356 75.2566 28.352 74.7044C25.7447 73.3758 23.6249 71.256 22.2963 68.6488C21.7442 67.5652 21.2943 66.0118 21.0462 62.974C20.7914 59.8554 20.786 55.8213 20.786 49.8862V47.1148C20.786 41.1798 20.7914 37.1456 21.0462 34.0271C21.2943 30.9893 21.7442 29.4359 22.2963 28.3522C23.6249 25.745 25.7447 23.6251 28.352 22.2966C29.4356 21.7444 30.989 21.2946 34.0268 21.0464C37.1454 20.7916 41.1796 20.7862 47.1146 20.7862Z" fill="white"/>
<defs>
<radialGradient id="paint0_radial_1579_22439" cx="0" cy="0" r="1" gradientUnits="userSpaceOnUse" gradientTransform="translate(34.6429 72.75) rotate(-55.3758) scale(88.4072)">
<stop stop-color="#B13589"/>
<stop offset="0.79309" stop-color="#C62F94"/>
<stop offset="1" stop-color="#8A3AC8"/>
</radialGradient>
<radialGradient id="paint1_radial_1579_22439" cx="0" cy="0" r="1" gradientUnits="userSpaceOnUse" gradientTransform="translate(31.1786 100.464) rotate(-65.1363) scale(78.2728)">
<stop stop-color="#E0E8B7"/>
<stop offset="0.444662" stop-color="#FB8A2E"/>
<stop offset="0.71474" stop-color="#E2425C"/>
<stop offset="1" stop-color="#E2425C" stop-opacity="0"/>
</radialGradient>
<radialGradient id="paint2_radial_1579_22439" cx="0" cy="0" r="1" gradientUnits="userSpaceOnUse" gradientTransform="translate(-5.19643 3.46429) rotate(-8.1301) scale(134.729 28.8172)">
<stop offset="0.156701" stop-color="#406ADC"/>
<stop offset="0.467799" stop-color="#6A45BE"/>
<stop offset="1" stop-color="#6A45BE" stop-opacity="0"/>
</radialGradient>
</defs>
</svg>
