<svg width="65" height="63" viewBox="0 0 65 63" fill="none" xmlns="http://www.w3.org/2000/svg">
    <rect width="65" height="63" rx="5" fill="#D9D9D9"/>
    <path fill-rule="evenodd" clip-rule="evenodd" d="M30.6617 49.2153L10.5555 26.1245H23.7502L30.6617 49.2153ZM31.3941 15.7883L26.0864 24.5458H37.0941L31.3941 15.7883ZM38.684 24.4866L32.7792 15.75H43.6967L38.684 24.4866ZM24.6145 24.5702L29.7869 15.75H18.6993L24.6145 24.5702ZM45.4636 16.7885L40.2427 24.5458H52.8125L45.4636 16.7885ZM17.8835 16.7885L23.3718 24.5458H10.1562L17.8835 16.7885ZM25.6837 26.0548H37.3579L31.6927 48.8703L25.6837 26.0548ZM32.6889 49.2188L52.5556 26.1245H39.3609L32.6889 49.2188Z" fill="black"/>
</svg>
