<svg width="28" height="29" viewBox="0 0 28 29" fill="none" xmlns="http://www.w3.org/2000/svg">
<path d="M10.2058 3.73022C13.3426 4.77076 15.4004 7.32867 16.3793 11.404C17.8477 17.5169 19.6674 18.2964 25.5918 16.1221C23.4641 20.1925 19.1517 21.8244 16.3793 21.8244C13.607 21.8244 6.4269 17.8267 7.24961 10.2276C7.96374 8.01438 8.94914 5.84858 10.2058 3.73022Z" fill="#D8D8D8"/>
<mask id="mask0_1579_23679" style="mask-type:luminance" maskUnits="userSpaceOnUse" x="7" y="3" width="19" height="19">
<path d="M10.2058 3.73022C13.3426 4.77076 15.4004 7.32867 16.3793 11.404C17.8477 17.5169 19.6674 18.2964 25.5918 16.1221C23.4641 20.1925 19.1517 21.8244 16.3793 21.8244C13.607 21.8244 6.4269 17.8267 7.24961 10.2276C7.96374 8.01438 8.94914 5.84858 10.2058 3.73022Z" fill="white"/>
</mask>
<g mask="url(#mask0_1579_23679)">
<path d="M-2.80117 -2.8999H30.7988V31.9001H-2.80117V-2.8999Z" fill="#00C0CC"/>
</g>
<path d="M8.14921 18.5167L0.405909 26.5497C-0.135302 27.1102 -0.135302 28.0191 0.405909 28.5796C0.947119 29.1401 1.82459 29.1401 2.3658 28.5796L10.1075 20.5483C11.9861 22.0632 14.3479 22.9656 16.9132 22.9656C23.0363 22.9656 28 17.8246 28 11.4828C28 5.14102 23.0363 0 16.9132 0C10.7901 0 5.82632 5.14102 5.82632 11.4828C5.82632 14.133 6.69316 16.5735 8.14921 18.5167ZM16.9132 20.0949C12.3208 20.0949 8.59803 16.2391 8.59803 11.4828C8.59803 6.72647 12.3208 2.8707 16.9132 2.8707C21.5055 2.8707 25.2283 6.72647 25.2283 11.4828C25.2283 16.2391 21.5055 20.0949 16.9132 20.0949Z" fill="black"/>
<mask id="mask1_1579_23679" style="mask-type:luminance" maskUnits="userSpaceOnUse" x="0" y="0" width="28" height="29">
<path d="M8.14921 18.5167L0.405909 26.5497C-0.135302 27.1102 -0.135302 28.0191 0.405909 28.5796C0.947119 29.1401 1.82459 29.1401 2.3658 28.5796L10.1075 20.5483C11.9861 22.0632 14.3479 22.9656 16.9132 22.9656C23.0363 22.9656 28 17.8246 28 11.4828C28 5.14102 23.0363 0 16.9132 0C10.7901 0 5.82632 5.14102 5.82632 11.4828C5.82632 14.133 6.69316 16.5735 8.14921 18.5167ZM16.9132 20.0949C12.3208 20.0949 8.59803 16.2391 8.59803 11.4828C8.59803 6.72647 12.3208 2.8707 16.9132 2.8707C21.5055 2.8707 25.2283 6.72647 25.2283 11.4828C25.2283 16.2391 21.5055 20.0949 16.9132 20.0949Z" fill="white"/>
</mask>
<g mask="url(#mask1_1579_23679)">
<path d="M-2.79922 -2.8999H30.8008V31.9001H-2.79922V-2.8999Z" fill="url(#paint0_linear_1579_23679)"/>
</g>
<defs>
<linearGradient id="paint0_linear_1579_23679" x1="14.0008" y1="31.9001" x2="14.0008" y2="-2.8999" gradientUnits="userSpaceOnUse">
<stop stop-color="#006066"/>
<stop offset="0.59" stop-color="#00C0CC"/>
</linearGradient>
</defs>
</svg>
