<svg width="36" height="31" viewBox="0 0 36 31" fill="none" xmlns="http://www.w3.org/2000/svg">
<g filter="url(#filter0_d_1247_13375)">
<path fill-rule="evenodd" clip-rule="evenodd" d="M17.46 26.9976L4.26204 11.1294H12.9232L17.46 26.9976ZM17.9408 4.02634L14.4567 10.0446H21.6823L17.9408 4.02634ZM22.7259 10.0039L18.8499 4H26.0163L22.7259 10.0039ZM13.4906 10.0613L16.8857 4H9.60775L13.4906 10.0613ZM27.1761 4.71366L23.749 10.0446H32L27.1761 4.71366ZM9.07227 4.71366L12.6748 10.0446H4L9.07227 4.71366ZM14.1924 11.0815H21.8555L18.1367 26.7605L14.1924 11.0815ZM18.7907 27L31.8314 11.1294H23.1702L18.7907 27Z" fill="white"/>
</g>
<defs>
<filter id="filter0_d_1247_13375" x="0" y="0" width="36" height="31" filterUnits="userSpaceOnUse" color-interpolation-filters="sRGB">
<feFlood flood-opacity="0" result="BackgroundImageFix"/>
<feColorMatrix in="SourceAlpha" type="matrix" values="0 0 0 0 0 0 0 0 0 0 0 0 0 0 0 0 0 0 127 0" result="hardAlpha"/>
<feOffset/>
<feGaussianBlur stdDeviation="2"/>
<feComposite in2="hardAlpha" operator="out"/>
<feColorMatrix type="matrix" values="0 0 0 0 1 0 0 0 0 1 0 0 0 0 1 0 0 0 0.25 0"/>
<feBlend mode="normal" in2="BackgroundImageFix" result="effect1_dropShadow_1247_13375"/>
<feBlend mode="normal" in="SourceGraphic" in2="effect1_dropShadow_1247_13375" result="shape"/>
</filter>
</defs>
</svg>
