<svg width="27" height="26" viewBox="0 0 27 26" fill="none" xmlns="http://www.w3.org/2000/svg">
<g clip-path="url(#clip0_1247_25625)">
<path fill-rule="evenodd" clip-rule="evenodd" d="M26.8438 18.4723C25.8345 20.4131 24.3566 22.0941 22.5335 23.3748C20.7103 24.6556 18.5947 25.4991 16.3631 25.8351C14.1316 26.171 11.8487 25.9896 9.70502 25.3059C7.5613 24.6223 5.61884 23.4562 4.03966 21.9051C2.46049 20.3539 1.29036 18.4625 0.626892 16.3887C-0.0365791 14.315 -0.174165 12.1189 0.225609 9.98363C0.625384 7.8484 1.55093 5.83593 2.92505 4.11407C4.29917 2.3922 6.08204 1.01086 8.12494 0.0852629C8.77262 -0.204613 9.42911 0.277808 9.10968 1.03106C7.77002 3.28072 7.23091 5.88867 7.57413 8.45925C7.91735 11.0298 9.12419 13.4227 11.0115 15.2749C12.8989 17.1271 15.3637 18.3375 18.0321 18.7225C20.7005 19.1074 23.4268 18.6459 25.7974 17.408L25.9054 17.3509C26.0474 17.2786 26.2098 17.2519 26.3687 17.2748C26.5277 17.2978 26.6748 17.369 26.7884 17.4782C26.9021 17.5873 26.9763 17.7286 27.0001 17.8813C27.024 18.0339 26.9962 18.1899 26.921 18.3263L26.8438 18.4723ZM20.3692 15.7999H20.2679C20.247 14.9208 19.8732 14.0834 19.2245 13.4627C18.5759 12.8421 17.7026 12.4862 16.7871 12.4695V12.3595C17.2407 12.3607 17.6896 12.2727 18.1064 12.101C18.5231 11.9292 18.8989 11.6773 19.2104 11.3608C19.5389 11.0607 19.8004 10.6997 19.9791 10.2996C20.1579 9.89951 20.2501 9.46871 20.2503 9.03334H20.3626C20.3619 9.46884 20.4537 9.8999 20.6325 10.3001C20.8113 10.7003 21.0733 11.0613 21.4024 11.3608C21.7143 11.6769 22.0901 11.9286 22.5068 12.1003C22.9235 12.272 23.3723 12.3602 23.8257 12.3595V12.4674C22.9145 12.4911 22.0476 12.8502 21.4043 13.4704C20.7609 14.0907 20.3904 14.9247 20.3692 15.7999ZM22.5921 5.94203H22.5326C22.5337 5.71197 22.4855 5.48414 22.3912 5.27268C22.2968 5.06122 22.1582 4.87062 21.984 4.7127C21.8201 4.54591 21.6224 4.41312 21.403 4.32251C21.1836 4.2319 20.9473 4.18539 20.7085 4.18585V4.12872C20.9476 4.12863 21.1842 4.08146 21.4036 3.99012C21.6229 3.89877 21.8205 3.76519 21.984 3.59763C22.1573 3.4395 22.2953 3.24916 22.3896 3.03818C22.4839 2.82721 22.5326 2.60001 22.5326 2.37042H22.5921C22.5909 2.5994 22.6382 2.82623 22.7309 3.03717C22.8237 3.24811 22.9601 3.43878 23.1318 3.59763C23.2967 3.76435 23.4952 3.89704 23.7153 3.98763C23.9353 4.07821 24.1723 4.12478 24.4117 4.12449V4.18162C24.172 4.18187 23.9348 4.22911 23.7148 4.32042C23.4947 4.41174 23.2963 4.54522 23.1318 4.7127C22.9576 4.87062 22.819 5.06122 22.7247 5.27268C22.6303 5.48414 22.5822 5.71197 22.5832 5.94203H22.5921ZM13.4496 7.63474H13.3593C13.3608 7.2855 13.2877 6.93967 13.1445 6.61866C13.0012 6.29766 12.7909 6.00831 12.5265 5.76853C12.2755 5.51433 11.9726 5.3125 11.6368 5.17562C11.301 5.03875 10.9395 4.96976 10.5747 4.97296V4.88621C10.9383 4.88757 11.2983 4.8173 11.6325 4.67973C11.9667 4.54217 12.268 4.34023 12.5177 4.0864C12.7818 3.84639 12.9919 3.557 13.1351 3.23605C13.2783 2.91509 13.3516 2.56938 13.3505 2.22019H13.4408C13.4392 2.56924 13.5121 2.9149 13.6549 3.23586C13.7978 3.55683 14.0075 3.84629 14.2713 4.0864C14.5215 4.34029 14.8231 4.54225 15.1577 4.67981C15.4923 4.81737 15.8526 4.88761 16.2166 4.88621V4.97296C15.8526 4.97155 15.4923 5.0418 15.1577 5.17936C14.8231 5.31692 14.5215 5.51888 14.2713 5.77276C14.0075 6.01288 13.7978 6.30234 13.6549 6.6233C13.5121 6.94426 13.4392 7.28992 13.4408 7.63897L13.4496 7.63474Z" fill="white"/>
</g>
<defs>
<clipPath id="clip0_1247_25625">
<rect width="27" height="26" fill="white"/>
</clipPath>
</defs>
</svg>
