<svg width="58" height="61" viewBox="0 0 58 61" fill="none" xmlns="http://www.w3.org/2000/svg">
<path fill-rule="evenodd" clip-rule="evenodd" d="M46.5113 32.5941C44.1428 32.642 42.2352 31.3056 40.6408 29.7937C38.8449 28.0836 37.2527 26.1661 35.8876 24.123C33.0284 19.8602 31.2013 14.9387 30.5346 9.85129C30.2715 7.8544 29.7993 5.28178 27.2073 5.14679C25.1081 5.03934 23.4981 6.70241 22.8474 8.48281C22.0236 10.7576 21.8889 13.3665 21.8947 15.7272C21.8994 18.09 22.1513 20.4732 22.6947 22.7748C23.1719 24.7732 23.6739 27.797 25.7129 28.8607C27.5325 29.8063 29.789 28.6626 29.6986 26.5764C29.6065 24.3093 27.2506 23.5096 25.308 23.0204C23.0336 22.4519 20.684 22.1193 18.3085 22.3444C14.1684 22.7445 10.003 25.3983 9.09757 29.5222C8.12092 33.966 12.0346 37.478 16.2377 38.1902C18.7818 38.6189 21.522 38.1886 23.985 37.3635C25.9269 36.7151 28.0722 35.3393 28.0637 33.1525C28.0547 30.519 25.3016 29.3487 22.9487 29.1639C19.9909 28.9327 16.9659 29.5068 14.2066 30.665C13.024 31.1586 13.8143 32.8682 14.9974 32.3761C17.0143 31.5303 19.1689 31.041 21.3439 31.017C22.9178 31.0009 25.9265 31.1031 26.087 33.1211C26.2048 34.6142 24.0888 35.3874 22.894 35.7408C21.0678 36.2758 19.1353 36.5821 17.2552 36.401C13.8236 36.0704 10.1345 33.3954 11.0558 29.6809C11.8628 26.3968 15.3456 24.5232 18.5835 24.2164C20.4931 24.0304 22.4359 24.2996 24.2748 24.7335C25.0997 24.9293 26.0248 25.1171 26.7787 25.5107C27.2179 25.7434 28.3085 26.7432 27.5133 27.2534C25.9692 28.2495 24.9071 23.4819 24.7254 22.7492C24.2829 20.9559 24.001 19.1144 23.9033 17.2683C23.79 15.2779 23.9062 13.2709 24.2078 11.292C24.4322 9.82728 24.7677 7.45866 26.6314 7.07706C28.6595 6.65281 28.5389 9.99459 28.73 11.1879C29.0467 13.1611 29.5407 15.1061 30.1853 16.9961C31.5896 21.1168 33.7785 24.9878 36.5948 28.3436C38.9477 31.1477 42.1384 34.5686 46.2857 34.4764C47.5456 34.4527 47.7899 32.5564 46.5161 32.5871L46.5028 32.6008L46.5113 32.5941Z" fill="url(#paint0_linear_1283_48174)"/>
<path fill-rule="evenodd" clip-rule="evenodd" d="M11.7868 34.9036C9.66546 35.7067 8.74176 38.1273 9.41475 40.0782C10.1798 42.3033 12.5069 43.4768 14.8033 43.8102C17.2673 44.1679 19.966 43.8474 22.3915 43.2458C24.8169 42.6442 27.4525 41.8082 28.4884 39.4851C29.4401 37.3593 27.8474 34.5153 25.213 35.1781C23.9831 35.4871 24.2489 37.3591 25.496 37.0419C26.3059 36.8402 26.8866 37.4786 26.827 38.2357C26.7488 39.183 25.9014 39.9118 25.0889 40.3465C23.1122 41.3919 20.6517 41.8025 18.4494 41.9887C16.4093 42.1609 13.952 42.1637 12.3351 40.861C10.9951 39.7805 10.5233 37.4049 12.5682 36.6288C13.7685 36.1773 12.9672 34.4631 11.7773 34.9177L11.7809 34.9076L11.7868 34.9036Z" fill="url(#paint1_linear_1283_48174)"/>
<path fill-rule="evenodd" clip-rule="evenodd" d="M12.3568 41.6991C10.9586 42.9021 10.9719 44.8813 11.9921 46.2374C13.1433 47.7659 15.3288 48.1026 17.1819 48.2119C19.5235 48.352 21.9248 48.1905 24.243 47.6956C26.3098 47.2568 28.4516 46.3465 29.3458 44.3419C30.2405 42.3389 29.1011 40.0782 26.8767 39.8434C25.6151 39.7106 25.3859 41.603 26.6463 41.7327C27.269 41.7969 27.6875 42.3759 27.7002 42.968C27.7096 43.7078 27.1411 44.3946 26.5466 44.8311C24.9705 45.9823 22.5282 46.1522 20.6509 46.3016C18.775 46.4452 16.6998 46.519 14.9733 45.9433C14.3115 45.7211 13.6831 45.3623 13.3989 44.7293C13.1629 44.2143 13.1258 43.5477 13.608 43.1359C14.5662 42.3149 13.3327 40.8714 12.3678 41.7038L12.354 41.6915L12.3568 41.6991Z" fill="url(#paint2_linear_1283_48174)"/>
<path fill-rule="evenodd" clip-rule="evenodd" d="M15.5858 46.4573C14.3329 47.7627 14.2804 49.6601 15.4639 50.9706C16.6461 52.278 18.5987 52.6273 20.4062 52.5565C22.3895 52.4684 24.4015 52.1532 26.3106 51.5643C27.9466 51.0572 29.5737 50.0613 29.8928 48.3149C30.1986 46.6799 29.188 44.9868 27.5808 44.464C26.387 44.0806 25.6632 45.8676 26.8604 46.2549C27.7644 46.5484 28.2841 47.6705 27.7819 48.519C27.0305 49.7771 24.853 50.0586 23.5533 50.2996C21.9341 50.6015 20.0122 50.9509 18.4152 50.5237C17.7844 50.3543 17.1256 50.0227 16.7883 49.4638C16.5276 49.0348 16.4427 48.3146 16.8343 47.8969C17.2007 47.5148 17.3479 46.976 16.9773 46.5587C16.676 46.2078 15.9597 46.0759 15.5882 46.4686L15.5842 46.4631L15.5858 46.4573Z" fill="url(#paint3_linear_1283_48174)"/>
<path fill-rule="evenodd" clip-rule="evenodd" d="M46.2024 34.6174C48.3548 34.5042 50.8187 33.3977 51.2143 31.1252C51.5447 29.2471 50.2921 27.3659 48.1862 27.5C45.6034 27.6687 44.3173 30.2518 43.5569 32.2985C42.7465 34.4671 42.3826 36.7556 42.4386 39.0293C42.5171 42.4254 43.8798 49.6226 48.79 49.0375C50.9036 48.7818 52.3125 46.8139 51.4473 44.9004C50.4809 42.7667 47.9185 42.4705 45.7454 42.4798C39.7856 42.4825 33.9352 44.2693 28.9149 47.4994C27.8476 48.187 29.096 49.6162 30.1551 48.9316C33.273 46.9248 36.784 45.5327 40.4309 44.8591C42.2289 44.5232 44.0449 44.3479 45.8605 44.3771C47.0844 44.3949 49.8952 44.4703 49.7449 46.2492C49.6992 46.8475 49.0632 47.1443 48.5132 47.1801C47.6336 47.2405 46.9515 46.6803 46.4707 46.0532C45.5245 44.835 45.0298 43.1818 44.7282 41.6897C44.0856 38.5564 44.3938 35.2435 45.6802 32.2206C46.0332 31.3916 46.4446 30.4045 47.21 29.8252C47.8627 29.3231 48.8673 29.1495 49.2111 30.0096C49.9633 31.8871 47.3533 32.6786 45.9286 32.7537C44.6614 32.8167 44.9526 34.6826 46.2116 34.6175L46.2077 34.612L46.2024 34.6174Z" fill="url(#paint4_linear_1283_48174)"/>
<defs>
<linearGradient id="paint0_linear_1283_48174" x1="18.8823" y1="7.94851" x2="31.0429" y2="40.2809" gradientUnits="userSpaceOnUse">
<stop stop-color="#00C0CC"/>
</linearGradient>
<linearGradient id="paint1_linear_1283_48174" x1="16.8963" y1="32.9819" x2="21.021" y2="43.9485" gradientUnits="userSpaceOnUse">
<stop stop-color="#00C0CC"/>
</linearGradient>
<linearGradient id="paint2_linear_1283_48174" x1="18.8287" y1="39.2" x2="22.3503" y2="48.563" gradientUnits="userSpaceOnUse">
<stop stop-color="#00C0CC"/>
</linearGradient>
<linearGradient id="paint3_linear_1283_48174" x1="20.838" y1="44.4158" x2="23.8772" y2="52.4965" gradientUnits="userSpaceOnUse">
<stop stop-color="#00C0CC"/>
</linearGradient>
<linearGradient id="paint4_linear_1283_48174" x1="37.0336" y1="31.5184" x2="44.3005" y2="50.8395" gradientUnits="userSpaceOnUse">
<stop stop-color="#00C0CC"/>
</linearGradient>
</defs>
</svg>
