<svg width="16" height="18" viewBox="0 0 16 18" fill="none" xmlns="http://www.w3.org/2000/svg">
<path d="M14.7566 8.15547L11.7531 11.5333C10.0953 13.3995 7.40585 13.3995 5.74803 11.5333C5.48676 11.2405 5.28252 10.9104 5.10313 10.5698L6.49866 8.99989C6.56501 8.92465 6.64693 8.8815 6.72519 8.83078C6.82161 9.2017 6.99008 9.55277 7.24929 9.84435C8.07716 10.7763 9.42448 10.7751 10.2518 9.84435L13.2543 6.46653C14.0827 5.53459 14.0827 4.01946 13.2543 3.08811C12.427 2.15677 11.0802 2.15677 10.2518 3.08811L9.18391 4.29065C8.31769 3.91099 7.38406 3.80895 6.4753 3.9588L8.75052 1.3992C10.4094 -0.4664 13.0977 -0.4664 14.7566 1.3992C16.4145 3.26488 16.4145 6.28987 14.7566 8.15547ZM6.81643 13.7098L5.74803 14.9123C4.92016 15.8431 3.57284 15.8431 2.74497 14.9123C1.9171 13.9804 1.9171 12.4652 2.74497 11.5333L5.74803 8.15551C6.57643 7.22357 7.92269 7.22357 8.75055 8.15551C9.00924 8.44653 9.17771 8.7976 9.27518 9.16792C9.35398 9.1166 9.43486 9.07462 9.50122 8.99997L10.8967 7.43061C10.7184 7.08887 10.5131 6.75993 10.2519 6.4666C8.59403 4.601 5.90462 4.601 4.24627 6.4666L1.24374 9.84442C-0.414581 11.7106 -0.414581 14.735 1.24374 16.6012C2.90207 18.4663 5.59097 18.4663 7.24932 16.6012L9.52507 14.041C8.61579 14.1915 7.68215 14.0888 6.81643 13.7098Z" fill="url(#paint0_linear_1408_17203)"/>
<defs>
<linearGradient id="paint0_linear_1408_17203" x1="8" y1="0" x2="8" y2="18" gradientUnits="userSpaceOnUse">
<stop stop-color="#006066"/>
<stop offset="0.24" stop-color="#00C0CC"/>
</linearGradient>
</defs>
</svg>
