<svg width="17" height="18" viewBox="0 0 17 18" fill="none" xmlns="http://www.w3.org/2000/svg">
<path d="M8.88286 2.94434C6.24326 2.94434 4.0957 4.67963 4.0957 6.81259C4.0957 8.94554 6.24326 10.6808 8.88286 10.6808C11.5225 10.6808 13.67 8.94554 13.67 6.81259C13.67 4.67963 11.5225 2.94434 8.88286 2.94434ZM8.88286 9.6403C6.95325 9.6403 5.38331 8.37176 5.38331 6.81252C5.38331 5.25327 6.95325 3.9848 8.88286 3.9848C10.8125 3.9848 12.3824 5.25334 12.3824 6.81259C12.3824 8.37183 10.8126 9.6403 8.88286 9.6403Z" fill="url(#paint0_linear_1408_17200)"/>
<path d="M8.88323 0.25293C4.40716 0.25293 0.765625 3.19551 0.765625 6.81245C0.765625 8.89838 2.93053 12.0061 4.22097 13.6729C5.07002 14.7695 5.98242 15.8131 6.79001 16.6115C8.08629 17.8929 8.55025 18.0002 8.88332 18.0002C9.22136 18.0002 9.6594 17.8929 10.9516 16.6107C11.761 15.8076 12.6739 14.7645 13.5221 13.6737C14.8213 12.0029 17.0009 8.88957 17.0009 6.81238C17.0009 3.19551 13.3594 0.25293 8.88323 0.25293ZM12.6294 12.8636C10.9644 15.0474 9.43587 16.5231 8.87559 16.8998C8.31239 16.5346 6.80863 15.0941 5.12041 12.8705C3.17122 10.3029 2.05332 8.09486 2.05332 6.81245C2.05323 3.76922 5.11714 1.2934 8.88323 1.2934C12.6493 1.2934 15.7132 3.76922 15.7132 6.81245C15.7133 8.08751 14.5892 10.293 12.6294 12.8636Z" fill="url(#paint1_linear_1408_17200)"/>
<defs>
<linearGradient id="paint0_linear_1408_17200" x1="8.88286" y1="2.94434" x2="8.88286" y2="10.6808" gradientUnits="userSpaceOnUse">
<stop stop-color="#006066"/>
<stop offset="0.24" stop-color="#00C0CC"/>
</linearGradient>
<linearGradient id="paint1_linear_1408_17200" x1="8.88327" y1="0.25293" x2="8.88327" y2="18.0002" gradientUnits="userSpaceOnUse">
<stop stop-color="#006066"/>
<stop offset="0.24" stop-color="#00C0CC"/>
</linearGradient>
</defs>
</svg>
