<svg width="22" height="22" viewBox="0 0 22 22" fill="none" xmlns="http://www.w3.org/2000/svg">
<path d="M10.3125 20.625H1.37502V1.37497H10.3125C10.692 1.37497 11 1.06694 11 0.687484C11 0.308025 10.6919 0 10.3125 0H0.687479C0.308023 0 0 0.307968 0 0.687484V21.3125C0 21.692 0.308023 22 0.687479 22H10.3124C10.6919 22 10.9999 21.692 10.9999 21.3125C11 20.933 10.6919 20.625 10.3125 20.625Z" fill="white"/>
<path d="M21.8004 10.5201L17.0567 5.7083C16.7879 5.43673 16.3527 5.43742 16.0845 5.7083C15.8157 5.97918 15.8157 6.41916 16.0845 6.69004L19.6595 10.3166H5.50193C5.12242 10.3166 4.81445 10.6274 4.81445 11.011C4.81445 11.3946 5.12248 11.7054 5.50193 11.7054H19.6595L16.0845 15.332C15.8157 15.6036 15.8157 16.0428 16.0845 16.3137C16.3534 16.5853 16.7885 16.5853 17.0567 16.3137L21.7997 11.5019C22.0651 11.2345 22.0678 10.7869 21.8004 10.5201Z" fill="white"/>
</svg>
