<svg width="43" height="30" viewBox="0 0 43 30" fill="none" xmlns="http://www.w3.org/2000/svg">
<g clip-path="url(#clip0_1283_48533)">
<path d="M16.9454 24.0073C16.658 24.0073 16.2323 23.9402 15.8066 23.6043C14.657 22.7088 13.5927 21.873 10.4635 21.873C9.66521 21.873 8.74987 21.9327 7.73873 22.0446C3.2365 22.5446 3.01299 22.5446 2.93848 22.5446C2.90655 22.5446 2.87462 22.5446 2.84269 22.5372C2.42759 22.5297 0.607542 22.4029 0.0860069 20.5223C0.0753633 20.5073 0.0647201 20.4849 0.0647201 20.47C0.0647201 20.4476 0.0647201 20.4252 0.0647201 20.3954H0.0540758C-0.297162 18.1566 2.00185 17.8357 2.02314 17.8282V17.8432C2.03378 17.8432 2.04442 17.8357 2.05507 17.8357V17.8208C2.07635 17.8208 2.087 17.8208 2.10828 17.8208C2.67239 17.7237 3.93898 17.5969 6.74888 17.3357C12.0813 16.8282 12.9328 15.5596 13.8375 14.2237C14.1249 13.7984 14.5932 13.5596 15.136 13.5596C15.7746 13.5596 16.3707 13.9029 16.4665 14.3208L18.2652 22.9775C18.3184 23.2163 18.1907 23.4775 17.9459 23.679C17.6798 23.8879 17.3179 24.0073 16.9454 24.0073ZM10.4528 21.3506C13.9226 21.3506 15.2105 22.3581 16.3494 23.2461C16.5516 23.4029 16.7538 23.4849 16.9454 23.4849C17.1051 23.4849 17.2541 23.4327 17.3712 23.3357C17.4776 23.2461 17.5308 23.1417 17.5202 23.0521L15.7001 14.4029C15.6682 14.2611 15.4127 14.0969 15.1147 14.0969C14.8061 14.0969 14.6145 14.2909 14.508 14.4476C13.6033 15.7984 12.5816 17.3208 6.83403 17.8655C3.4813 18.1864 2.52338 18.2909 2.23601 18.3282C2.20408 18.3432 2.17215 18.3506 2.12957 18.3506C2.06571 18.3581 0.501105 18.5969 0.767194 20.3357C0.767194 20.3432 0.767194 20.3506 0.767194 20.3581C0.767194 20.3655 0.767195 20.373 0.777839 20.3805C1.17165 21.8954 2.44888 22.0148 2.83205 22.0148C2.87462 22.0073 2.91719 22.0148 2.95977 22.0223C3.17264 22.0073 4.05606 21.9252 7.58972 21.5297C8.65408 21.4103 9.612 21.3506 10.4528 21.3506Z" fill="white"/>
<path d="M9.27116 21.9251C9.09022 21.9251 8.93056 21.8281 8.89863 21.7012L8.00457 17.4475C7.97264 17.3057 8.11101 17.1714 8.32388 17.149C8.52611 17.134 8.71769 17.2311 8.74962 17.3729L9.64368 21.6266C9.67561 21.7684 9.53725 21.9027 9.32437 21.9251C9.30309 21.9251 9.29244 21.9251 9.27116 21.9251Z" fill="white"/>
<path d="M2.51186 19.6561C2.33092 19.6561 2.17127 19.5591 2.13934 19.4322C2.10741 19.2904 2.24577 19.1561 2.45865 19.1337L5.19404 18.8501C5.39627 18.8352 5.58785 18.9322 5.61978 19.074C5.65171 19.2158 5.51335 19.3501 5.30048 19.3725L2.56508 19.6561C2.54379 19.6561 2.53315 19.6561 2.51186 19.6561Z" fill="white"/>
<path d="M2.77944 20.9325C2.5985 20.9325 2.43885 20.8355 2.40692 20.7086C2.37499 20.5668 2.51335 20.4325 2.72622 20.4101L5.46162 20.1265C5.66385 20.1116 5.85543 20.2086 5.88736 20.3504C5.91929 20.4922 5.78093 20.6265 5.56806 20.6489L2.83266 20.9325C2.81137 20.9325 2.80073 20.9325 2.77944 20.9325Z" fill="white"/>
<path d="M8.96291 25.9846C8.24979 25.9846 7.84534 25.6711 7.80276 25.6413L3.88593 22.3428C3.80078 22.2681 3.77949 22.1711 3.82207 22.0816C3.87529 21.992 3.98172 21.9323 4.12009 21.9174L7.95177 21.5443C8.07949 21.5293 8.21786 21.5666 8.30301 21.6413L11.6664 24.6338C11.7302 24.6935 11.7622 24.7681 11.7409 24.8428C11.7089 24.9696 11.7089 24.9696 10.1656 25.7084C9.75053 25.8875 9.35672 25.9846 8.96291 25.9846ZM8.36687 25.2905C8.36687 25.2905 8.57974 25.4547 8.95227 25.4547C9.18642 25.4547 9.45251 25.3875 9.7186 25.2607C10.2721 24.992 10.6127 24.8278 10.8149 24.7308L7.82405 22.0741L4.87578 22.3652L8.36687 25.2905Z" fill="white"/>
<path d="M22.5552 21.9848C22.4594 21.9848 22.3636 21.9624 22.2997 21.9102C22.1507 21.8132 22.1401 21.6415 22.2891 21.537C23.5983 20.5744 24.1837 19.2535 23.8963 17.9027C23.6196 16.5669 22.47 15.3803 20.8203 14.7311C20.6394 14.6564 20.5755 14.4997 20.6713 14.3729C20.7777 14.246 21.0012 14.2012 21.1822 14.2684C23.0342 14.9923 24.322 16.3206 24.6307 17.8206C24.95 19.3281 24.2901 20.8132 22.8213 21.8953C22.7468 21.9624 22.651 21.9848 22.5552 21.9848Z" fill="white"/>
<path d="M19.9684 20.7613C19.8832 20.7613 19.7874 20.7389 19.7236 20.6942C19.5639 20.5971 19.5533 20.433 19.6916 20.321C20.5325 19.6419 20.9156 18.8509 20.756 18.1046C20.5963 17.3509 19.9045 16.6718 18.8082 16.1867C18.6273 16.1121 18.574 15.9479 18.6911 15.821C18.7976 15.6942 19.0317 15.6568 19.2127 15.7389C20.5005 16.2986 21.3094 17.1121 21.501 18.0225C21.6926 18.9255 21.2456 19.8658 20.2557 20.6643C20.1706 20.7315 20.0641 20.7613 19.9684 20.7613Z" fill="white"/>
<path d="M39.8186 13.7835C39.5738 13.8581 39.2013 13.8432 39.2013 13.8432C39.6802 13.6939 39.7973 13.4626 39.7973 13.4626C39.2439 13.5969 39.0416 13.5372 39.0416 13.5372C38.882 13.373 38.6265 13.2462 38.3285 13.2014C37.7112 13.1193 37.1258 13.3954 37.0087 13.8208C36.9981 13.8656 36.9874 13.9104 36.9874 13.9551C35.3057 13.6119 35.0503 12.873 35.0503 12.873C34.3478 13.4104 35.0503 13.9178 35.0503 13.9178C34.7523 13.888 34.6352 13.7536 34.6352 13.7536C34.401 14.3656 35.2525 14.6342 35.2525 14.6342C34.9119 14.6492 34.7842 14.5671 34.7842 14.5671C34.8906 15.1268 35.6144 15.2387 35.6144 15.2387C34.7948 15.5522 33.954 15.3357 33.954 15.3357L33.9434 15.3283C34.3691 15.6119 34.9013 15.8133 35.508 15.9029C37.2109 16.1417 38.85 15.3656 39.1906 14.1716C39.2013 14.1492 39.2013 14.1268 39.2119 14.1119C39.2226 14.0969 39.2226 14.082 39.2119 14.0671C39.627 13.9775 39.8186 13.7835 39.8186 13.7835Z" fill="white"/>
<path d="M40.4563 18.7239C40.3711 18.7313 40.286 18.7313 40.2115 18.7164L31.4731 17.5075C31.2602 17.4776 31.0793 17.3955 30.9622 17.2612C30.8451 17.1343 30.8026 16.9851 30.8345 16.8358L32.5587 10.7089C32.6439 10.4104 33.0696 10.2015 33.5167 10.2612L42.255 11.4701C42.4679 11.5 42.6488 11.5895 42.7659 11.7164C42.883 11.8433 42.9256 11.9925 42.8936 12.1418L41.1694 18.2687C41.0842 18.5149 40.7969 18.694 40.4563 18.7239ZM33.3464 10.7836L33.2719 10.8134L31.5476 16.9403L31.5902 16.9925L40.3498 18.2015C40.3711 18.2015 40.3924 18.194 40.403 18.1642L42.1273 12.0373C42.1379 12.0224 42.106 11.9925 42.0847 11.9851L33.3464 10.7836Z" fill="white"/>
<path d="M7.09917 11.3958C6.67342 11.3958 6.31154 11.1644 6.29026 10.8584L5.79001 4.61964C5.76872 4.3062 6.10932 4.03755 6.5457 4.02262L15.4437 3.67188C15.912 3.67188 16.2739 3.90322 16.2952 4.20919L16.7955 10.448C16.8167 10.7614 16.4761 11.0301 16.0398 11.045L7.09917 11.3958ZM15.4969 4.20173L6.59892 4.55247C6.56699 4.55247 6.5457 4.57486 6.5457 4.59725L7.04595 10.8361C7.04595 10.8584 7.07788 10.8734 7.09917 10.8734L15.9972 10.5226C16.0291 10.5226 16.0504 10.5002 16.0504 10.4778L15.5502 4.23904C15.5502 4.21665 15.5289 4.20173 15.4969 4.20173Z" fill="white"/>
<path d="M14.3686 5.90364L14.3153 5.20215C14.3153 5.20215 13.9322 5.21707 13.4319 5.23946C12.9317 5.26185 12.0163 5.59767 12.1015 6.65737C12.1015 6.70961 12.1121 6.76185 12.1121 6.81409L11.25 6.8514L11.3139 7.59021L12.176 7.5529C12.2611 8.56782 12.3463 9.70961 12.3463 9.70961L13.5703 9.66483C13.5703 9.66483 13.4745 8.44095 13.4 7.50812L14.1983 7.47827L14.1344 6.73946L13.3361 6.76931C13.3255 6.64245 13.3361 6.72454 13.3255 6.6723C13.2723 6.12006 13.6235 5.93349 14.3686 5.90364Z" fill="white"/>
<path d="M32.5156 29.9999C32.4092 29.9999 32.2921 29.985 32.1963 29.9552L24.0114 27.4775C23.6069 27.3507 23.4153 27.0223 23.5856 26.7313L27.1193 20.9925C27.2896 20.7164 27.7792 20.5746 28.1837 20.694L36.3686 23.1716C36.5708 23.2313 36.7198 23.3432 36.8049 23.485C36.8795 23.6268 36.8795 23.7835 36.7943 23.9178L33.2606 29.6567C33.1329 29.8656 32.8455 29.9999 32.5156 29.9999ZM27.8963 21.179L27.8218 21.2014L24.2881 26.9328C24.2775 26.9552 24.2881 26.9775 24.32 26.985L32.5262 29.4701C32.5475 29.4701 32.5688 29.4626 32.5795 29.4477L36.1131 23.7089C36.1238 23.694 36.1131 23.6641 36.0812 23.6567L27.8963 21.179Z" fill="white"/>
<path d="M32.5164 24.5074L29.2808 23.5223C28.7912 23.373 28.227 23.5298 28.0142 23.873L27.2798 25.0596C27.0669 25.4029 27.2904 25.7984 27.78 25.9477L31.0157 26.9327C31.5053 27.082 32.0694 26.9253 32.2822 26.582L33.0166 25.3954C33.2295 25.0521 33.006 24.6566 32.5164 24.5074ZM29.2169 25.5895L29.8874 24.4999L31.0263 25.485L29.2169 25.5895Z" fill="white"/>
<path d="M29.5136 9.34271C29.4072 9.34271 29.2901 9.32778 29.1943 9.29793L21.0094 6.82032C20.605 6.69345 20.4134 6.36509 20.5837 6.07405L24.1173 0.335244C24.2876 0.0591241 24.7773 -0.0826669 25.1817 0.0367361L33.3666 2.51435C33.5688 2.57405 33.7178 2.68599 33.803 2.82778C33.8775 2.96957 33.8775 3.12629 33.7924 3.26062L30.2587 8.99942C30.131 9.20838 29.8436 9.34271 29.5136 9.34271ZM24.8943 0.521811L24.8198 0.544199L21.2862 6.27554C21.2755 6.29793 21.2862 6.32032 21.3181 6.32778L29.5243 8.81286C29.5456 8.81286 29.5669 8.80539 29.5775 8.79047L33.1112 3.05166C33.1218 3.03674 33.1112 3.00689 33.0792 2.99942L24.8943 0.521811Z" fill="white"/>
<path d="M28.1979 3.06199C28.8839 3.35384 29.1807 3.99073 28.8509 4.46537C28.7736 4.57654 28.7072 4.68095 28.6506 4.77905C28.6157 4.83958 28.6557 4.91248 28.7362 4.94666C28.748 4.9517 28.7607 4.95589 28.7742 4.95909L29.0134 5.01572C29.0235 5.01812 29.0332 5.02132 29.0423 5.02518C29.0969 5.04838 29.1292 5.09547 29.1149 5.13878C29.0947 5.19998 29.013 5.23578 28.9246 5.22191L28.535 5.17403C28.4367 5.16194 28.3493 5.20495 28.3313 5.27395C28.1277 6.05256 28.9072 6.29398 28.8466 6.38092C28.7704 6.4901 28.2086 6.27123 28.1349 6.28441C28.0612 6.29758 27.9926 6.48448 27.8589 6.46945C27.8337 6.46661 27.8024 6.45606 27.7661 6.44062C27.6823 6.405 27.5716 6.34334 27.4467 6.29024C27.3384 6.24418 27.2193 6.20456 27.0978 6.19396C26.7753 6.16584 26.4114 6.2147 26.096 6.08061C25.7806 5.94653 25.6357 5.68134 25.4304 5.48509C25.353 5.41109 25.2458 5.35452 25.1375 5.30846C25.0126 5.25537 24.8862 5.21626 24.8024 5.18064C24.7661 5.1652 24.7378 5.1504 24.7211 5.13541C24.6323 5.05586 24.7962 4.90946 24.7703 4.85395C24.7445 4.79845 24.2042 4.54874 24.2803 4.43957C24.3409 4.35262 25.0236 4.73284 25.7507 4.1768C25.8151 4.12754 25.814 4.04691 25.7476 3.98895L25.4847 3.75942C25.4218 3.70896 25.416 3.63597 25.4708 3.58951C25.5097 3.55661 25.5779 3.55226 25.6325 3.57548C25.6415 3.57933 25.6502 3.58395 25.6583 3.58932L25.849 3.71544C25.8598 3.72255 25.8712 3.72861 25.883 3.73365C25.9634 3.76783 26.0636 3.75455 26.1098 3.6988C26.1846 3.60843 26.2609 3.50825 26.3385 3.39725C26.6701 2.92332 27.5117 2.77046 28.1979 3.06199ZM28.3292 2.87385L28.3291 2.8738L28.329 2.87376C28.1242 2.78674 27.9049 2.7303 27.6773 2.70603C27.4588 2.68273 27.2424 2.68998 27.0343 2.7276C26.8264 2.76516 26.6375 2.83106 26.4728 2.92345C26.3015 3.01953 26.1645 3.13982 26.0658 3.281C26.0173 3.35031 25.9683 3.41674 25.9193 3.4795L25.8484 3.43257C25.8223 3.41535 25.7938 3.40012 25.7637 3.3873C25.6767 3.35029 25.5767 3.33408 25.4821 3.34164C25.3835 3.34954 25.295 3.38285 25.2329 3.43546C25.085 3.56069 25.099 3.75654 25.2644 3.89362L25.4574 4.06207C25.0648 4.33028 24.7276 4.27029 24.5005 4.22991C24.4403 4.2192 24.3882 4.20994 24.335 4.20638C24.123 4.19219 24.0353 4.2836 24.0074 4.32355C23.9541 4.40008 23.9579 4.49225 24.0182 4.58308C24.0483 4.62831 24.0927 4.67398 24.154 4.72269C24.2377 4.78909 24.3433 4.85358 24.4293 4.90583C24.417 4.93189 24.4056 4.96065 24.3987 4.99157C24.3699 5.11995 24.4348 5.21052 24.4943 5.2639C24.5508 5.31455 24.6224 5.34803 24.6712 5.36881C24.719 5.38913 24.7714 5.40804 24.8268 5.42805C24.8862 5.44952 24.9477 5.47173 25.0063 5.49663C25.097 5.53521 25.1594 5.5714 25.1969 5.60725C25.2484 5.65649 25.2987 5.71478 25.3521 5.77648C25.5006 5.94827 25.6689 6.14297 25.9648 6.26878C26.2607 6.39459 26.5615 6.3993 26.8268 6.40347C26.9222 6.40496 27.0122 6.40638 27.0931 6.41343C27.152 6.41857 27.2248 6.43983 27.3155 6.47841C27.3741 6.50331 27.4313 6.53158 27.4867 6.55891C27.5383 6.58439 27.587 6.60845 27.6348 6.62878C27.6837 6.64956 27.7585 6.6783 27.8437 6.68787C27.9334 6.69796 28.0661 6.69139 28.1885 6.60281C28.218 6.58149 28.2428 6.55842 28.2642 6.53623C28.367 6.56426 28.4937 6.59856 28.6105 6.61737C28.6962 6.63117 28.7695 6.63553 28.8344 6.63068C28.9648 6.62096 29.0661 6.57345 29.1194 6.49692C29.1473 6.45697 29.198 6.34985 29.0677 6.21848C29.035 6.18551 28.9968 6.1564 28.9525 6.12269C28.7859 5.99568 28.5384 5.80706 28.6138 5.40403L28.8997 5.43918C29.1369 5.47326 29.3553 5.37618 29.4097 5.21126C29.4326 5.14197 29.4204 5.06582 29.3754 4.99685C29.3322 4.93074 29.2605 4.87397 29.1735 4.83698C29.1434 4.82416 29.1115 4.81375 29.0789 4.806L28.9899 4.78494C29.0308 4.71877 29.0756 4.65057 29.1239 4.58114C29.2222 4.43964 29.2771 4.28429 29.287 4.11936C29.2965 3.96104 29.2642 3.80115 29.1911 3.64411C29.118 3.48709 29.0079 3.34115 28.8638 3.21038C28.7138 3.07417 28.5339 2.96094 28.3292 2.87385Z" fill="white"/>
</g>
<defs>
<clipPath id="clip0_1283_48533">
<rect width="43" height="30" fill="white"/>
</clipPath>
</defs>
</svg>
