<svg width="19" height="19" viewBox="0 0 19 19" fill="none" xmlns="http://www.w3.org/2000/svg">
<path d="M1 10.3302L2.46273 9.16076C3.22372 8.55239 4.37065 8.58727 5.08566 9.24057L8.66794 12.5138C9.24182 13.0382 10.1452 13.1097 10.8093 12.6832L11.0583 12.5234C12.0138 11.9097 13.3066 11.9809 14.1748 12.6947L16.8667 14.9084" stroke="#2F2F2F" stroke-linecap="round"/>
<path d="M13.4678 1V8.72727M13.4678 1L15.7345 3.57576M13.4678 1L11.2012 3.57576" stroke="#2F2F2F" stroke-linecap="round" stroke-linejoin="round"/>
<path d="M18 9.5C18 13.5069 18 15.5104 16.7552 16.7552C15.5104 18 13.5069 18 9.5 18C5.49306 18 3.48959 18 2.2448 16.7552C1 15.5104 1 13.5069 1 9.5C1 8.54095 1 7.6966 1.01707 6.95M9.5 1C5.49306 1 3.48959 1 2.2448 2.2448C1.8837 2.6059 1.62735 3.03083 1.44537 3.55" stroke="#2F2F2F" stroke-linecap="round"/>
</svg>
