<svg width="16" height="15" viewBox="0 0 16 15" fill="none" xmlns="http://www.w3.org/2000/svg">
<path d="M8.0013 10.8484C9.28997 10.8484 10.3346 9.79015 10.3346 8.48474C10.3346 7.17934 9.28997 6.12109 8.0013 6.12109C6.71264 6.12109 5.66797 7.17934 5.66797 8.48474C5.66797 9.79015 6.71264 10.8484 8.0013 10.8484Z" stroke="#1A1A1A"/>
<path d="M1 8.48475C1 6.27166 0.999883 5.16526 1.5242 4.37036C1.75119 4.02625 2.04285 3.73079 2.38255 3.50085C3.16725 2.96973 4.25961 2.96973 6.44433 2.96973H9.55548C11.7402 2.96973 12.8325 2.96973 13.6172 3.50085C13.9569 3.73079 14.2486 4.02625 14.4755 4.37036C14.9999 5.16526 15 6.27166 15 8.48475C15 10.6978 15 11.8044 14.4757 12.5993C14.2487 12.9434 13.957 13.2388 13.6173 13.4688C12.8326 13.9999 11.7403 13.9999 9.55556 13.9999H6.44444C4.25972 13.9999 3.16736 13.9999 2.38267 13.4688C2.04297 13.2388 1.75129 12.9434 1.52432 12.5993C1.344 12.3259 1.2257 12.0157 1.14808 11.6363" stroke="#1A1A1A" stroke-linecap="round"/>
<path d="M12.6662 6.12109H12.2773" stroke="#1A1A1A" stroke-linecap="round"/>
<path d="M9.94358 1H6.05469" stroke="#1A1A1A" stroke-linecap="round"/>
</svg>
