<svg width="19" height="19" viewBox="0 0 19 19" fill="none" xmlns="http://www.w3.org/2000/svg">
<path d="M9.5 1H4.4C3.20989 1 2.61483 1 2.16027 1.20588C1.76042 1.38697 1.43534 1.67593 1.23161 2.03135C1 2.4354 1 2.96435 1 4.02222V14.9778C1 16.0356 1 16.5646 1.23161 16.9687C1.43534 17.3241 1.76042 17.6131 2.16027 17.7941C2.61483 18 3.20989 18 4.4 18H8.4375M9.5 1L15.875 6.66667M9.5 1V5.15556C9.5 5.68449 9.5 5.94896 9.61581 6.15099C9.71771 6.3287 9.88016 6.47318 10.0801 6.56373C10.3074 6.66667 10.6049 6.66667 11.2 6.66667H15.875M15.875 6.66667V9.5M13.75 16.1111H18M15.875 14.2222V18" stroke="black" stroke-linecap="round" stroke-linejoin="round"/>
</svg>
