<svg width="41" height="34" viewBox="0 0 41 34" fill="none" xmlns="http://www.w3.org/2000/svg">
<path d="M35.9549 29.2608L30.6804 23.2867C33.1507 19.5356 33.7516 14.9817 32.3162 10.721C32.1826 10.3197 31.7153 10.1036 31.2813 10.2271C30.8473 10.3506 30.5969 10.7828 30.7472 11.1842C32.0992 15.1669 31.4649 19.4275 28.9945 22.9008L28.9445 22.9626C28.7776 23.2404 28.7942 23.58 29.0112 23.827L34.6697 30.2179C34.6697 30.2179 34.7531 30.3106 34.7698 30.3106C35.2372 30.8045 35.2372 31.4992 34.7865 32.0086C34.7698 32.0241 34.7698 32.0395 34.7531 32.0395L34.6363 32.1476C34.1022 32.5644 33.3177 32.5644 32.7668 32.1167C32.7335 32.0858 32.7168 32.0704 32.6834 32.0395L25.7731 26.8218C25.4893 26.6057 25.0887 26.5903 24.7883 26.7755L24.7215 26.8218C18.8961 30.3414 11.1012 29.6313 6.12709 25.1237C6.09371 25.0774 6.07701 25.0311 6.04363 25.0002C0.234962 19.659 0.234961 10.9372 6.02694 5.58053C11.8189 0.223904 21.2497 0.223904 27.0416 5.58053C27.075 5.61141 27.1251 5.64228 27.1752 5.65772C27.1919 5.67315 27.2252 5.70403 27.2419 5.71947C27.5257 6.04364 28.0598 6.08995 28.4103 5.81209C28.7609 5.54966 28.8109 5.05568 28.5105 4.7315C28.4437 4.65431 28.3436 4.56169 28.2434 4.46907C21.8172 -1.45873 11.3516 -1.50504 4.87522 4.42276C4.85853 4.4382 4.82515 4.45363 4.80845 4.48451C2.1378 6.95442 0.468644 10.2425 0.0847374 13.7158C-0.0821783 15.2286 0.00127958 16.7415 0.301728 18.208C0.936008 21.2182 2.50502 23.9505 4.85853 26.1271C10.2499 31.0978 18.7125 32.0086 25.1889 28.3655L31.5984 33.2127C31.6318 33.2436 31.6819 33.2899 31.7153 33.3208C32.2995 33.7839 33.0005 34 33.7016 34C34.4193 34 35.137 33.7684 35.7213 33.3053L36.005 33.0583C36.0551 33.012 36.0885 32.9657 36.1218 32.904C37.0065 31.8388 36.9731 30.3569 36.0217 29.3226C36.005 29.3072 35.9716 29.2763 35.9549 29.2608Z" fill="white"/>
<path d="M40.8283 0.470661C40.6614 0.254543 40.3776 0.131047 40.0772 0.161921L34.7192 0.686778C34.4187 0.717652 34.1683 0.887459 34.0515 1.13445C33.9347 1.38144 33.968 1.67474 34.135 1.89086L35.3201 3.38825L16.492 15.9385C16.2917 16.062 16.1748 16.2781 16.1581 16.4942L15.6574 22.4375L7.51189 15.074C7.34498 14.9197 7.11129 14.8425 6.87761 14.8579L4.49072 15.0123C4.04004 15.0432 3.68952 15.3982 3.7229 15.8304C3.75629 16.2472 4.15688 16.5714 4.60756 16.5405L6.62724 16.4171L15.7742 24.6758C15.9244 24.8148 16.1414 24.892 16.3584 24.892C16.4586 24.892 16.5587 24.8765 16.6422 24.8456C16.9426 24.7376 17.1429 24.4906 17.1763 24.1973L17.7939 16.9882L36.3382 4.65408L37.3564 5.95079C37.5067 6.15147 37.757 6.25953 38.0241 6.25953C38.0575 6.25953 38.0909 6.25953 38.1076 6.25953C38.408 6.22865 38.6584 6.05884 38.7752 5.81185L40.9451 1.25795C41.0453 0.980081 41.0119 0.702215 40.8283 0.470661ZM37.8238 3.95942L36.3382 2.07611L38.842 1.82911L37.8238 3.95942Z" fill="white"/>
</svg>
