<svg width="32" height="33" viewBox="0 0 32 33" fill="none" xmlns="http://www.w3.org/2000/svg">
<path d="M14.9922 10.1699V14.7972" stroke="white" stroke-width="2" stroke-miterlimit="10" stroke-linecap="round"/>
<path d="M15.0231 4C9.23611 4 4.54985 8.14092 4.54985 13.2545V16.1726C4.54985 17.1176 4.10953 18.5349 3.55913 19.3409L1.56197 22.2868C0.335367 24.1071 1.18455 26.1359 3.44905 26.8029C10.9659 29.0123 19.0961 29.0123 26.613 26.8029C28.7359 26.1776 29.648 23.982 28.5001 22.2868L26.5029 19.3409C25.9525 18.5349 25.5122 17.1037 25.5122 16.1726V13.2545C25.4964 8.16871 20.7787 4 15.0231 4Z" stroke="white" stroke-width="2" stroke-miterlimit="10" stroke-linecap="round"/>
<path d="M20.2291 27.373C20.2291 29.916 17.8703 32.0003 14.9925 32.0003C13.5614 32.0003 12.2405 31.4723 11.297 30.6385C10.3534 29.8048 9.75586 28.6376 9.75586 27.373" stroke="white" stroke-width="2" stroke-miterlimit="10"/>
<circle cx="25" cy="7" r="7" fill="#E21D1D"/>
<path d="M24.625 11.1172C24.1992 11.1172 23.8086 11.0098 23.4531 10.7949C23.0938 10.5801 22.8047 10.2949 22.5859 9.93945C22.3711 9.58398 22.2637 9.19727 22.2637 8.7793V8.42188C22.2637 8.38672 22.2832 8.36914 22.3223 8.36914H23.6816C23.7129 8.36914 23.7285 8.38672 23.7285 8.42188V8.69727C23.7285 8.9668 23.8164 9.19531 23.9922 9.38281C24.168 9.56641 24.3789 9.6582 24.625 9.6582C24.875 9.6582 25.0859 9.56445 25.2578 9.37695C25.4297 9.18555 25.5156 8.95898 25.5156 8.69727V7.88281C25.5156 7.63281 25.4258 7.42383 25.2461 7.25586C25.0664 7.08789 24.8438 7.00391 24.5781 7.00391C24.2344 7.00391 23.9512 7.14062 23.7285 7.41406L23.7051 7.44922L22.4219 7.34961C22.3789 7.34961 22.3574 7.33008 22.3574 7.29102L22.5039 4.00391L22.5742 2.69727C22.5742 2.66602 22.5898 2.65039 22.6211 2.65039H26.6582C26.6895 2.65039 26.7051 2.66602 26.7051 2.69727V4.00391C26.7051 4.04297 26.6895 4.0625 26.6582 4.0625H23.8457L23.7871 5.7207C23.8848 5.67383 24.0117 5.63477 24.168 5.60352C24.3242 5.56836 24.4648 5.55078 24.5898 5.55078C25.0234 5.55078 25.4219 5.65625 25.7852 5.86719C26.1484 6.08203 26.4375 6.36523 26.6523 6.7168C26.8711 7.06836 26.9805 7.45703 26.9805 7.88281V8.69727C26.9805 9.13086 26.875 9.5332 26.6641 9.9043C26.4492 10.2715 26.1641 10.5664 25.8086 10.7891C25.4531 11.0078 25.0586 11.1172 24.625 11.1172Z" fill="white"/>
</svg>
