<svg width="30" height="30" viewBox="0 0 30 30" fill="none" xmlns="http://www.w3.org/2000/svg">
<path d="M14.9922 7.16992V11.7972" stroke="white" stroke-width="2" stroke-miterlimit="10" stroke-linecap="round"/>
<path d="M15.0231 1C9.23611 1 4.54985 5.14092 4.54985 10.2545V13.1726C4.54985 14.1176 4.10953 15.5349 3.55913 16.3409L1.56197 19.2868C0.335367 21.1071 1.18455 23.1359 3.44905 23.8029C10.9659 26.0123 19.0961 26.0123 26.613 23.8029C28.7359 23.1776 29.648 20.982 28.5001 19.2868L26.5029 16.3409C25.9525 15.5349 25.5122 14.1037 25.5122 13.1726V10.2545C25.4964 5.16871 20.7787 1 15.0231 1Z" stroke="white" stroke-width="2" stroke-miterlimit="10" stroke-linecap="round"/>
<path d="M20.2291 24.373C20.2291 26.916 17.8703 29.0003 14.9925 29.0003C13.5614 29.0003 12.2405 28.4723 11.297 27.6385C10.3534 26.8048 9.75586 25.6376 9.75586 24.373" stroke="white" stroke-width="2" stroke-miterlimit="10"/>
</svg>
