<svg width="41" height="34" viewBox="0 0 41 34" fill="none" xmlns="http://www.w3.org/2000/svg">
<rect x="22" y="25.1006" width="4" height="13" rx="2" transform="rotate(-50.8166 22 25.1006)" fill="black"/>
<rect x="24" y="25.1006" width="4" height="13" rx="2" transform="rotate(-50.8166 24 25.1006)" fill="black"/>
<ellipse cx="16.5" cy="15.5" rx="15.5" ry="14" fill="black"/>
<path d="M35.9549 29.2608L30.6804 23.2867C33.1507 19.5356 33.7516 14.9817 32.3162 10.721C32.1826 10.3197 31.7153 10.1036 31.2813 10.2271C30.8473 10.3506 30.5969 10.7828 30.7472 11.1842C32.0992 15.1669 31.4649 19.4275 28.9945 22.9008L28.9445 22.9626C28.7776 23.2404 28.7942 23.58 29.0112 23.827L34.6697 30.2179C34.6697 30.2179 34.7531 30.3106 34.7698 30.3106C35.2372 30.8045 35.2372 31.4992 34.7865 32.0086C34.7698 32.0241 34.7698 32.0395 34.7531 32.0395L34.6363 32.1476C34.1022 32.5644 33.3177 32.5644 32.7668 32.1167C32.7335 32.0858 32.7168 32.0704 32.6834 32.0395L25.7731 26.8218C25.4893 26.6057 25.0887 26.5903 24.7883 26.7755L24.7215 26.8218C18.8961 30.3414 11.1012 29.6313 6.12709 25.1237C6.0937 25.0774 6.07701 25.0311 6.04363 25.0002C0.234962 19.659 0.234962 10.9372 6.02694 5.58053C11.8189 0.223904 21.2497 0.223904 27.0416 5.58053C27.075 5.61141 27.1251 5.64228 27.1752 5.65772C27.1919 5.67316 27.2252 5.70403 27.2419 5.71947C27.5257 6.04364 28.0598 6.08995 28.4103 5.81209C28.7609 5.54966 28.8109 5.05568 28.5105 4.7315C28.4437 4.65432 28.3436 4.56169 28.2434 4.46907C21.8172 -1.45873 11.3516 -1.50504 4.87522 4.42276C4.85853 4.4382 4.82515 4.45364 4.80845 4.48451C2.1378 6.95442 0.468644 10.2425 0.0847374 13.7158C-0.0821783 15.2286 0.00127959 16.7415 0.301728 18.208C0.936008 21.2182 2.50502 23.9505 4.85853 26.1271C10.2499 31.0978 18.7125 32.0086 25.1889 28.3655L31.5984 33.2127C31.6318 33.2436 31.6819 33.2899 31.7153 33.3208C32.2995 33.7839 33.0005 34 33.7016 34C34.4193 34 35.137 33.7684 35.7213 33.3053L36.005 33.0583C36.0551 33.012 36.0885 32.9657 36.1218 32.904C37.0065 31.8388 36.9731 30.3569 36.0217 29.3226C36.005 29.3072 35.9716 29.2763 35.9549 29.2608Z" fill="black"/>
<path d="M40.8263 0.470661C40.6594 0.254543 40.3757 0.131047 40.0752 0.161921L34.7172 0.686778C34.4168 0.717652 34.1664 0.887459 34.0495 1.13445C33.9327 1.38144 33.9661 1.67474 34.133 1.89086L35.3181 3.38825L16.49 15.9385C16.2897 16.062 16.1729 16.2781 16.1562 16.4942L15.6554 22.4375L7.50994 15.074C7.34302 14.9197 7.10934 14.8425 6.87566 14.8579L4.48876 15.0123C4.03809 15.0432 3.68757 15.3982 3.72095 15.8304C3.75433 16.2472 4.15493 16.5714 4.6056 16.5405L6.62529 16.4171L15.7723 24.6758C15.9225 24.8148 16.1395 24.892 16.3565 24.892C16.4566 24.892 16.5568 24.8765 16.6402 24.8456C16.9407 24.7376 17.141 24.4906 17.1744 24.1973L17.7919 16.9882L36.3363 4.65408L37.3545 5.95079C37.5047 6.15147 37.7551 6.25953 38.0221 6.25953C38.0555 6.25953 38.0889 6.25953 38.1056 6.25953C38.406 6.22865 38.6564 6.05884 38.7733 5.81185L40.9432 1.25795C41.0433 0.980081 41.0099 0.702215 40.8263 0.470661ZM37.8218 3.95942L36.3363 2.07611L38.84 1.82911L37.8218 3.95942Z" fill="#2F2F2F"/>
<rect x="21" y="22.1006" width="4" height="13" rx="2" transform="rotate(-50.8166 21 22.1006)" fill="black"/>
</svg>
