<svg width="24" height="18" viewBox="0 0 24 18" fill="none" xmlns="http://www.w3.org/2000/svg">
<path d="M5.53062 17.9998C4.47891 17.9998 3.41732 17.7698 2.48967 17.2911L2.29426 17.1901C-0.126061 15.9401 -0.72803 13.4582 0.952727 11.6582L6.05062 6.59922C6.84946 5.74299 8.07133 5.15894 9.47617 4.9706C10.881 4.78172 12.3001 5.01197 13.4726 5.61753L13.668 5.71823C14.6634 6.23207 15.4007 6.99086 15.7447 7.8547C15.8592 8.14292 15.6382 8.44583 15.2503 8.53102C14.8632 8.61566 14.4559 8.45209 14.341 8.16333C14.0881 7.52729 13.5666 6.99086 12.8337 6.61255L12.6382 6.51185C11.7863 6.07177 10.7551 5.90466 9.73599 6.04183C8.71612 6.17873 7.82872 6.60275 7.23736 7.23607L2.13983 12.2947C0.934796 13.5859 1.37173 15.3879 3.12933 16.2958L3.32474 16.3968C5.08161 17.3042 7.50486 16.9797 8.72563 15.6728L10.2831 14.0056C10.514 13.7592 10.9692 13.6983 11.3018 13.8692C11.6334 14.0409 11.7157 14.38 11.4852 14.6269L9.92774 16.2939C8.89104 17.4043 7.22382 17.9998 5.53062 17.9998Z" fill="white"/>
<path d="M13.5719 13.094C12.5191 13.094 11.4553 12.8643 10.5262 12.3847L10.3293 12.2827C9.33469 11.7688 8.59805 11.0106 8.2548 10.1476C8.14026 9.85908 8.36165 9.55644 8.74918 9.47125C9.13818 9.38606 9.54437 9.55045 9.65854 9.83894C9.91104 10.4744 10.4321 11.0106 11.1651 11.3892L11.362 11.4912C13.1181 12.3981 15.5414 12.0731 16.7621 10.7662L21.8597 5.70671C23.0651 4.41557 22.6281 2.61359 20.8705 1.70566L20.6766 1.60632C19.8232 1.16514 18.7931 0.998853 17.7725 1.13521C16.7526 1.2721 15.8652 1.69613 15.2739 2.32945L13.7168 3.99644C13.4863 4.24357 13.0303 4.30453 12.6984 4.13307C12.3665 3.96161 12.2842 3.62249 12.5147 3.37564L14.0718 1.70865C14.886 0.836373 16.1078 0.252313 17.5131 0.0639775C18.9175 -0.124086 20.3374 0.105618 21.5098 0.71145L21.7034 0.810789C24.1259 2.06219 24.7275 4.54403 23.0464 6.34384L17.9489 11.4033C16.9224 12.502 15.2614 13.094 13.5719 13.094Z" fill="white"/>
<path d="M18.1323 8.21233C18.0558 8.21233 17.979 8.19463 17.9131 8.15789C17.7514 8.06781 17.7184 7.89716 17.8399 7.77714L18.0405 7.57846C18.1616 7.45817 18.3914 7.43422 18.5524 7.52403C18.7142 7.61411 18.7471 7.78476 18.6256 7.90478L18.4251 8.10346C18.3533 8.17504 18.2436 8.21233 18.1323 8.21233Z" fill="white"/>
<path d="M18.9702 7.38172C18.8937 7.38172 18.8169 7.36403 18.751 7.32729C18.5893 7.2372 18.5563 7.06655 18.6778 6.94653L20.2975 5.33969C20.6857 4.92382 20.8358 4.41053 20.7124 3.90267C20.5891 3.39455 20.2074 2.95256 19.6373 2.65835L19.5118 2.59385C19.3457 2.50812 19.3043 2.33856 19.4192 2.215C19.5337 2.09144 19.7617 2.06041 19.9286 2.14614L20.0545 2.21092C20.7853 2.5884 21.2745 3.15477 21.4326 3.80578C21.5907 4.45679 21.3982 5.11488 20.891 5.65812L19.2637 7.27312C19.1912 7.34416 19.0818 7.38172 18.9702 7.38172Z" fill="white"/>
</svg>
