<svg width="14" height="16" viewBox="0 0 14 16" fill="none" xmlns="http://www.w3.org/2000/svg">
<path d="M8.23023 10.4697C8.60902 10.4356 9.34766 9.7424 9.74538 9.7121C10.1219 9.6782 10.4975 9.78628 10.7984 10.0151L11.8136 10.7727L12.4234 11.2575C12.5266 11.335 12.6131 11.4327 12.6775 11.5445C12.7419 11.6564 12.783 11.7801 12.7982 11.9083C12.8134 12.0365 12.8025 12.1664 12.7661 12.2903C12.7296 12.4141 12.6685 12.5292 12.5863 12.6288L11.4083 14.1439C11.3642 14.201 11.3063 14.246 11.24 14.2745C11.1737 14.303 11.1013 14.3141 11.0295 14.3068C5.91584 13.8485 1.84766 9.66285 1.84766 4.57952C1.84766 3.6822 1.97519 2.78943 2.22644 1.928C2.23983 1.88522 2.26448 1.84683 2.2978 1.81684C2.33112 1.78685 2.37189 1.76637 2.41584 1.75755L4.65447 1.44316C4.91157 1.38788 5.1801 1.43651 5.40149 1.57842C5.62288 1.72034 5.77917 1.94404 5.83629 2.20073L5.98402 2.95452L6.23023 4.18937C6.30342 4.55313 6.23136 4.93108 6.02947 5.2424C5.82493 5.56058 4.85902 5.87876 4.65069 6.20073C5.223 8.06123 6.51047 9.61845 8.23023 10.5303V10.4697Z" stroke="white" stroke-width="2" stroke-linecap="round" stroke-linejoin="round"/>
</svg>
