<svg width="92" height="87" viewBox="0 0 92 87" fill="none" xmlns="http://www.w3.org/2000/svg">
<path d="M70.8577 38.6064C70.1669 38.6064 69.5043 38.8702 69.0158 39.3397C68.5274 39.8091 68.2529 40.4459 68.2529 41.1098C68.2529 41.7737 68.5274 42.4105 69.0158 42.8799C69.5043 43.3494 70.1669 43.6132 70.8577 43.6132H77.4217C78.1125 43.6132 78.775 43.3494 79.2635 42.8799C79.752 42.4105 80.0264 41.7737 80.0264 41.1098C80.0264 40.4459 79.752 39.8091 79.2635 39.3397C78.775 38.8702 78.1125 38.6064 77.4217 38.6064H70.8577Z" fill="url(#paint0_linear_1487_26836)"/>
<path d="M92 33.1278V28.9222C92 27.8636 91.7831 26.8154 91.3616 25.8375C90.9401 24.8595 90.3223 23.9709 89.5434 23.2223C88.7646 22.4738 87.84 21.8801 86.8224 21.475C85.8048 21.0699 84.7141 20.8614 83.6127 20.8614H8.38732C7.28588 20.8614 6.19523 21.0699 5.17763 21.475C4.16003 21.8801 3.23542 22.4738 2.45659 23.2223C1.67775 23.9709 1.05995 24.8595 0.638447 25.8375C0.216945 26.8154 0 27.8636 0 28.9222V49.4497C2.05882e-08 50.1136 0.27443 50.7504 0.762917 51.2198C1.2514 51.6893 1.91393 51.9531 2.60476 51.9531C3.29558 51.9531 3.95811 51.6893 4.4466 51.2198C4.93509 50.7504 5.20951 50.1136 5.20951 49.4497V28.9222C5.20951 28.1122 5.54432 27.3354 6.14027 26.7626C6.73622 26.1899 7.54451 25.8681 8.38732 25.8681H83.6127C84.4555 25.8681 85.2638 26.1899 85.8597 26.7626C86.4557 27.3354 86.7905 28.1122 86.7905 28.9222V30.5744H63.3477C60.4889 30.7612 57.8106 31.9845 55.8543 33.9967C53.8981 36.009 52.81 38.6601 52.81 41.4139C52.81 44.1678 53.8981 46.8189 55.8543 48.8311C57.8106 50.8434 60.4889 52.0666 63.3477 52.2535H86.7905V78.9392C86.7905 79.7492 86.4557 80.526 85.8597 81.0988C85.2638 81.6715 84.4555 81.9933 83.6127 81.9933H8.38732C7.97 81.9933 7.55677 81.9143 7.17122 81.7608C6.78568 81.6073 6.43536 81.3824 6.14027 81.0988C5.84518 80.8152 5.61111 80.4785 5.45141 80.108C5.29171 79.7374 5.20951 79.3403 5.20951 78.9392V66.9732H43.239L37.5085 72.4805C37.2656 72.714 37.073 72.9911 36.9415 73.296C36.8101 73.601 36.7425 73.9278 36.7425 74.2579C36.7425 74.588 36.8101 74.9149 36.9415 75.2198C37.073 75.5248 37.2656 75.8019 37.5085 76.0353C37.7514 76.2687 38.0397 76.4539 38.357 76.5802C38.6743 76.7065 39.0144 76.7715 39.3579 76.7715C39.7013 76.7715 40.0414 76.7065 40.3587 76.5802C40.6761 76.4539 40.9644 76.2687 41.2072 76.0353L51.2095 66.3223C51.7003 65.8601 51.9812 65.2303 51.9909 64.5699C51.9837 64.2143 51.8961 63.8644 51.7342 63.5445C51.5723 63.2247 51.3399 62.9425 51.0532 62.7175L41.1031 53.1547C40.6126 52.6833 39.9473 52.4184 39.2537 52.4184C38.56 52.4184 37.8948 52.6833 37.4043 53.1547C36.9138 53.626 36.6383 54.2654 36.6383 54.932C36.6383 55.5987 36.9138 56.238 37.4043 56.7094L43.0306 62.1167H2.60476C2.2627 62.1167 1.92398 62.1814 1.60796 62.3072C1.29194 62.433 1.00479 62.6174 0.762917 62.8499C0.521043 63.0823 0.329178 63.3583 0.198277 63.662C0.0673756 63.9657 -1.60341e-08 64.2913 0 64.62V78.9392C-1.60341e-08 79.9978 0.216945 81.046 0.638447 82.0239C1.05995 83.0019 1.67775 83.8905 2.45659 84.639C3.23542 85.3876 4.16003 85.9813 5.17763 86.3864C6.19523 86.7915 7.28588 87 8.38732 87H83.6127C84.7141 87 85.8048 86.7915 86.8224 86.3864C87.84 85.9813 88.7646 85.3876 89.5434 84.639C90.3223 83.8905 90.9401 83.0019 91.3616 82.0239C91.7831 81.046 92 79.9978 92 78.9392V49.8002C92 49.4714 91.9326 49.1459 91.8017 48.8422C91.6708 48.5384 91.479 48.2625 91.2371 48.03C90.9952 47.7976 90.7081 47.6132 90.3921 47.4874C90.076 47.3616 89.7373 47.2968 89.3952 47.2968H63.3477C61.8351 47.162 60.4294 46.4892 59.406 45.4102C58.3827 44.3313 57.8154 42.9239 57.8154 41.464C57.8154 40.0041 58.3827 38.5967 59.406 37.5178C60.4294 36.4388 61.8351 35.766 63.3477 35.6312H89.3952C89.7373 35.6312 90.076 35.5664 90.3921 35.4406C90.7081 35.3148 90.9952 35.1304 91.2371 34.898C91.479 34.6655 91.6708 34.3895 91.8017 34.0858C91.9326 33.7821 92 33.4566 92 33.1278ZM22.0362 16.2552H69.9638C70.3351 16.2456 70.7 16.1597 71.0339 16.0034C71.3679 15.847 71.6631 15.6239 71.9 15.3488C72.1368 15.0738 72.3097 14.7533 72.407 14.4088C72.5043 14.0643 72.5239 13.7037 72.4643 13.3513L69.2344 1.83591C69.0515 1.20052 68.6152 0.660122 68.0203 0.332035C67.4253 0.00394719 66.7197 -0.0853408 66.0566 0.083558L21.359 11.3486C21.0169 11.3914 20.687 11.4985 20.388 11.6637C20.089 11.829 19.8268 12.0493 19.6163 12.312C19.1914 12.8425 19.0031 13.5135 19.0929 14.1774C19.1827 14.8414 19.5432 15.4438 20.0952 15.8523C20.6472 16.2607 21.3454 16.4417 22.0362 16.3554V16.2552ZM64.9105 5.3406L66.5776 11.2986H41.8324L64.9105 5.3406Z" fill="url(#paint1_linear_1487_26836)"/>
<defs>
<linearGradient id="paint0_linear_1487_26836" x1="74.1397" y1="38.6064" x2="74.1397" y2="43.6132" gradientUnits="userSpaceOnUse">
<stop stop-color="#00C0CC"/>
<stop offset="1" stop-color="#006066"/>
</linearGradient>
<linearGradient id="paint1_linear_1487_26836" x1="46" y1="0" x2="46" y2="87" gradientUnits="userSpaceOnUse">
<stop stop-color="#00C0CC"/>
<stop offset="1" stop-color="#006066"/>
</linearGradient>
</defs>
</svg>
