<svg width="39" height="28" viewBox="0 0 39 28" fill="none" xmlns="http://www.w3.org/2000/svg">
<path d="M37.4363 1.12222C38.3841 3.66652 38.2483 6.37555 37.0299 8.87345H37.029L26.6406 1.41471V1.41403C30.1196 0.539262 33.8927 0.441767 37.4363 1.12222Z" fill="#FF7124"/>
<path d="M8.44727 13.9797L16.6077 7.16043H16.6087L19.7655 4.522C21.7724 3.08108 24.1295 2.04494 26.6402 1.41357V1.41425L37.0286 8.87299H37.0295C36.1502 10.6757 34.707 12.368 32.7002 13.809L29.0254 16.0756L19.5267 21.9347L16.7576 19.9465L13.9875 17.9576L11.2174 15.9687L8.44727 13.9797ZM27.7293 13.0028C29.6192 11.6466 29.6192 9.44654 27.7293 8.09034C25.8405 6.73347 22.7763 6.73347 20.8874 8.09034C18.9976 9.44654 18.9976 11.6466 20.8874 13.0028C22.7763 14.3596 25.8405 14.3596 27.7293 13.0028Z" fill="#F2D59F"/>
<path d="M29.026 16.0762C29.189 19.1422 27.6401 22.2473 24.3802 24.5879C23.3791 25.306 22.2787 25.9091 21.1091 26.3959L19.5273 21.9353L29.026 16.0762Z" fill="#F2D59F"/>
<path d="M27.728 8.09089C29.6178 9.44709 29.6178 11.6471 27.728 13.0033C25.8391 14.3602 22.775 14.3602 20.8861 13.0033C18.9963 11.6471 18.9963 9.44709 20.8861 8.09089C22.775 6.73402 25.8391 6.73402 27.728 8.09089Z" fill="#8ECAC1"/>
<path d="M19.5286 21.935L15.7883 22.9241C14.7601 23.1964 13.6054 23.0142 12.8309 22.4575L12.1895 21.9969L16.7595 19.9468L19.5286 21.935Z" fill="#E6B263"/>
<path d="M16.7586 19.9469L12.1886 21.997H12.1877L10.2754 20.624L13.9885 17.958L16.7586 19.9469Z" fill="#E6B263"/>
<path d="M16.6085 7.1607L8.44799 13.98L2.23633 12.845C2.91434 12.0052 3.75436 11.2152 4.75452 10.4964C8.0144 8.15582 12.3372 7.0437 16.6085 7.1607Z" fill="#F2D59F"/>
<path d="M13.9887 17.9581L10.2756 20.6241L8.36328 19.2505L11.2186 15.9692L13.9887 17.9581Z" fill="#E6B263"/>
<path d="M11.2171 15.9689L8.36177 19.2501L7.71934 18.7895C6.94488 18.2328 6.69109 17.4044 7.06943 16.6662L8.44699 13.98L11.2171 15.9689Z" fill="#E6B263"/>
<path d="M2.70403 22.824C2.46439 22.824 2.22465 22.7583 2.04185 22.627C1.67615 22.3645 1.67615 21.9387 2.04185 21.6761L3.96537 20.295C4.33107 20.0325 4.92405 20.0325 5.28984 20.295C5.65553 20.5576 5.65553 20.9833 5.28984 21.246L3.36631 22.627C3.18342 22.7583 2.94377 22.824 2.70403 22.824Z" fill="#5E2A41"/>
<path d="M0.936501 28.0001C0.696763 28.0001 0.457118 27.9344 0.274224 27.8031C-0.0914705 27.5406 -0.0913768 27.1148 0.274318 26.8522L6.68638 22.2491C7.05208 21.9866 7.64506 21.9866 8.01075 22.2492C8.37644 22.5117 8.37635 22.9375 8.01056 23.2001L1.5985 27.8032C1.41579 27.9345 1.17615 28.0001 0.936501 28.0001Z" fill="#5E2A41"/>
<path d="M6.86419 27.6516C6.62445 27.6516 6.3849 27.5859 6.20201 27.4547C5.83631 27.1921 5.83631 26.7664 6.20201 26.5037L9.40757 24.2022C9.77326 23.9397 10.3662 23.9398 10.7319 24.2022C11.0976 24.4648 11.0976 24.8905 10.7319 25.1532L7.52637 27.4547C7.34357 27.5859 7.10383 27.6516 6.86419 27.6516Z" fill="#5E2A41"/>
<path d="M19.5276 22.6074C19.2879 22.6074 19.0484 22.5417 18.8655 22.4104L7.78599 14.4554C7.4203 14.1929 7.4203 13.7671 7.78599 13.5045C8.15168 13.242 8.74466 13.242 9.11045 13.5045L20.1899 21.4595C20.5556 21.7221 20.5556 22.1478 20.1899 22.4105C20.007 22.5417 19.7673 22.6074 19.5276 22.6074Z" fill="#5E2A41"/>
<path d="M24.31 14.693C22.7673 14.693 21.3172 14.2616 20.2266 13.4783C19.136 12.6956 18.5352 11.6544 18.5352 10.5467C18.5352 9.43903 19.136 8.39784 20.2269 7.61485C21.3171 6.83179 22.7672 6.40039 24.3099 6.40039C25.8527 6.40039 27.3028 6.83179 28.3934 7.61505C29.4839 8.39777 30.0847 9.43896 30.0847 10.5466C30.0847 11.6542 29.484 12.6953 28.3934 13.4782C28.3933 13.4784 28.3933 13.4783 28.393 13.4785C27.3026 14.2617 25.8526 14.693 24.31 14.693ZM24.31 7.74529C23.2677 7.74529 22.288 8.0367 21.5515 8.56587C20.8141 9.09497 20.4082 9.79841 20.4082 10.5468C20.4082 11.2951 20.8141 11.9986 21.5511 12.5274C22.288 13.0569 23.2677 13.3483 24.31 13.3483C25.3523 13.3483 26.3321 13.0569 27.0686 12.5277C27.0688 12.5276 27.0689 12.5276 27.069 12.5274C27.806 11.9986 28.2119 11.2951 28.2119 10.5468C28.2119 9.79841 27.806 9.09497 27.069 8.56614C26.3321 8.0367 25.3523 7.74529 24.31 7.74529Z" fill="#5E2A41"/>
<path d="M8.36155 19.9231C8.19205 19.9231 8.02049 19.8901 7.86616 19.8208C7.42751 19.6241 7.29415 19.2092 7.56817 18.8944L10.4235 15.6131C10.6976 15.2982 11.2754 15.2023 11.714 15.3992C12.1526 15.5959 12.286 16.0108 12.0119 16.3256L9.15662 19.6069C8.97897 19.811 8.67377 19.9231 8.36155 19.9231Z" fill="#5E2A41"/>
<path d="M10.2744 21.2964C10.0347 21.2964 9.7951 21.2307 9.61221 21.0995C9.24651 20.8369 9.24642 20.4112 9.61211 20.1485L13.3253 17.4825C13.6909 17.22 14.2839 17.22 14.6496 17.4825C15.0153 17.7451 15.0154 18.1708 14.6497 18.4334L10.9366 21.0994C10.7538 21.2308 10.514 21.2964 10.2744 21.2964Z" fill="#5E2A41"/>
<path d="M12.1874 22.6695C11.8752 22.6695 11.57 22.5575 11.3924 22.3533C11.1184 22.0384 11.2518 21.6235 11.6904 21.4268L16.2604 19.3768C16.6989 19.1798 17.2767 19.2757 17.5508 19.5907C17.8248 19.9056 17.6914 20.3204 17.2528 20.5172L12.6828 22.5673C12.5284 22.6365 12.3569 22.6695 12.1874 22.6695Z" fill="#5E2A41"/>
<path d="M16.608 7.83332C16.3919 7.83332 16.1748 7.77993 15.9981 7.67094C15.6058 7.42895 15.561 7.00447 15.898 6.72274L19.0549 4.08431C19.3918 3.80271 19.983 3.77044 20.3755 4.0125C20.7678 4.25449 20.8127 4.67897 20.4755 4.96063L17.3187 7.59906C17.1335 7.75384 16.8715 7.83332 16.608 7.83332Z" fill="#5E2A41"/>
<path d="M14.8232 23.7204C13.8448 23.7204 12.8825 23.4457 12.1692 22.9329L11.5528 22.4903C11.5441 22.4846 11.5356 22.4787 11.5273 22.4727L7.06082 19.2657C6.03145 18.5257 5.69141 17.4146 6.19374 16.4344L7.5713 13.7481C7.60998 13.6728 7.66701 13.603 7.73977 13.5423L15.9002 6.72295C16.2375 6.44136 16.8286 6.40915 17.2209 6.65114C17.6132 6.8932 17.6579 7.31768 17.3209 7.59934L9.27044 14.3265L7.95132 16.8989C7.70016 17.389 7.87041 17.9448 8.3851 18.3148L12.827 21.5042C12.8356 21.5099 12.8442 21.5158 12.8526 21.5218L13.4941 21.9824C14.0088 22.3525 14.7823 22.4745 15.4652 22.2937L19.0474 21.3464L32.0927 13.2997C32.4852 13.0576 33.0764 13.09 33.4133 13.3715C33.7504 13.6531 33.7056 14.0777 33.3133 14.3197L20.1397 22.4454C20.055 22.4976 19.958 22.5386 19.8532 22.5663L16.1128 23.5554C15.6934 23.6665 15.2566 23.7204 14.8232 23.7204Z" fill="#5E2A41"/>
<path d="M32.7014 14.4817C32.4617 14.4817 32.2221 14.416 32.0392 14.2848C31.6735 14.0222 31.6735 13.5965 32.0392 13.3338C33.9014 11.9969 35.2833 10.4214 36.1468 8.65109C37.2459 6.3978 37.4229 3.99484 36.6653 1.67626C33.4363 1.13237 30.0892 1.25945 26.9509 2.04849C24.4853 2.66849 22.2909 3.6608 20.4288 4.99776C20.0631 5.26026 19.4702 5.26033 19.1043 4.99776C18.7387 4.7352 18.7387 4.30944 19.1043 4.04681C21.1669 2.56595 23.5986 1.46654 26.3317 0.779297C29.9988 -0.142608 33.9226 -0.248777 37.6791 0.472623C38.0026 0.534751 38.2552 0.71616 38.3418 0.948401C39.3464 3.6456 39.1987 6.46289 37.9144 9.09567C36.9573 11.058 35.4261 12.8039 33.3635 14.2848C33.1807 14.416 32.9411 14.4817 32.7014 14.4817Z" fill="#5E2A41"/>
<path d="M37.0279 9.54577C36.7882 9.54577 36.5486 9.48008 36.3657 9.34883L25.9774 1.89001C25.6117 1.62745 25.6117 1.20169 25.9774 0.939061C26.3434 0.676496 26.9362 0.67663 27.3019 0.939061L37.6902 8.39788C38.0559 8.66044 38.0559 9.08619 37.6902 9.34883C37.5072 9.48008 37.2676 9.54577 37.0279 9.54577Z" fill="#5E2A41"/>
<path d="M8.4479 14.6524C8.36999 14.6524 8.29151 14.6454 8.21594 14.6316L2.00428 13.4966C1.71987 13.4447 1.48575 13.2999 1.37206 13.1057C1.25828 12.9115 1.27794 12.6901 1.42506 12.5078C2.15346 11.6056 3.05032 10.769 4.09094 10.0212C7.39493 7.64899 11.9685 6.36043 16.6386 6.48872C17.1414 6.50056 17.5443 6.79688 17.5443 7.1607C17.5443 7.53199 17.1255 7.83309 16.6083 7.83309H16.6073C16.5954 7.83309 16.5836 7.83295 16.5717 7.83262C12.4195 7.71838 8.35266 8.86304 5.41568 10.9718C4.78974 11.4216 4.22242 11.9074 3.72056 12.4226L8.65861 13.3248C9.07394 13.3937 9.38391 13.6609 9.38391 13.9799C9.38391 14.3513 8.96512 14.6524 8.4479 14.6524Z" fill="#5E2A41"/>
<path d="M21.1084 27.068C20.9852 27.068 20.8618 27.0505 20.7454 27.0154C20.4748 26.9337 20.2732 26.7657 20.2008 26.5615L18.619 22.1009C18.4914 21.741 18.7943 21.375 19.2955 21.2834C19.7965 21.1916 20.3065 21.4092 20.4341 21.7691L21.6965 25.3292C22.4141 24.9689 23.0908 24.5614 23.7175 24.112C26.6543 22.0034 28.248 19.0835 28.0893 16.1015C28.0697 15.7304 28.4727 15.4181 28.9894 15.4039C29.5053 15.3883 29.9412 15.6791 29.961 16.0502C30.1392 19.4051 28.3462 22.6903 25.0415 25.063C23.9998 25.8103 22.8345 26.4543 21.5778 26.9773C21.4334 27.0375 21.2711 27.068 21.1084 27.068Z" fill="#5E2A41"/>
</svg>
