<svg width="24" height="16" viewBox="0 0 24 16" fill="none" xmlns="http://www.w3.org/2000/svg">
<path d="M0.00119988 12.5619C0.00119988 12.8789 0.145185 13.1532 0.433157 13.3848C0.721128 13.6165 1.08109 13.7262 1.51305 13.714H3.0009C4.0248 13.714 5.0007 13.5616 5.92861 13.2568C6.85651 12.952 7.64844 12.5436 8.30437 12.0315C8.9603 11.5195 9.49625 10.9099 9.91221 10.2028C10.3282 9.49564 10.5281 8.75803 10.5121 7.98994C10.5121 7.05117 10.9441 6.2465 11.808 5.57595C12.6719 4.9054 13.7358 4.57012 14.9997 4.57012H17.9994V5.70397C17.9994 5.96 18.0954 6.17945 18.2874 6.36233C18.4794 6.54521 18.6953 6.67932 18.9353 6.76466C19.1753 6.85 19.4553 6.87439 19.7752 6.83781C20.0952 6.80123 20.3592 6.6976 20.5671 6.52692L23.5668 4.24094C23.8708 3.9971 24.0148 3.72279 23.9988 3.41799C23.9828 3.11319 23.8388 2.84497 23.5668 2.61333L20.5671 0.327352C20.3272 0.156665 20.0552 0.0530346 19.7512 0.016459C19.4473 -0.0201166 19.1673 0.00426717 18.9113 0.0896103C18.6553 0.174953 18.4394 0.309064 18.2634 0.491942C18.0874 0.67482 17.9994 0.888178 17.9994 1.13202V2.28415H14.9997C13.9918 2.28415 13.0239 2.43655 12.096 2.74134C11.1681 3.04614 10.3682 3.44847 9.69623 3.94834C9.0243 4.4482 8.48835 5.0578 8.08839 5.77712C7.68843 6.49644 7.49645 7.23405 7.51245 7.98994C7.51245 8.94091 7.07249 9.75167 6.19258 10.4222C5.31267 11.0928 4.24878 11.4281 3.0009 11.4281H1.51305C1.09709 11.4281 0.737126 11.5378 0.433157 11.7572C0.129187 11.9767 -0.0147985 12.2449 0.00119988 12.5619ZM0.00119988 3.43628C0.00119988 3.75327 0.145185 4.02149 0.433157 4.24094C0.721128 4.4604 1.08109 4.57012 1.51305 4.57012H3.0009C3.70483 4.57012 4.35276 4.68595 4.94471 4.91759C5.53665 5.14924 6.05659 5.46623 6.50455 5.86856C6.84052 5.08828 7.33647 4.38724 7.9924 3.76546C6.53655 2.77792 4.87271 2.28415 3.0009 2.28415H1.51305C1.09709 2.28415 0.737126 2.39997 0.433157 2.63162C0.129187 2.86326 -0.0147985 3.13148 0.00119988 3.43628ZM10.0322 12.251C11.4561 13.2264 13.1119 13.714 14.9997 13.714H17.9994V14.8662C17.9994 15.11 18.0954 15.3294 18.2874 15.5245C18.4794 15.7196 18.6953 15.8537 18.9353 15.9269C19.1753 16 19.4553 16.0183 19.7752 15.9817C20.0952 15.9451 20.3592 15.8415 20.5671 15.6708L23.5668 13.3848C23.8708 13.1532 24.0148 12.8789 23.9988 12.5619C23.9828 12.2449 23.8388 11.9828 23.5668 11.7755L20.5671 9.48954C20.3272 9.30666 20.0552 9.19694 19.7512 9.16036C19.4473 9.12379 19.1673 9.14817 18.9113 9.23351C18.6553 9.31886 18.4394 9.45906 18.2634 9.65413C18.0874 9.8492 17.9994 10.0626 17.9994 10.2942V11.4281H14.9997C14.3118 11.4281 13.6638 11.3183 13.0559 11.0989C12.448 10.8794 11.936 10.5624 11.52 10.1479C11.1681 10.9282 10.6721 11.6292 10.0322 12.251Z" fill="#00C0CC"/>
</svg>
