<svg width="30" height="31" viewBox="0 0 30 31" fill="none" xmlns="http://www.w3.org/2000/svg">
<path fill-rule="evenodd" clip-rule="evenodd" d="M21.138 16.1764C23.5565 13.99 27.0011 14.5496 28.8355 17.4309C30.6675 20.3123 30.1953 24.4193 27.7769 26.6085C25.3584 28.7948 21.9138 28.2353 20.0793 25.3539C19.6062 24.6096 19.2866 23.7843 19.1157 22.9304L15.6442 23.4362C15.3032 23.4906 14.9921 23.2054 14.9468 22.7988C14.9014 22.3923 15.141 22.0212 15.482 21.9668L18.9657 21.461C18.9484 19.4578 19.7006 17.4766 21.138 16.1764ZM15.6993 0.689602C18.3086 -0.843071 21.4667 0.435847 22.7502 3.54527C24.0337 6.65469 22.9583 10.4206 20.349 11.9533C18.3225 13.1418 15.9687 12.6399 14.4166 10.9002L11.9217 13.5102C11.6654 13.7825 11.2733 13.7555 11.0451 13.4501C10.8169 13.1448 10.8399 12.6774 11.0963 12.4051L13.618 9.76607C13.5016 9.55387 13.395 9.33007 13.2981 9.09759C12.0146 5.98817 13.09 2.22228 15.6993 0.689602ZM1.10276 21.4545C0.551696 21.7523 0.386813 22.4951 0.484826 23.2879C0.530257 23.651 0.629258 24.017 0.767257 24.3686C0.907691 24.7202 1.08716 25.0429 1.30084 25.3105C1.78891 25.9271 2.44328 26.2422 3.12123 25.8373C3.17487 25.8084 3.2309 25.8027 3.27956 25.8231C3.29175 25.8173 3.29907 25.8086 3.31613 25.8029C3.48926 25.7075 3.64532 25.6207 3.78676 25.5398C3.94769 25.4531 4.09885 25.375 4.24271 25.2999C4.35486 25.245 4.48378 25.3091 4.52732 25.437C4.53218 25.4457 4.53458 25.4573 4.53456 25.466L4.63609 25.7914C4.89716 26.634 5.14854 27.4503 5.43929 28.0926C5.44414 28.1014 5.48045 28.1943 5.52165 28.2815C5.69849 28.6884 5.8923 29.1272 6.10117 29.3687C6.28577 29.5781 6.51217 29.6135 6.81988 29.2426C6.87608 29.1614 6.93227 29.0832 6.98846 29.0078C7.16923 28.7644 7.34757 28.5238 7.38971 28.2017C7.33386 28.1319 7.23895 28.1026 7.14405 28.0704C6.82771 27.9652 6.51622 27.8658 6.50824 27.1022L6.5085 26.9919C6.50901 26.7683 6.50441 26.6551 6.49233 26.6115C6.48508 26.5854 6.4316 26.5446 6.33195 26.4602L6.29305 26.4311C6.09618 26.2651 5.99938 26.0007 5.97084 25.7045C5.93512 25.3531 5.98719 24.9526 6.05361 24.6624C6.07331 24.5696 6.13191 24.5029 6.20747 24.477C8.39605 23.7504 9.80796 23.9918 10.9351 24.1889C10.9837 24.1977 11.0324 24.2036 11.0762 24.2124C9.97544 23.1793 8.98083 21.5105 8.2324 19.7494C7.44035 17.8924 6.9213 15.9286 6.83692 14.5088C6.12675 16.2084 4.85166 18.9316 1.33482 21.1502C1.32995 21.1502 1.3275 21.156 1.32263 21.156L1.29337 21.1705C1.2568 21.1907 1.25193 21.1878 1.2446 21.1994C1.24457 21.2139 1.25431 21.2139 1.24451 21.24C1.24449 21.2458 1.24697 21.2284 1.2151 21.3183C1.19061 21.3793 1.15154 21.4227 1.10765 21.4487L1.10276 21.4545ZM10.276 19.5945C10.3476 20.2333 9.95018 21.4663 9.62856 21.5381C10.3369 22.7533 11.1479 23.7771 11.999 24.3249C12.0477 24.3221 12.0866 24.3222 12.1281 24.3136C12.2036 24.2963 12.2743 24.2646 12.35 24.1893C12.5015 23.9457 12.5754 23.5975 12.5885 23.1679C12.6184 21.8499 12.036 19.8802 11.2196 18.026C10.4057 16.169 9.36005 14.4391 8.4731 13.6009C8.14748 13.2954 7.85079 13.1147 7.61701 13.1112C7.55613 13.1111 7.52203 13.111 7.50495 13.1255C7.48788 13.1371 7.45857 13.1747 7.41702 13.2385C7.39747 13.2675 7.37547 13.3023 7.35346 13.3429C7.351 13.3545 7.35099 13.3574 7.34853 13.369C7.08574 14.3264 7.42469 16.2405 8.12874 18.2395C8.4654 17.9819 10.0971 17.9479 10.2808 19.5916L10.276 19.5945ZM12.0343 24.8447C11.988 24.862 11.9417 24.8648 11.8906 24.8414C11.8517 24.8384 11.8078 24.8354 11.764 24.8295C11.4743 24.8027 11.1846 24.7556 10.873 24.7026C9.81161 24.5202 8.4776 24.2877 6.44506 24.9392C6.40558 25.1597 6.38063 25.418 6.40203 25.6416C6.42114 25.8043 6.46223 25.9379 6.54243 26.0078L6.58133 26.0369C6.75391 26.1795 6.84142 26.2494 6.89705 26.4121C6.94788 26.5487 6.94753 26.6997 6.94929 26.99L6.94904 27.1003C6.95062 27.469 7.10879 27.5217 7.26453 27.5743C7.46894 27.6415 7.67092 27.7059 7.80173 28.0081C7.82354 28.0517 7.83317 28.1011 7.83304 28.1591C7.80742 28.7049 7.56069 29.0353 7.31397 29.3599C7.26024 29.4294 7.20404 29.5077 7.15518 29.5772L7.14296 29.5946C6.6032 30.2669 6.16994 30.173 5.80074 29.7541C5.53599 29.4545 5.33009 28.9779 5.13142 28.5361C5.11446 28.4983 5.0975 28.4576 5.04904 28.353C4.75104 27.6846 4.4924 26.8479 4.22407 25.9879L4.19749 25.8978C4.11946 25.9412 4.03657 25.9816 3.95854 26.025C3.79761 26.1117 3.64156 26.1956 3.49524 26.2823C3.4733 26.291 3.46353 26.3026 3.45378 26.3084C3.35622 26.372 3.31718 26.4039 3.21985 26.3659C2.36888 26.8197 1.56615 26.4259 0.976098 25.6784C0.733281 25.3701 0.524706 24.998 0.367326 24.6028C0.209945 24.2076 0.101338 23.7835 0.0487151 23.3711C-0.0707726 22.3867 0.14324 21.461 0.840719 21.0359C0.867689 20.9575 0.884823 20.9198 0.92635 20.8648C0.972755 20.8068 1.01421 20.7837 1.0947 20.7287L1.12396 20.7143C1.12883 20.7143 1.13128 20.7085 1.13128 20.7085C4.74566 18.432 5.90654 15.6011 6.57024 13.9885C6.75392 13.5389 6.90087 13.1821 7.06217 12.9328C7.14038 12.8111 7.20145 12.7328 7.29168 12.6779C7.38191 12.6229 7.47938 12.5999 7.61574 12.6061C7.95667 12.6127 8.33363 12.8342 8.73458 13.2096C9.67013 14.0915 10.757 15.8824 11.5952 17.7975C12.4382 19.7185 13.0447 21.7783 13.0122 23.1892C12.9988 23.7379 12.8954 24.1992 12.6706 24.5326C12.6633 24.5442 12.656 24.5558 12.6438 24.5616C12.4948 24.7209 12.3486 24.796 12.1902 24.8276C12.1342 24.8362 12.0781 24.8448 12.027 24.8475L12.0343 24.8447ZM16.4779 6.25979L17.9159 4.67215C17.8869 4.60821 17.8651 4.53848 17.8482 4.46877C17.689 3.83259 17.9949 3.16265 18.5287 2.97228C19.0625 2.7819 19.6242 3.1461 19.7834 3.78227C19.9427 4.41845 19.6367 5.08839 19.103 5.27876C18.8909 5.35376 18.6766 5.34165 18.482 5.26281L16.9707 6.93157C16.9755 6.95191 16.9828 6.97225 16.9876 6.99258C16.9972 7.02744 17.0045 7.0623 17.0093 7.10005L18.8762 7.48179C19.001 7.2295 19.2036 7.02674 19.4595 6.93733C19.9933 6.74695 20.555 7.11115 20.7143 7.74733C20.8735 8.3835 20.5676 9.05344 20.0338 9.24382C19.5 9.4342 18.9383 9.06999 18.7791 8.43382C18.7743 8.41058 18.767 8.38444 18.7622 8.3612L16.8733 7.97651C16.7485 8.21719 16.5508 8.40544 16.3047 8.49197C15.7709 8.68235 15.2092 8.31814 15.0499 7.68197C14.8907 7.04579 15.1966 6.37586 15.7304 6.18548C15.9912 6.08737 16.2566 6.12573 16.4779 6.25979ZM25.5459 19.3482L26.781 19.1623C27.1562 19.1051 27.5037 19.4253 27.5513 19.8754L27.7039 21.3157C27.7515 21.7659 27.4827 22.1775 27.1051 22.2347L26.574 22.3147C26.6877 22.6634 26.8136 22.9714 27.1272 23.2247C26.5721 23.1422 26.1222 22.874 25.7652 22.4348L25.6726 22.4491C25.6361 22.4548 25.5996 22.4577 25.5606 22.4576C25.7438 22.2315 25.8589 21.9618 25.8302 21.6946L25.7659 21.0935L25.7087 20.5505L25.6134 19.6532C25.6014 19.5457 25.5773 19.4441 25.5459 19.3482ZM22.1173 19.2212L24.0296 18.9324C24.551 18.8552 25.0297 19.2976 25.0965 19.9191L25.268 21.5482C25.3038 21.8792 25.1399 22.1982 24.9031 22.4386C24.6834 22.6617 24.3908 22.8265 24.1472 22.8636L24.1277 22.8665C23.9834 23.1478 23.805 23.3971 23.5951 23.6114C23.3632 23.8489 23.09 24.0428 22.7779 24.1873C22.7194 24.2132 22.6512 24.2044 22.6002 24.1491C22.5273 24.0735 22.5203 23.9428 22.5839 23.8558C22.7085 23.6848 22.7843 23.5166 22.8359 23.3455C22.8629 23.2497 22.885 23.1511 22.8999 23.0495L22.5272 23.1067C22.2665 23.1467 22.0159 23.0561 21.8239 22.8757C21.6319 22.6982 21.4961 22.4307 21.4628 22.12L21.2912 20.4909C21.2244 19.8724 21.5959 19.3013 22.1173 19.2212Z" fill="white"/>
</svg>
