<svg width="26" height="26" viewBox="0 0 26 26" fill="none" xmlns="http://www.w3.org/2000/svg">
<path d="M21.0761 16.1511C20.0298 16.1511 19.0372 16.4823 18.1853 17.1124L9.95831 12.9988L18.1852 8.88382C19.0372 9.51473 20.0297 9.84623 21.0761 9.84623C23.7912 9.84623 26 7.63679 26 4.92106C26 2.20756 23.7912 0 21.0761 0C18.3802 0 16.1835 2.17796 16.154 4.86632L7.81356 9.03505C6.95876 8.40572 5.96654 8.07493 4.92365 8.07493C2.20878 8.07493 0 10.2843 0 13C0 15.7135 2.20878 17.9211 4.9238 17.9211C5.96654 17.9211 6.95881 17.5907 7.81346 16.9621L16.1541 21.1307C16.184 23.8209 18.3805 26 21.0761 26C22.3915 26 23.6281 25.4878 24.5579 24.5579C25.4879 23.6278 26 22.3909 25.9999 21.0749C25.9999 18.36 23.7911 16.1511 21.0761 16.1511ZM23.8254 23.8255C23.0912 24.5597 22.1148 24.9642 21.0761 24.9642C18.9332 24.9642 17.1897 23.2195 17.1897 21.0749C17.1897 21.0581 17.1936 21.028 17.1979 20.9962C17.2032 20.9574 17.2097 20.9091 17.213 20.8552C17.2261 20.6476 17.1138 20.4524 16.9277 20.3593L7.98312 15.8889C7.90974 15.8522 7.83042 15.8343 7.75166 15.8343C7.63212 15.8343 7.51364 15.8756 7.41838 15.9557C6.69459 16.5638 5.83197 16.8852 4.9238 16.8852C2.78002 16.8852 1.03594 15.1423 1.03594 13.0001C1.03594 10.8556 2.78002 9.11082 4.9238 9.11082C5.83187 9.11082 6.69439 9.43267 7.41813 10.0415C7.57626 10.1746 7.79827 10.2008 7.98307 10.1085L16.9276 5.63779C17.1137 5.5447 17.2261 5.34935 17.213 5.1417C17.2096 5.08848 17.2034 5.04232 17.198 5.00165C17.1937 4.969 17.1896 4.93822 17.1896 4.92096C17.1897 2.7787 18.9332 1.03589 21.0762 1.03589C23.2201 1.03589 24.9642 2.77875 24.9641 4.92101C24.9641 7.0656 23.22 8.81034 21.0761 8.81034C20.1649 8.81034 19.3028 8.48793 18.583 7.878C18.4249 7.74404 18.202 7.71723 18.0165 7.80995L9.07222 12.2838C8.88682 12.3765 8.77454 12.5708 8.78688 12.7778L8.78683 13.2194C8.77434 13.4266 8.88662 13.6212 9.07222 13.7139L18.0165 18.1862C18.2018 18.2789 18.4246 18.2521 18.5827 18.1182C19.3026 17.5091 20.1647 17.1871 21.0761 17.1871C23.22 17.1871 24.9641 18.9311 24.9641 21.075C24.9641 22.1142 24.5597 23.091 23.8254 23.8255Z" fill="white"/>
<path d="M4.92145 9.68652C4.81928 9.68652 4.7162 9.69125 4.61504 9.70049C4.33021 9.72669 4.12058 9.97882 4.14674 10.2637C4.17147 10.5324 4.39719 10.7342 4.66186 10.7342C4.67775 10.7342 4.69375 10.7335 4.7099 10.7321C4.77962 10.7257 4.85077 10.7224 4.9214 10.7224C5.20745 10.7224 5.43932 10.4904 5.43932 10.2044C5.43932 9.91844 5.2075 9.68652 4.92145 9.68652Z" fill="white"/>
<path d="M3.38098 10.6073C3.18497 10.399 2.85718 10.3891 2.64887 10.5851C1.98577 11.2091 1.60547 12.0891 1.60547 12.9994C1.60547 13.2854 1.83734 13.5173 2.12339 13.5173C2.40944 13.5173 2.6413 13.2854 2.6413 12.9994C2.6413 12.3644 2.89612 11.7748 3.35879 11.3395C3.5671 11.1434 3.57705 10.8157 3.38098 10.6073Z" fill="white"/>
</svg>
