<svg width="167" height="158" viewBox="0 0 167 158" fill="none" xmlns="http://www.w3.org/2000/svg">
<path d="M128.174 68.256C150.787 61.0715 167 41.9824 167 19.6145L166.861 14.1493H131.169V0H35.8313V14.1493H0.138525L0 19.6145C0 41.9818 16.2125 61.0709 38.8264 68.256C44.153 80.0874 55.4479 88.6945 69.3588 92.4878V105.333C68.7325 115.397 59.07 123.959 47.4864 123.959V135.52H35.8211V158H131.179V135.52H119.514V123.959C107.93 123.959 98.2675 115.397 97.6412 105.333V92.4878C111.552 88.6945 122.847 80.0867 128.174 68.256ZM131.179 25.0488H153.462C153.418 25.323 153.387 25.702 153.337 25.9743C151.135 38.0851 142.734 48.2491 131.169 54.239C131.198 53.6359 131.179 25.0488 131.179 25.0488ZM13.6629 25.9743C13.6134 25.702 13.582 25.323 13.5383 25.0488H35.8211C35.8211 25.0488 35.8022 53.6359 35.8306 54.239C24.2659 48.2491 15.8655 38.0851 13.6629 25.9743ZM83.5 52.5234L68.7325 61.207L73.5437 46.1508L59.6059 36.462L77.3473 35.841L83.5007 21.1688L89.6542 35.841L107.396 36.462L93.4563 46.1514L98.2675 61.2077L83.5 52.5234Z" fill="#757575"/>
</svg>
