<svg width="19" height="20" viewBox="0 0 19 20" fill="none" xmlns="http://www.w3.org/2000/svg">
<path fill-rule="evenodd" clip-rule="evenodd" d="M10.9952 10.137L16.445 4.32202C16.7374 4.01002 17.2379 4.22202 17.2501 4.66302L17.2857 6.02899C17.3007 6.58099 17.7318 7 18.2491 7H18.0411C18.5584 7 18.744 6.52398 18.744 5.97198V2C18.744 0.9 17.9005 0 16.8696 0H13.5734C13.0552 0 12.1836 0.42499 12.1836 0.97699V0.97998C12.1836 1.53198 12.7899 1.99397 13.3073 2.00897L14.7449 2.04999C15.1582 2.06099 15.3579 2.59498 15.0664 2.90698L9.64283 8.72302C9.27732 9.11302 9.29044 9.74602 9.65689 10.137C10.0224 10.527 10.6288 10.528 10.9952 10.137ZM18.744 13.011V18.015C18.744 19.117 18.3222 20 17.2894 20H2.28676C1.25397 20 0 19.117 0 18.015V2.00702C0 0.904019 1.25397 0 2.28676 0H6.9765C7.49384 0 7.9137 0.448 7.9137 1C7.9137 1.553 7.49384 2 6.9765 2H3.22771C2.71038 2 1.8744 2.45799 1.8744 3.01099V16.015C1.8744 17.117 3.12837 18 4.16116 18H16.3485C16.8658 18 16.8696 17.563 16.8696 17.011V13.011C16.8696 12.458 17.2885 12.011 17.8068 12.011C18.3241 12.011 18.744 12.458 18.744 13.011Z" fill="#00C0CC"/>
</svg>
