<svg width="80" height="80" viewBox="0 0 80 80" fill="none" xmlns="http://www.w3.org/2000/svg">
<path d="M40 80C62.0914 80 80 62.0914 80 40C80 17.9086 62.0914 0 40 0C17.9086 0 0 17.9086 0 40C0 62.0914 17.9086 80 40 80Z" fill="#E8E8E8"/>
<path d="M22.8633 53.575V41.3625H38.1258L22.8633 53.575Z" fill="black"/>
<path d="M24.0383 43.75H55.9383C61.6008 43.75 66.2383 39.1125 66.2383 33.45V21.55C66.2383 15.8875 61.6008 11.25 55.9383 11.25H24.0383C18.3758 11.25 13.7383 15.8875 13.7383 21.55V33.45C13.7383 39.1125 18.3758 43.75 24.0383 43.75Z" fill="black"/>
<path d="M22.9852 29.45C23.5727 29.8375 24.6102 30.2375 25.6102 30.2375C27.0602 30.2375 27.7352 29.5125 27.7352 28.6125C27.7352 27.6625 27.1727 27.1375 25.6977 26.6C23.7352 25.9 22.7977 24.8125 22.7977 23.5C22.7977 21.7375 24.2227 20.2875 26.5727 20.2875C27.6852 20.2875 28.6477 20.6 29.2602 20.9625L28.7602 22.4125C28.3352 22.1375 27.5352 21.775 26.5227 21.775C25.3477 21.775 24.6852 22.45 24.6852 23.2625C24.6852 24.1625 25.3352 24.575 26.7602 25.1125C28.6602 25.8375 29.6352 26.7875 29.6352 28.4125C29.6352 30.3375 28.1477 31.6875 25.5477 31.6875C24.3477 31.6875 23.2352 31.3875 22.4727 30.9375L22.9852 29.45Z" fill="white"/>
<path d="M32.2086 23.5124C32.2086 22.3874 32.1836 21.4499 32.1211 20.5499H33.8586L33.9461 22.3124H34.0086C34.6211 21.2749 35.6336 20.2999 37.4461 20.2999C38.9336 20.2999 40.0711 21.1999 40.5461 22.4999H40.5961C40.9336 21.8874 41.3586 21.4124 41.8211 21.0749C42.4836 20.5749 43.1961 20.2999 44.2461 20.2999C45.6961 20.2999 47.8461 21.2499 47.8461 25.0499V31.4999H45.8961V25.2999C45.8961 23.1999 45.1211 21.9249 43.5211 21.9249C42.3961 21.9249 41.5086 22.7624 41.1711 23.7374C41.0836 24.0124 41.0086 24.3749 41.0086 24.7374V31.4999H39.0586V24.9374C39.0586 23.1999 38.2961 21.9249 36.7711 21.9249C35.5336 21.9249 34.6211 22.9249 34.3086 23.9124C34.1961 24.2124 34.1461 24.5499 34.1461 24.8874V31.4874H32.1961V23.5124H32.2086Z" fill="white"/>
<path d="M50.8094 29.45C51.3969 29.8375 52.4344 30.2375 53.4344 30.2375C54.8844 30.2375 55.5594 29.5125 55.5594 28.6125C55.5594 27.6625 54.9969 27.1375 53.5219 26.6C51.5594 25.9 50.6219 24.8125 50.6219 23.5C50.6219 21.7375 52.0469 20.2875 54.3969 20.2875C55.5094 20.2875 56.4719 20.6 57.0844 20.9625L56.5844 22.4125C56.1594 22.1375 55.3594 21.775 54.3469 21.775C53.1719 21.775 52.5094 22.45 52.5094 23.2625C52.5094 24.1625 53.1594 24.575 54.5844 25.1125C56.4844 25.8375 57.4594 26.7875 57.4594 28.4125C57.4594 30.3375 55.9719 31.6875 53.3719 31.6875C52.1719 31.6875 51.0594 31.3875 50.2969 30.9375L50.8094 29.45Z" fill="white"/>
<path d="M68.0961 57.525H42.3336C41.0461 57.525 39.9961 56.475 39.9961 55.1875V38.7875C39.9961 37.5 41.0461 36.45 42.3336 36.45H68.0961C69.3836 36.45 70.4336 37.5 70.4336 38.7875V55.1749C70.4336 56.475 69.3836 57.525 68.0961 57.525Z" fill="white"/>
<path d="M63.4117 64.55V55.1875H51.6992L63.4117 64.55Z" fill="white"/>
<path d="M56.3883 43.475H54.0508V45.8125H56.3883V43.475Z" fill="black"/>
<path d="M51.7008 43.475H49.3633V45.8125H51.7008V43.475Z" fill="black"/>
<path d="M47.0133 43.475H44.6758V45.8125H47.0133V43.475Z" fill="black"/>
<path d="M61.0641 43.475H58.7266V45.8125H61.0641V43.475Z" fill="black"/>
<path d="M65.7516 43.475H63.4141V45.8125H65.7516V43.475Z" fill="black"/>
<path d="M56.3883 48.1625H54.0508V50.5H56.3883V48.1625Z" fill="black"/>
<path d="M61.0641 48.1625H58.7266V50.5H61.0641V48.1625Z" fill="black"/>
<path d="M65.7516 48.1625H63.4141V50.5H65.7516V48.1625Z" fill="black"/>
</svg>
