<svg width="46" height="30" viewBox="0 0 46 30" fill="none" xmlns="http://www.w3.org/2000/svg">
<path fill-rule="evenodd" clip-rule="evenodd" d="M42.9153 12.7047V29.4965C42.9153 29.7718 42.6696 30 42.3732 30H37.6987C37.4023 30 37.1566 29.7735 37.1566 29.4965V17.0062C38.1107 16.1394 39.2835 15.0908 40.4802 14.0211L42.3684 12.3313C42.5404 12.4683 42.7232 12.5931 42.9153 12.7047ZM17.7004 7.80322L21.2994 4.87858C24.0343 7.3671 26.6858 10.3752 29.3931 12.8596L39.2625 3.64917L36.0839 0.696654L46 0L45.4424 9.38571L42.3933 6.55287C40.2044 8.6127 35.0276 13.152 32.8359 15.1881C30.0674 17.7601 28.7451 17.8065 25.9755 15.2338L21.2994 10.3998L20.3915 11.1477C20.2511 10.8656 20.0971 10.5895 19.9299 10.3203C19.5822 9.76083 19.1832 9.24151 18.7409 8.77043L18.7469 8.76558C18.4329 8.43061 18.0827 8.10857 17.7004 7.80322ZM11.3471 7.90245C10.3172 7.83661 9.28347 7.96034 8.30522 8.26654L8.28447 8.27372C7.31264 8.58078 6.4148 9.06132 5.64144 9.68831C4.86226 10.3202 4.22472 11.0885 3.76524 11.9493C3.30679 12.8079 3.03527 13.7421 2.96626 14.6984C2.91446 15.4038 2.97299 16.1124 3.14001 16.8022C3.28545 17.4018 3.5122 17.9818 3.81483 18.5284L0.117308 21.8164C0.0449004 21.8803 0.00275829 21.9683 0.000130639 22.0611C-0.00249701 22.1539 0.0346045 22.2438 0.103293 22.3112L2.19656 24.3448C2.26534 24.4117 2.35986 24.4505 2.45939 24.4527C2.55891 24.4549 2.65532 24.4203 2.72745 24.3566L6.28562 21.1662C6.82608 21.5213 7.4129 21.8112 8.03201 22.029C8.75405 22.282 9.51224 22.435 10.2822 22.4831C11.3116 22.5488 12.3448 22.4252 13.3226 22.1194C14.303 21.8126 15.2087 21.3294 15.9879 20.6974C16.7669 20.0656 17.4043 19.2976 17.8638 18.4371C18.311 17.6016 18.5914 16.6729 18.6635 15.687C18.7355 14.7011 18.5925 13.7456 18.2716 12.8616L18.2639 12.8423C17.9328 11.9399 17.4151 11.1063 16.7399 10.3884C16.0607 9.66431 15.2344 9.07196 14.3081 8.64533C13.4087 8.22991 12.4085 7.96929 11.3471 7.90245ZM10.0615 18.0411C9.64704 18.0143 9.11921 17.9194 8.71284 17.8182V16.6343C9.25227 16.6749 10.5806 16.7801 11.0703 16.6772C11.4378 16.5997 11.3971 16.0608 11.1551 15.9932C10.8637 15.909 10.2538 16.0101 9.76339 15.8782C9.51308 15.8107 9.30186 15.7091 9.12972 15.5733C8.95389 15.4339 8.82227 15.2494 8.73584 15.02C8.65148 14.7969 8.60898 14.5311 8.60898 14.2229V13.8172C8.60898 12.9497 9.12397 12.4329 10.0615 12.2874V11.6655H11.3971V12.2632C11.8114 12.2939 12.3269 12.3922 12.738 12.4848V13.6706C12.1775 13.6248 11.1144 13.5317 10.5827 13.6214C10.5391 13.6283 10.4967 13.6405 10.4565 13.6574C10.2382 13.7536 10.2469 14.3082 10.5144 14.3739C10.6893 14.4165 11.0481 14.394 11.2393 14.394C11.4329 14.394 11.6124 14.4116 11.7771 14.4462C11.9434 14.4813 12.0938 14.5345 12.2272 14.6053C12.7865 14.9014 13.0333 15.4236 13.0333 16.0003V16.4065C13.0333 16.6475 13.01 16.8626 12.9642 17.0507C12.7815 17.7969 12.1584 17.9579 11.3971 18.0352V18.7059H10.0615V18.0411ZM6.68633 10.8002C7.30436 10.2996 8.02599 9.91021 8.81059 9.66494C9.56753 9.42794 10.3886 9.32262 11.2393 9.37612C12.09 9.42969 12.8886 9.63724 13.6034 9.96662C14.3459 10.3085 15.0038 10.7846 15.5431 11.3584L15.5623 11.3772C16.0961 11.9506 16.5051 12.6149 16.7663 13.3331L16.7731 13.3506C17.0229 14.0478 17.134 14.8043 17.0769 15.5874C17.0193 16.3768 16.7961 17.1183 16.4419 17.7819C16.074 18.4682 15.5645 19.0806 14.9424 19.5846C14.3247 20.0855 13.603 20.475 12.8184 20.7204C12.0623 20.957 11.2408 21.0625 10.39 21.0089C9.54039 20.9554 8.74267 20.7481 8.02769 20.4187L8.00901 20.4107C6.52856 19.7239 5.39204 18.5083 4.8634 17.0525L4.85657 17.0351C4.60671 16.3377 4.49567 15.5813 4.55281 14.798C4.61049 14.008 4.83384 13.2665 5.18854 12.6024C5.5555 11.9161 6.06446 11.3037 6.68633 10.8002ZM14.7045 24.2725V29.4965C14.7045 29.7725 14.4596 30 14.1624 30H9.48793C9.19072 30 8.94581 29.7735 8.94581 29.4965V24.8152C9.31947 24.877 9.70643 24.9213 10.1055 24.9465C10.7828 24.9889 11.4699 24.9663 12.1561 24.8842C12.8392 24.8034 13.5121 24.6603 14.165 24.4569C14.3465 24.4002 14.5263 24.3388 14.7045 24.2725ZM24.108 19.1996V29.4965C24.108 29.7723 23.8626 30 23.5657 30H18.8914C18.5946 30 18.3491 29.7735 18.3491 29.4965V22.0125C19.1166 21.2814 19.7564 20.4434 20.2453 19.5287C20.5524 18.9559 20.7979 18.3562 20.9781 17.7385C21.0945 17.3378 21.1828 16.9304 21.2426 16.5191L22.4905 17.8085C22.5424 17.862 22.5958 17.9143 22.6507 17.9652C23.1487 18.4278 23.6314 18.8391 24.108 19.1996ZM33.5114 19.9664V29.4965C33.5114 29.7723 33.2663 30 32.9694 30H28.2948C27.9981 30 27.7528 29.7735 27.7528 29.4965V20.9613C28.2985 21.0739 28.8638 21.1268 29.4598 21.12C30.9496 21.1032 32.2373 20.7178 33.5114 19.9664Z" fill="white"/>
</svg>
