<svg width="32" height="20" viewBox="0 0 32 20" fill="none" xmlns="http://www.w3.org/2000/svg">
<path d="M28.4444 0H3.55556C2.61256 0 1.70819 0.324175 1.0414 0.90121C0.374602 1.47824 0 2.26087 0 3.07692L0 16.9231C0 17.7391 0.374602 18.5218 1.0414 19.0988C1.70819 19.6758 2.61256 20 3.55556 20H28.4444C29.3874 20 30.2918 19.6758 30.9586 19.0988C31.6254 18.5218 32 17.7391 32 16.9231V3.07692C32 2.26087 31.6254 1.47824 30.9586 0.90121C30.2918 0.324175 29.3874 0 28.4444 0Z" fill="#006C35"/>
<path d="M7.92842 6.96105C8.4902 7.00721 8.17998 6.13874 8.38353 5.98105C8.42176 5.90336 8.49287 5.90259 8.4982 6.00105V6.73797C8.49287 6.97797 8.67509 7.04797 8.81642 7.09797C8.96398 7.08797 9.06176 7.09259 9.11953 7.21644L9.18887 8.49182C9.18887 8.49182 9.5302 8.57644 9.5462 7.77413C9.56309 7.30336 9.43776 6.90951 9.51153 6.81797C9.5142 6.72797 9.64664 6.72259 9.73909 6.76644C9.88576 6.85567 9.95153 6.96644 10.1791 6.92259C10.5266 6.84028 10.7346 6.69413 10.74 6.46336C10.7195 6.24413 10.6911 6.0249 10.5818 5.80567C10.5969 5.76567 10.5151 5.66259 10.5302 5.62259C10.5924 5.70721 10.6875 5.70028 10.7089 5.62259C10.6502 5.45413 10.5586 5.29259 10.4093 5.22259C10.2866 5.12874 10.1071 5.14797 10.0413 5.34336C10.0111 5.56797 10.1355 5.83567 10.324 6.05336C10.364 6.13874 10.4209 6.28028 10.396 6.40797C10.2955 6.45721 10.1942 6.43721 10.1106 6.36028C10.1106 6.36028 9.8342 6.18105 9.8342 6.14105C9.90798 5.7349 9.85109 5.68874 9.8102 5.57644C9.78176 5.42105 9.69642 5.37105 9.62709 5.2649C9.55776 5.20182 9.46442 5.20182 9.41998 5.2649C9.29731 5.44797 9.3542 5.84182 9.44309 6.01797C9.5062 6.17951 9.60398 6.28182 9.55776 6.28182C9.51953 6.37336 9.44131 6.35182 9.38442 6.24644C9.30264 6.02797 9.28664 5.70259 9.28664 5.55567C9.26176 5.37413 9.23509 4.98567 9.09731 4.88721C9.01287 4.78797 8.88753 4.83567 8.84398 4.92721C8.83509 5.10721 8.83331 5.28797 8.85731 5.4549C8.95153 5.74644 8.98176 6.00336 9.02798 6.30259C9.04042 6.70336 8.76042 6.47644 8.77287 6.27797C8.83776 6.02028 8.82087 5.61413 8.76309 5.51105C8.71776 5.40874 8.66353 5.38259 8.55331 5.39951C8.4662 5.39336 8.24042 5.60721 8.17642 5.96105C8.17642 5.96105 8.1222 6.14336 8.09909 6.30567C8.06798 6.48874 7.92931 6.61797 7.83153 6.28028C7.74709 6.0349 7.69553 5.42951 7.5542 5.57105C7.51331 6.04413 7.46442 6.87644 7.92842 6.96105Z" fill="white"/>
<path d="M8.77452 7.30664C8.3123 7.31433 7.63585 7.83203 7.61719 8.11895C8.1043 7.91587 8.58341 7.72049 9.07941 7.51126C8.99941 7.40741 9.07497 7.31433 8.77452 7.30664Z" fill="white"/>
<path d="M11.3219 8.85832C11.5362 8.24063 11.2873 7.78524 11.4037 7.78755C11.6499 8.01755 11.9948 7.81832 12.0704 7.73832C12.1033 7.69832 12.1842 7.67217 12.241 7.72447C12.4339 7.84447 12.7735 7.78755 12.8437 7.57678C12.8881 7.36509 12.9154 7.15099 12.9255 6.93601C12.7682 6.97832 12.6508 7.00678 12.6402 7.06294L12.6073 7.24601C12.5939 7.30524 12.4579 7.30755 12.4526 7.23217C12.393 6.99755 12.1459 6.96678 11.9966 7.33063C11.8962 7.4014 11.7148 7.41524 11.6953 7.30986C11.7193 7.06601 11.6055 7.03294 11.3779 7.14755C11.305 6.6637 11.2313 6.2014 11.1584 5.71755C11.2535 5.71524 11.3406 5.77601 11.4268 5.68217C11.3317 5.42601 11.1308 4.90294 11.0197 4.86524C10.9655 4.80832 10.9193 4.8437 10.849 4.85832C10.7299 4.8914 10.6188 4.98063 10.6535 5.1537C10.7948 5.89601 10.8873 6.4614 11.0277 7.2037C11.049 7.29063 10.9655 7.40524 10.857 7.3937C10.673 7.28601 10.6268 7.06755 10.3122 7.07678C10.0837 7.07909 9.82327 7.29294 9.79127 7.49986C9.75304 7.6637 9.73971 7.84217 9.79127 7.98601C9.95127 8.15217 10.1442 8.13601 10.3122 8.09832C10.4499 8.04909 10.5646 7.92909 10.6126 7.95755C10.6455 7.99217 10.6206 8.38678 9.96193 8.68986C9.56282 8.84447 9.24549 8.87986 9.07482 8.59832C8.96904 8.42217 9.08282 7.75294 8.82238 7.90832C8.05171 9.62755 10.6268 9.86601 10.9148 7.97909C10.9424 7.9014 11.0508 7.8237 11.0695 7.95063C11.0099 9.65986 9.07749 9.77755 8.74949 9.23986C8.66771 9.11293 8.64371 8.8314 8.63571 8.66217C8.58682 8.32601 8.38327 8.45524 8.35127 8.78832C8.31838 8.9737 8.32727 9.02601 8.32727 9.2037C8.42949 10.5537 10.9184 9.9737 11.3219 8.85832ZM10.3619 7.69063C10.3459 7.71678 10.2757 7.70601 10.2242 7.70601C10.1655 7.7037 10.1379 7.69524 10.1024 7.65447C10.0864 7.60832 10.1362 7.56447 10.1584 7.52986C10.1859 7.48909 10.3344 7.44678 10.3868 7.56063C10.3965 7.58224 10.3993 7.60571 10.395 7.62858C10.3906 7.65145 10.3792 7.67288 10.3619 7.69063Z" fill="white"/>
<path d="M12.0907 6.15978C12.2453 6.11054 12.9787 5.38516 12.9787 5.38516C12.9404 5.3567 12.9067 5.33593 12.8684 5.30747C12.8275 5.2767 12.832 5.24593 12.8684 5.21593C13.0498 5.12439 12.992 4.92362 12.8969 4.83208C12.8354 4.80597 12.7676 4.79264 12.6991 4.79318C12.6306 4.79371 12.5632 4.80809 12.5022 4.83516C12.3751 4.94054 12.3449 5.10978 12.4453 5.21593C12.5431 5.25593 12.6409 5.34131 12.576 5.38824C12.2764 5.66516 11.4551 6.14285 11.5502 6.15978C11.5707 6.18285 12.0747 6.18208 12.0907 6.15978ZM12.6338 5.02055C12.6809 5.01054 12.7413 5.0467 12.7698 5.10055C12.7982 5.15439 12.7831 5.20593 12.7369 5.21593H12.7351C12.6889 5.22593 12.6284 5.18978 12.6 5.13593C12.5724 5.08131 12.5875 5.03054 12.6338 5.02055ZM7.87732 9.42824C7.75643 9.64131 7.70577 9.49516 7.6951 9.37593C7.68121 9.17569 7.69283 8.97474 7.72977 8.7767C7.75999 8.60747 7.72977 8.65901 7.66754 8.72747C7.39288 9.10593 7.36888 9.67208 7.52088 9.84055C7.60088 9.92055 7.73332 9.95593 7.83199 9.92978C8.00443 9.86516 8.07999 9.56208 8.0391 9.45208C7.98043 9.37439 7.9351 9.36208 7.87732 9.42824ZM16.9271 5.42208C17.2435 5.78978 17.544 6.16439 17.8382 6.54593C17.896 6.8767 17.9378 7.19978 17.9627 7.52054C18.0115 8.13901 18.0258 8.80824 17.9813 9.45978C18.1147 9.46439 18.3307 9.27208 18.4053 8.99131C18.4542 8.60285 18.3875 7.91131 18.3831 7.68208C18.3772 7.53841 18.3692 7.39481 18.3591 7.25131C18.7093 7.7467 19.0507 8.26516 19.384 8.84131C19.5058 8.79208 19.4791 8.20285 19.408 8.11978C19.1413 7.62516 18.7742 7.13593 18.6569 6.94824C18.6133 6.87901 18.4649 6.68208 18.288 6.4567C18.2728 6.27681 18.2479 6.09764 18.2133 5.91978C18.1582 5.59054 18.3707 5.95593 18.3413 5.76439C18.2729 5.43516 18.0613 5.21285 17.8142 4.91131C17.7342 4.81362 17.7369 4.79362 17.6133 4.93516C17.5696 5.01995 17.5496 5.11243 17.5547 5.20516C17.5161 5.15607 17.4748 5.10858 17.4311 5.06285C17.297 4.96269 17.1621 4.8632 17.0267 4.76439C16.9369 4.70901 16.7182 4.60901 16.6791 4.77516C16.6609 4.89163 16.6675 5.00999 16.6987 5.12439C16.7218 5.2067 16.8595 5.34362 16.9271 5.42208ZM17.5849 5.40362C17.6018 5.46747 17.6195 5.53131 17.6311 5.5967L17.6444 5.65901C17.6071 5.61391 17.5683 5.56979 17.528 5.5267C17.3822 5.37747 17.5031 5.40978 17.5849 5.40362Z" fill="white"/>
<path d="M19.4843 8.99436C19.175 9.27359 18.7288 9.61744 18.2434 9.77667C18.191 9.82744 18.3732 10.0451 18.6079 10.0451C19.0017 10.0051 19.3483 9.81359 19.6692 9.30975C19.7554 9.19282 19.9065 8.94129 19.9101 8.7459C19.9394 7.60282 19.8443 6.71282 19.6461 5.88667C19.6328 5.82038 19.6365 5.75238 19.6568 5.68744C19.6817 5.66129 19.7688 5.68744 19.815 5.62282C19.8817 5.56282 19.6363 5.07052 19.4959 4.88129C19.4461 4.79667 19.4292 4.73975 19.3465 4.89129C19.2594 5.01436 19.2017 5.22898 19.2088 5.42898C19.3963 6.55436 19.4541 7.53975 19.5768 8.66513C19.5865 8.77359 19.5679 8.93206 19.4843 8.99436ZM24.6665 6.14052C24.6532 6.06052 24.6123 5.87436 24.6283 5.85052C24.6532 5.79359 24.7821 5.85667 24.8283 5.79129C24.8959 5.73206 24.4959 5.28744 24.3563 5.09821C24.3057 5.01359 24.2888 4.95667 24.2061 5.10821C24.119 5.23129 24.0888 5.45206 24.1234 5.6459C24.3323 6.86821 24.4879 7.78667 24.5199 8.87052C24.5012 8.97359 24.4977 9.02898 24.4417 9.15821C24.3181 9.29513 24.1821 9.4659 24.0532 9.54898C23.9252 9.63129 23.6523 9.71052 23.5625 9.77129C23.2808 9.91359 23.2799 10.0759 23.5092 10.0813C23.9021 10.0413 24.3679 10.0136 24.6888 9.59359C24.775 9.47667 24.8772 9.15898 24.8817 8.96359C24.911 7.82052 24.8648 6.96667 24.6665 6.14052ZM21.6879 7.09206C21.6914 6.93513 21.7083 6.72744 21.7181 6.59744C21.7225 6.54898 21.7359 6.49436 21.7892 6.48206C21.8434 6.46975 21.9394 6.52975 21.9403 6.47898C21.9297 6.37975 21.9065 6.23205 21.8417 6.16205C21.7528 6.04821 21.5172 6.0759 21.4754 6.25436C21.4763 6.32052 21.511 6.3559 21.5048 6.4159C21.4941 6.44975 21.4532 6.47282 21.3563 6.43282C21.3723 6.42052 21.2932 6.3259 21.2932 6.3259C21.2177 6.2859 21.1163 6.32821 21.0514 6.36436C21.028 6.40315 21.0139 6.4457 21.0103 6.48937C21.0066 6.53304 21.0134 6.57689 21.0301 6.61821C21.1368 6.79282 21.5092 7.08898 21.6879 7.09206Z" fill="white"/>
<path d="M21.5628 5.75348C21.8232 6.02963 22.089 6.30963 22.3566 6.59425C22.4144 7.22963 22.4295 7.74963 22.4864 8.38502C22.4784 8.65425 22.3824 8.88886 22.2908 8.92271C22.2908 8.92271 22.153 8.99194 22.0606 8.91579C21.993 8.89194 21.7237 8.52733 21.7237 8.52733C21.5859 8.4181 21.4952 8.44886 21.3975 8.52733C21.1272 8.75271 21.0055 9.17579 20.8224 9.46656C20.7744 9.53194 20.641 9.58733 20.4926 9.46194C20.1166 9.01656 20.337 8.38348 20.2908 8.54656C19.9557 8.87348 20.1032 9.41425 20.1788 9.53117C20.289 9.72194 20.3788 9.84502 20.5939 9.93963C20.7895 10.0642 20.9424 9.98579 21.0259 9.89887C21.2232 9.72117 21.2259 9.27117 21.3184 9.1804C21.3824 9.01656 21.5468 9.04425 21.6259 9.11733C21.6984 9.2058 21.7944 9.27784 21.9059 9.32733C22.0899 9.4681 22.3095 9.49348 22.5255 9.36502C22.673 9.29348 22.7699 9.2004 22.8561 9.01656C22.9521 8.79502 22.8997 7.77656 22.8801 7.16579C23.0179 7.31963 23.1521 7.4804 23.2881 7.64117C23.3477 8.15117 23.3815 8.65886 23.3619 9.17733C23.3477 9.28117 23.7797 8.86963 23.7761 8.67425C23.7744 8.51656 23.7761 8.37348 23.7761 8.23886C23.9841 8.50963 24.1868 8.78887 24.377 9.08425C24.4961 9.0304 24.457 8.44963 24.3815 8.36963C24.1619 8.05117 23.8695 7.71963 23.6677 7.48271C23.6544 7.45271 23.6472 7.41887 23.6312 7.3904C23.5504 7.2281 23.601 7.09733 23.5628 6.92502C23.5255 6.75194 23.5352 6.49348 23.4775 6.2881C23.4615 6.2081 23.4135 5.95117 23.4277 5.92733C23.4508 5.86963 23.5397 5.92887 23.5832 5.86271C23.6481 5.80117 23.3584 5.15117 23.2108 4.96502C23.1575 4.88194 23.0615 4.9104 22.9424 5.04579C22.833 5.13502 22.8739 5.3381 22.9157 5.53117C23.0197 5.99887 23.1068 6.44733 23.1815 6.89117C23.0216 6.70727 22.8601 6.52445 22.697 6.34271L22.6899 6.30887C22.6899 6.3004 22.6659 5.90579 22.6446 5.81194C22.641 5.77425 22.6304 5.76271 22.6766 5.76733C22.7255 5.80271 22.7317 5.80502 22.7628 5.81733C22.8126 5.82502 22.8561 5.75194 22.8268 5.68502L22.3672 4.95271C22.3308 4.92117 22.2828 4.88733 22.225 4.96117C22.1891 4.98829 22.1604 5.02176 22.1408 5.05931C22.1212 5.09687 22.1111 5.13764 22.1112 5.17887C22.1255 5.35194 22.1601 5.52887 22.1735 5.70271L22.193 5.79656C22.1726 5.77579 22.1477 5.74963 22.137 5.7404C21.7468 5.38502 22.3166 5.68271 22.0624 5.4081C21.8472 5.20348 21.785 5.13963 21.6001 5.01656C21.5077 4.96502 21.4517 4.86656 21.4215 5.03425C21.4063 5.18129 21.4018 5.32903 21.4081 5.47656C21.4081 5.54733 21.4908 5.67656 21.5628 5.75348ZM13.6508 6.58348C13.8748 6.66348 14.0179 6.29425 14.1104 5.88963C14.1726 5.77579 14.2206 5.76348 14.2526 5.82194C14.2446 6.3604 14.297 6.47963 14.457 6.64348C14.8135 6.88194 15.1086 6.67348 15.1326 6.65348L15.4099 6.41348C15.4712 6.35733 15.5539 6.35348 15.641 6.40348C15.7264 6.46963 15.7148 6.58502 15.8961 6.66502C16.049 6.7181 16.3761 6.67733 16.4517 6.56348C16.5539 6.41271 16.5788 6.3604 16.625 6.30348C16.6979 6.21963 16.8224 6.25733 16.8224 6.28348C16.8108 6.3304 16.7379 6.37733 16.7877 6.46117C16.8748 6.51733 16.8944 6.48117 16.9459 6.46887C17.1272 6.39348 17.2624 6.05348 17.2624 6.05348C17.2704 5.92656 17.1886 5.93733 17.1352 5.96348C17.0659 5.99963 17.0615 6.01194 16.9921 6.04886C16.9032 6.0604 16.7317 6.11117 16.6472 5.99733C16.5601 5.8604 16.5584 5.66963 16.4926 5.53194C16.4926 5.52194 16.377 5.31425 16.4846 5.30117C16.5388 5.30963 16.6535 5.33579 16.6721 5.25271C16.7281 5.17117 16.5504 4.93887 16.4295 4.82117C16.3237 4.72117 16.177 4.70886 16.0357 4.81117C15.9361 4.8904 15.9504 4.9781 15.9308 5.06194C15.9147 5.12111 15.9147 5.18272 15.9309 5.24188C15.9471 5.30104 15.979 5.35611 16.0241 5.40271C16.1228 5.57117 16.3032 5.78887 16.2437 6.09348C16.2437 6.09348 16.1388 6.2381 15.9548 6.21963C15.8784 6.20502 15.7539 6.17656 15.6881 5.75348C15.6384 5.43271 15.7006 4.98425 15.5432 4.77425C15.4864 4.64733 15.4455 4.52502 15.3068 4.74194C15.2695 4.82733 15.1095 4.95656 15.2259 5.22348C15.321 5.39194 15.3592 5.66656 15.3166 5.97271C15.2508 6.05963 15.2366 6.08886 15.1504 6.17579C15.0295 6.2881 14.8988 6.25963 14.7984 6.21733C14.7041 6.16271 14.6312 6.13425 14.5886 5.9604C14.5966 5.68348 14.6144 5.22963 14.5557 5.13348C14.4695 4.98425 14.3272 5.0381 14.2659 5.08348C13.9735 5.31502 13.8295 5.70502 13.7415 6.01502C13.6606 6.24117 13.5744 6.17656 13.5139 6.08502C13.3664 5.96502 13.3566 5.02886 13.1779 5.18348C12.8908 5.88656 13.3397 6.65887 13.6508 6.58348Z" fill="white"/>
<path d="M17.8982 8.09528L17.8128 8.05297L16.1408 8.04605C16.0546 8.01759 16.0804 7.99297 16.1408 7.97297C16.5399 7.92605 17.2502 7.82605 17.2973 7.23605C17.2893 6.92912 17.1444 6.72758 16.7088 6.6722C16.3897 6.69374 16.1613 6.9622 16.1977 7.25682C16.1826 7.33682 16.2279 7.4922 16.1346 7.50989C15.5204 7.55835 14.851 7.89066 14.8288 8.12912C14.7915 8.15143 14.7079 8.08682 14.7186 7.98528C14.689 7.55094 14.5446 7.12828 14.2964 6.74989C14.1026 6.5822 14.163 6.63759 14.0333 6.71682C13.9497 6.79989 13.9346 6.85682 13.939 7.0222C13.939 7.02835 14.0955 7.40605 14.2279 7.67066C14.3159 7.9422 14.3986 8.2522 14.339 8.54528C14.1328 8.93297 13.7177 9.28066 13.3177 9.46912C13.1115 9.52682 12.9346 9.50605 12.891 9.46605C12.7639 9.3922 12.7702 9.25605 12.7799 9.25374C13.1168 9.04989 13.5026 8.88605 13.8048 8.33758C13.8937 8.12835 13.9204 8.00143 13.8324 7.67758C13.8079 7.56346 13.7473 7.45746 13.6573 7.37143C13.7115 7.34066 13.867 7.44297 13.891 7.3822C13.846 7.20494 13.744 7.04229 13.5968 6.91297C13.4768 6.81835 13.3462 6.80759 13.2359 6.89451C13.1115 6.95451 13.0848 7.16835 13.1444 7.35605C13.2102 7.49758 13.3888 7.52143 13.5168 7.80528C13.5168 7.81143 13.563 8.01759 13.4973 8.09835C13.4448 8.23989 12.7648 8.7022 12.7275 8.72297C12.7088 8.74297 12.7168 8.71297 12.7142 8.63605C12.7097 8.5422 12.7577 8.32066 12.7444 8.31912C12.523 8.44297 12.4493 8.8222 12.4093 8.93451C11.8493 9.26912 11.2155 9.51835 10.8493 9.85835C10.6582 10.116 12.163 9.5622 12.3382 9.49528C12.3773 9.51989 12.3728 9.63605 12.4777 9.73989C12.6342 9.92297 12.9648 10.036 13.2893 9.96605C13.8315 9.79605 14.1453 9.47605 14.4635 9.12143C14.5088 9.06374 14.5799 9.01989 14.6457 9.06374C14.8644 9.48759 15.4964 9.78758 16.3115 9.81912C16.5008 9.61989 16.4093 9.52374 16.3328 9.4822C16.3328 9.47605 15.9302 9.34374 15.8688 9.21143C15.8315 9.09143 15.9222 8.98605 16.1035 8.90605C16.627 8.85143 17.1417 8.79066 17.6404 8.6522C17.6457 8.50758 17.7426 8.29066 17.8093 8.19682C17.8733 8.10143 17.9079 8.12989 17.8982 8.09528ZM16.523 7.19374C16.5479 7.15758 16.6306 7.15912 16.7079 7.19835C16.7853 7.23682 16.8288 7.29835 16.803 7.33451C16.7782 7.37143 16.6946 7.36912 16.6173 7.32989C16.5399 7.29143 16.4982 7.23066 16.523 7.19374ZM15.8502 8.65528C15.6706 8.70835 15.4982 8.74989 15.4982 8.97451C15.5648 9.28682 15.4066 9.17989 15.3133 9.13682C15.203 9.06835 14.8928 8.90297 14.8484 8.54605C14.8413 8.46066 14.9186 8.38912 15.0422 8.38912C15.2279 8.43297 15.5026 8.43605 15.7408 8.45758C15.9355 8.46835 16.0324 8.60066 15.8502 8.65528ZM9.65727 5.18989C9.84927 5.26989 10.2119 5.23605 10.1959 4.96682C10.1959 4.94297 10.1888 4.86297 10.1862 4.84143C10.147 4.7622 10.0404 4.78143 10.0155 4.86374C10.0075 4.89066 10.0288 4.93374 10.0013 4.94759C9.98527 4.96143 9.92394 4.95297 9.9266 4.87912C9.9266 4.85528 9.90616 4.82989 9.8946 4.81528C9.88216 4.80835 9.87505 4.80605 9.85283 4.80605C9.82616 4.80682 9.82616 4.81297 9.81194 4.83297C9.80572 4.8522 9.79683 4.8722 9.79683 4.89451C9.79327 4.92066 9.78172 4.92989 9.75949 4.93451C9.7346 4.93451 9.73994 4.93682 9.72038 4.92528C9.70794 4.91374 9.69283 4.90912 9.69283 4.88989C9.69275 4.86741 9.68855 4.84508 9.68038 4.82374C9.66972 4.81143 9.65283 4.80605 9.63327 4.80143C9.52838 4.80143 9.52127 4.90528 9.52749 4.94528C9.51772 4.9522 9.51416 5.13835 9.65727 5.18989Z" fill="white"/>
<path d="M15.5653 6.94356C15.5653 6.91971 15.5448 6.8951 15.5333 6.87971C15.5208 6.87279 15.5137 6.87048 15.4915 6.87048C15.4648 6.87125 15.4657 6.8774 15.4506 6.8974C15.4444 6.9174 15.4355 6.93664 15.4355 6.95894C15.4328 6.98587 15.4204 6.9951 15.3982 6.99894C15.3733 6.99894 15.3786 7.00125 15.3582 6.99048C15.3457 6.97894 15.3306 6.97433 15.3306 6.9551C15.3306 6.93261 15.3264 6.91027 15.3182 6.88894C15.3075 6.87664 15.2906 6.87125 15.2711 6.8674C15.1662 6.8674 15.1591 6.97125 15.1644 7.01048C15.1564 7.01817 15.1519 7.20356 15.2951 7.25587C15.4879 7.3351 15.9457 7.28894 15.8337 7.03279C15.8319 6.99067 15.8286 6.9486 15.8239 6.90664C15.7848 6.8274 15.6773 6.8474 15.6533 6.92894C15.6462 6.95587 15.6675 6.99894 15.6391 7.01279C15.6248 7.02663 15.5626 7.01817 15.5653 6.94356ZM18.5848 6.39971C18.7768 6.47971 19.1386 6.44587 19.1226 6.1774C19.1207 6.13528 19.1175 6.09321 19.1128 6.05125C19.0737 5.97202 18.9671 5.99202 18.9431 6.07356C18.9351 6.10048 18.9564 6.14356 18.9279 6.1574C18.9119 6.17125 18.8506 6.16356 18.8533 6.08894C18.8533 6.0651 18.8328 6.03971 18.8213 6.0251C18.8088 6.01817 18.8017 6.01587 18.7786 6.01587C18.7519 6.0174 18.7528 6.02279 18.7377 6.04279C18.7315 6.06279 18.7226 6.08202 18.7226 6.10433C18.7191 6.13125 18.7075 6.14048 18.6853 6.14433C18.6604 6.14433 18.6657 6.14664 18.6453 6.13587C18.6328 6.12433 18.6186 6.11971 18.6186 6.10048C18.6185 6.07775 18.6143 6.05517 18.6062 6.03356C18.5946 6.02125 18.5786 6.01587 18.5582 6.01202C18.4533 6.01202 18.4462 6.11587 18.4524 6.1551C18.4462 6.16279 18.4417 6.34817 18.5848 6.39971ZM18.7146 5.35971C18.7831 5.52587 18.6622 5.68433 18.7342 5.7074C18.7991 5.73356 18.8915 5.53587 18.9253 5.35356C18.9653 5.20587 18.8435 4.90356 18.6711 4.84125C18.5662 4.81971 18.4168 4.87356 18.4648 4.9951C18.4408 5.05356 18.6764 5.25202 18.7146 5.35971ZM20.4879 9.2551C20.6222 9.25587 20.7768 8.98971 20.8426 8.72587C20.8791 8.36279 20.8177 8.14202 20.8071 7.92817C20.7955 7.7151 20.5288 6.08817 20.4737 5.92664C20.4088 5.62125 20.7342 5.88587 20.6986 5.70817C20.5857 5.48433 20.3057 5.15894 20.2168 4.96433C20.1635 4.88125 20.1866 4.8074 20.0675 4.94279C19.9582 5.25433 19.9199 5.50817 19.9617 5.70202C20.2444 6.97894 20.5342 8.04048 20.4879 9.2551ZM23.8266 5.91664C23.8577 5.99971 23.7795 6.26817 23.8444 6.29279C23.9039 6.32048 23.9875 6.1074 24.0186 5.90971C24.0355 5.80125 23.9439 5.42279 23.7866 5.3551C23.6906 5.33202 23.5546 5.38971 23.5991 5.52202C23.5768 5.58587 23.7919 5.79971 23.8266 5.91664ZM12.1653 8.72894C12.2231 8.74971 12.3022 8.59279 12.3324 8.4474C12.3493 8.3674 12.2604 8.08971 12.1102 8.03971C12.0177 8.02279 11.8915 8.04433 11.9306 8.16279C11.9262 8.22664 12.1351 8.30356 12.1475 8.45202C12.1777 8.51356 12.1031 8.71125 12.1653 8.72894ZM8.1155 5.17894C8.14484 5.24279 8.08617 5.44664 8.1475 5.46587C8.2035 5.4874 8.28261 5.32433 8.31195 5.17433C8.32884 5.09125 8.3155 4.80971 8.09328 4.75202C8.00173 4.73433 7.87461 4.77817 7.91639 4.87894C7.89506 4.92664 8.08261 5.08971 8.1155 5.17894ZM12.4728 6.08125C12.3031 6.16125 12.2364 6.39817 12.3431 6.53587C12.4417 6.65817 12.5982 6.61279 12.6195 6.61279C12.7866 6.63048 12.8853 6.34202 12.8853 6.34202C12.8853 6.34202 12.8906 6.26125 12.6924 6.41433C12.6088 6.42817 12.5982 6.40125 12.5777 6.35971C12.5575 6.28443 12.5665 6.20547 12.6035 6.1351C12.6319 6.06356 12.5679 6.03202 12.4728 6.08125ZM13.7546 5.19433C13.782 5.17968 13.8055 5.16018 13.8236 5.13711C13.8417 5.11404 13.8539 5.08793 13.8595 5.06048C13.8853 4.94817 13.7217 5.11356 13.7013 4.98817C13.6648 4.87202 13.7697 4.82433 13.8693 4.71202C13.8728 4.63433 13.8711 4.57971 13.7493 4.64279C13.6639 4.69279 13.4933 4.8451 13.4879 5.02048C13.4826 5.11971 13.4613 5.11894 13.5368 5.18202C13.5911 5.25048 13.6453 5.24356 13.7546 5.19433ZM14.9093 5.25433C15.0195 4.99587 15.0195 4.88664 15.0275 4.77664C14.9937 4.60971 14.8631 4.6151 14.7768 4.80048C14.7395 4.87048 14.6959 5.23894 14.7031 5.23894C14.6737 5.34894 14.8355 5.39587 14.9093 5.25433ZM22.1715 7.0874C22.1715 7.0874 21.2799 7.63587 21.2586 7.6551C21.1697 7.72279 21.2142 7.96279 21.2586 7.9351C21.3217 7.95663 22.2186 7.42971 22.2008 7.36817C22.2426 7.36971 22.2631 7.05971 22.1715 7.0874ZM22.0622 8.5751C22.1217 8.60279 22.2791 8.43433 22.2728 8.22433C22.2906 8.11587 22.2275 7.71817 22.0711 7.65048C21.9751 7.6274 21.8471 7.69817 21.8915 7.82971C21.8693 7.89279 22.0017 8.11356 22.0364 8.23048C22.0675 8.31433 21.9973 8.55048 22.0622 8.5751ZM17.0133 9.72586C17.0133 9.73279 17.0888 9.78894 17.1777 9.74433C17.3644 9.68202 17.4817 9.62202 17.7431 9.57202C17.8115 9.57125 17.8071 9.41202 17.6986 9.40663C17.5573 9.41279 17.4257 9.41894 17.2844 9.51587C17.1973 9.53279 17.1831 9.4874 17.1635 9.44587C17.1422 9.34356 17.2124 9.27279 17.1973 9.19663C17.2026 9.20125 17.1164 9.13279 17.0284 9.17125C17.0239 9.17125 16.8319 9.28356 16.7706 9.36202C16.7324 9.3874 16.7368 9.40894 16.7484 9.45125C16.7777 9.50971 16.8302 9.49202 16.8888 9.46433C16.9671 9.4551 17.0044 9.49971 16.9982 9.58048C16.9608 9.68279 17.0133 9.72048 17.0133 9.72586ZM22.8364 9.85356C22.8071 9.8974 22.7875 9.96356 22.8782 9.98433C23.0453 10.0251 23.4302 9.80817 23.4302 9.80433C23.4924 9.76356 23.4719 9.6874 23.4666 9.6874C23.4302 9.65125 23.3484 9.67202 23.2933 9.66663C23.2675 9.66663 23.1804 9.6551 23.2222 9.58894C23.2515 9.55328 23.2749 9.51417 23.2915 9.47279C23.3173 9.42279 23.2951 9.38971 23.2008 9.36279C23.1057 9.3474 23.0675 9.3551 22.9617 9.36279C22.9048 9.37356 22.8853 9.3951 22.8746 9.4551C22.8791 9.54587 22.9422 9.54125 23.0079 9.5774C23.0462 9.61971 23.0711 9.65817 23.0053 9.72663C22.9431 9.77663 22.8995 9.80433 22.8364 9.85356ZM22.6657 13.8459H21.3324V13.4612C21.3324 13.3592 21.2856 13.2614 21.2022 13.1893C21.1189 13.1172 21.0058 13.0766 20.8879 13.0766C20.7701 13.0766 20.657 13.1172 20.5737 13.1893C20.4903 13.2614 20.4435 13.3592 20.4435 13.4612V13.8459H9.77684C9.77684 13.8459 9.77684 14.6151 12.4435 14.6151H20.4435V14.9997C20.4435 15.1017 20.4903 15.1995 20.5737 15.2717C20.657 15.3438 20.7701 15.3843 20.8879 15.3843C21.0058 15.3843 21.1189 15.3438 21.2022 15.2717C21.2856 15.1995 21.3324 15.1017 21.3324 14.9997V14.6151H22.2213V14.9997C22.2213 15.1017 22.2681 15.1995 22.3515 15.2717C22.4348 15.3438 22.5478 15.3843 22.6657 15.3843C22.7836 15.3843 22.8966 15.3438 22.98 15.2717C23.0633 15.1995 23.1102 15.1017 23.1102 14.9997V14.2305C23.1102 14.1285 23.0633 14.0306 22.98 13.9585C22.8966 13.8864 22.7836 13.8459 22.6657 13.8459Z" fill="white"/>
</svg>
