<svg width="22" height="22" viewBox="0 0 22 22" fill="none" xmlns="http://www.w3.org/2000/svg">
<path d="M19.2923 18.9335L16.4622 15.0679C17.7877 12.6407 18.1101 9.69401 17.3399 6.93715C17.2682 6.67744 17.0175 6.5376 16.7846 6.61751C16.5517 6.69742 16.4174 6.9771 16.498 7.23681C17.2234 9.81387 16.8831 12.5707 15.5576 14.8182L15.5307 14.8581C15.4412 15.0379 15.4501 15.2577 15.5665 15.4175L18.6027 19.5528C18.6027 19.5528 18.6475 19.6127 18.6564 19.6127C18.9072 19.9324 18.9072 20.3818 18.6654 20.7115C18.6564 20.7215 18.6564 20.7314 18.6475 20.7314L18.5848 20.8014C18.2982 21.0711 17.8772 21.0711 17.5817 20.7814C17.5638 20.7614 17.5548 20.7514 17.5369 20.7314L13.829 17.3553C13.6768 17.2154 13.4618 17.2055 13.3006 17.3253L13.2648 17.3553C10.1391 19.6327 5.95655 19.1732 3.28761 16.2565C3.2697 16.2266 3.26074 16.1966 3.24283 16.1766C0.126073 12.7206 0.126073 7.07699 3.23387 3.61093C6.34167 0.144879 11.4019 0.144879 14.5097 3.61093C14.5276 3.63091 14.5545 3.65089 14.5814 3.66088C14.5903 3.67087 14.6082 3.69084 14.6172 3.70083C14.7694 3.91059 15.056 3.94056 15.2441 3.76076C15.4322 3.59096 15.4591 3.27132 15.2979 3.06156C15.262 3.01162 15.2083 2.95168 15.1546 2.89175C11.7064 -0.943882 6.0909 -0.973847 2.6159 2.86179C2.60694 2.87177 2.58903 2.88176 2.58007 2.90174C1.14708 4.49992 0.25146 6.6275 0.0454675 8.87494C-0.0440944 9.85383 0.000686586 10.8327 0.161898 11.7816C0.502233 13.7294 1.34412 15.4974 2.60694 16.9058C5.49979 20.1221 10.0406 20.7115 13.5156 18.3542L16.9548 21.4906C16.9727 21.5106 16.9995 21.5405 17.0175 21.5605C17.3309 21.8602 17.7071 22 18.0832 22C18.4684 22 18.8535 21.8502 19.1669 21.5505L19.3192 21.3907C19.3461 21.3607 19.364 21.3308 19.3819 21.2908C19.8566 20.6016 19.8387 19.6427 19.3281 18.9734C19.3192 18.9635 19.3013 18.9435 19.2923 18.9335Z" fill="white"/>
<path d="M21.9069 0.304373C21.8173 0.164532 21.6651 0.084623 21.5039 0.1046L18.6289 0.444214C18.4677 0.464191 18.3334 0.574066 18.2707 0.733884C18.208 0.893702 18.2259 1.08349 18.3155 1.22333L18.9513 2.19222L8.84876 10.313C8.74129 10.3929 8.67859 10.5327 8.66964 10.6726L8.40095 14.5182L4.03033 9.75362C3.94077 9.65373 3.81538 9.60379 3.69 9.61377L2.40926 9.71366C2.16744 9.73364 1.97936 9.96338 1.99727 10.2431C2.01519 10.5128 2.23014 10.7225 2.47195 10.7025L3.55565 10.6226L8.46364 15.9665C8.54425 16.0564 8.66068 16.1064 8.77711 16.1064C8.83085 16.1064 8.88459 16.0964 8.92937 16.0764C9.09058 16.0065 9.19805 15.8467 9.21597 15.6569L9.54735 10.9922L19.4977 3.01129L20.044 3.85034C20.1246 3.98019 20.259 4.05011 20.4023 4.05011C20.4202 4.05011 20.4381 4.05011 20.447 4.05011C20.6082 4.03013 20.7426 3.92026 20.8053 3.76044L21.9696 0.813793C22.0233 0.633998 22.0054 0.454202 21.9069 0.304373ZM20.2948 2.5618L19.4977 1.34319L20.8411 1.18337L20.2948 2.5618Z" fill="white"/>
</svg>
