<svg width="117" height="117" viewBox="0 0 117 117" fill="none" xmlns="http://www.w3.org/2000/svg">
<g clip-path="url(#clip0_1247_5353)">
<path d="M34.5 55.0996C32.9 53.4996 30.3 53.4996 28.7 55.0996C27.1 56.6996 27.1 59.2996 28.7 60.8996L47.6 79.7996C48.4 80.5996 49.4 80.9996 50.5 80.9996C50.6 80.9996 50.6 80.9996 50.7 80.9996C51.8 80.8996 52.9 80.3996 53.7 79.4996L101 22.7996C102.4 21.0996 102.2 18.4996 100.5 16.9996C98.8 15.5996 96.2 15.7996 94.7 17.4996L50.2 70.7996L34.5 55.0996Z" fill="#17AB13"/>
<path d="M89.1002 9.29995C66.1002 -5.10005 36.6002 -1.70005 17.4002 17.5C-5.1998 40.1 -5.1998 77 17.4002 99.6C28.7002 110.9 43.6002 116.6 58.4002 116.6C73.2002 116.6 88.1002 110.9 99.4002 99.6C118.7 80.3 122 50.7 107.5 27.7C106.3 25.8 103.8 25.2 101.9 26.4C100 27.6 99.4002 30.1 100.6 32C113.1 51.7999 110.2 77.2 93.6002 93.8C74.2002 113.2 42.5002 113.2 23.1002 93.8C3.7002 74.4 3.7002 42.7 23.1002 23.3C39.7002 6.79995 65.0002 3.89995 84.8002 16.2C86.7002 17.4 89.2002 16.8 90.4002 14.9C91.6002 13 91.0002 10.5 89.1002 9.29995Z" fill="#D3D3D3"/>
</g>
<defs>
<clipPath id="clip0_1247_5353">
<rect width="117" height="117" fill="white"/>
</clipPath>
</defs>
</svg>
