<svg width="22" height="22" viewBox="0 0 22 22" fill="none" xmlns="http://www.w3.org/2000/svg">
<path d="M3.95357 3.89062H12.9243C13.2309 3.89062 13.4795 4.16818 13.4795 4.5104C13.4795 4.85263 13.2309 5.13018 12.9243 5.13018H3.95357C3.64704 5.13018 3.39844 4.85263 3.39844 4.5104C3.39844 4.16818 3.64695 3.89062 3.95357 3.89062ZM3.95357 6.56952H12.9243C13.2309 6.56952 13.4795 6.84708 13.4795 7.1893C13.4795 7.53152 13.2309 7.80908 12.9243 7.80908H3.95357C3.64704 7.80908 3.39844 7.53152 3.39844 7.1893C3.39844 6.84708 3.64695 6.56952 3.95357 6.56952ZM3.95357 9.24852H12.9243C13.2309 9.24852 13.4795 9.52607 13.4795 9.86829C13.4795 10.2105 13.2309 10.4881 12.9243 10.4881H3.95357C3.64704 10.4881 3.39844 10.2105 3.39844 9.86829C3.39844 9.52607 3.64695 9.24852 3.95357 9.24852ZM3.95357 11.9275H12.9243C13.2309 11.9275 13.4795 12.2051 13.4795 12.5473C13.4795 12.8895 13.2309 13.1671 12.9243 13.1671H3.95357C3.64704 13.1671 3.39844 12.8895 3.39844 12.5473C3.39844 12.2051 3.64695 11.9275 3.95357 11.9275Z" fill="white"/>
<path d="M3.95357 5.13018H12.9243C13.2309 5.13018 13.4795 4.85263 13.4795 4.5104C13.4795 4.16818 13.2309 3.89062 12.9243 3.89062H3.95357C3.64704 3.89062 3.39844 4.16818 3.39844 4.5104C3.39844 4.85263 3.64695 5.13018 3.95357 5.13018Z" fill="white"/>
<path d="M3.95357 7.80987H12.9243C13.2309 7.80987 13.4795 7.53231 13.4795 7.19009C13.4795 6.84787 13.2309 6.57031 12.9243 6.57031H3.95357C3.64704 6.57031 3.39844 6.84787 3.39844 7.19009C3.39844 7.53231 3.64695 7.80987 3.95357 7.80987Z" fill="white"/>
<path d="M3.95357 10.4886H12.9243C13.2309 10.4886 13.4795 10.211 13.4795 9.8688C13.4795 9.52658 13.2309 9.24902 12.9243 9.24902H3.95357C3.64704 9.24902 3.39844 9.52658 3.39844 9.8688C3.39844 10.211 3.64695 10.4886 3.95357 10.4886Z" fill="white"/>
<path d="M3.95357 13.1673H12.9243C13.2309 13.1673 13.4795 12.8897 13.4795 12.5475C13.4795 12.2053 13.2309 11.9277 12.9243 11.9277H3.95357C3.64704 11.9277 3.39844 12.2053 3.39844 12.5475C3.39844 12.8897 3.64695 13.1673 3.95357 13.1673Z" fill="white"/>
<path d="M22 8.87927C22 8.71492 21.9415 8.55729 21.8374 8.44098L20.3242 6.75157C20.2201 6.63536 20.0789 6.57007 19.9316 6.57007C19.7843 6.57007 19.6432 6.63536 19.539 6.75157L16.8785 9.72196V0.619779C16.8785 0.277558 16.63 0 16.3234 0H0.555128C0.248512 0 0 0.277558 0 0.619779V21.3802C0 21.7224 0.248512 22 0.555128 22H16.3234C16.6301 22 16.8786 21.7224 16.8786 21.3802V14.8539L21.8374 9.31756C21.9415 9.20135 22 9.04372 22 8.87927ZM1.11026 20.7604V1.23956H15.7683V10.9615L12.5031 14.607H3.9539C3.64738 14.607 3.39877 14.8845 3.39877 15.2267C3.39877 15.569 3.64738 15.8465 3.9539 15.8465H11.3929L11.2973 15.9532C11.2254 16.0335 11.1746 16.1343 11.1506 16.2446L10.766 18.0058H8.43924C8.13272 18.0058 7.88411 18.2834 7.88411 18.6256C7.88411 18.9678 8.13272 19.2454 8.43924 19.2454C8.43924 19.2454 11.1884 19.2454 11.2019 19.2454C11.2457 19.2454 11.2898 19.2396 11.3334 19.2277L13.3345 18.683C13.4334 18.6562 13.5237 18.5995 13.5955 18.5192L15.7681 16.0936V20.7606H1.11026V20.7604ZM12.9205 17.5196L11.9575 17.7818L12.1924 16.7067L19.9316 8.06612L20.6598 8.87917L12.9205 17.5196Z" fill="white"/>
</svg>
