<svg width="147" height="135" viewBox="0 0 147 135" fill="none" xmlns="http://www.w3.org/2000/svg">
<g filter="url(#filter0_d_1487_28965)">
<path d="M73.5 4C35.1159 4 4 32.4296 4 67.5C4 102.57 35.1159 131 73.5 131C111.884 131 143 102.57 143 67.5C143 32.4296 111.884 4 73.5 4Z" fill="#40B3E0"/>
<path d="M107.317 40.5277L94.9034 97.7109C94.9034 97.7109 93.1675 101.677 88.3932 99.7732L59.7472 79.7072L49.3309 75.1074L31.7963 69.7139C31.7963 69.7139 29.1053 68.8417 28.8447 66.9382C28.5846 65.0347 31.8831 64.0038 31.8831 64.0038L101.587 39.0206C101.587 39.0206 107.317 36.7207 107.317 40.5277Z" fill="white"/>
<path d="M57.5466 97.0686C57.5466 97.0686 56.7104 96.9972 55.6685 93.9829C54.6271 90.9691 49.332 75.107 49.332 75.107L91.4322 50.6794C91.4322 50.6794 93.8631 49.331 93.7762 50.6794C93.7762 50.6794 94.21 50.917 92.908 52.0272C91.6059 53.138 59.8352 79.231 59.8352 79.231" fill="#D2E5F1"/>
<path d="M70.7323 87.4012L59.4017 96.8399C59.4017 96.8399 58.5161 97.454 57.5469 97.0691L59.7166 79.5366" fill="#B5CFE4"/>
</g>
<defs>
<filter id="filter0_d_1487_28965" x="0" y="0" width="147" height="135" filterUnits="userSpaceOnUse" color-interpolation-filters="sRGB">
<feFlood flood-opacity="0" result="BackgroundImageFix"/>
<feColorMatrix in="SourceAlpha" type="matrix" values="0 0 0 0 0 0 0 0 0 0 0 0 0 0 0 0 0 0 127 0" result="hardAlpha"/>
<feOffset/>
<feGaussianBlur stdDeviation="2"/>
<feComposite in2="hardAlpha" operator="out"/>
<feColorMatrix type="matrix" values="0 0 0 0 0.25098 0 0 0 0 0.701961 0 0 0 0 0.878431 0 0 0 1 0"/>
<feBlend mode="normal" in2="BackgroundImageFix" result="effect1_dropShadow_1487_28965"/>
<feBlend mode="normal" in="SourceGraphic" in2="effect1_dropShadow_1487_28965" result="shape"/>
</filter>
</defs>
</svg>
