<svg width="50" height="50" viewBox="0 0 50 50" fill="none" xmlns="http://www.w3.org/2000/svg">
<path fill-rule="evenodd" clip-rule="evenodd" d="M25 34.9399C26.0355 34.9399 26.875 34.1307 26.875 33.1326V6.69265L31.0765 11.4171C31.7503 12.175 32.934 12.2627 33.7203 11.6131C34.5065 10.9636 34.5975 9.82268 33.9235 9.06487L26.4235 0.63111C26.0675 0.230531 25.5473 0 25 0C24.4528 0 23.9325 0.230531 23.5765 0.63111L16.0764 9.06487C15.4025 9.82268 15.4936 10.9636 16.2798 11.6131C17.066 12.2627 18.2497 12.175 18.9236 11.4171L23.125 6.69265V33.1326C23.125 34.1307 23.9645 34.9399 25 34.9399Z" fill="white"/>
<path d="M35 18.675C33.2445 18.675 32.3667 18.675 31.7362 19.0811C31.4632 19.2569 31.2288 19.4829 31.0465 19.746C30.625 20.3538 30.625 21.1999 30.625 22.8919V33.1329C30.625 36.1272 28.1068 38.5546 25 38.5546C21.8935 38.5546 19.3751 36.1272 19.3751 33.1329V22.8919C19.3751 21.1999 19.3751 20.3537 18.9537 19.7459C18.7713 19.4828 18.537 19.257 18.2641 19.0812C17.6335 18.675 16.7557 18.675 15 18.675C7.92893 18.675 4.3934 18.675 2.1967 20.7924C0 22.9098 0 26.317 0 33.1324V35.5421C0 42.3575 0 45.7653 2.1967 47.8826C4.3934 50 7.92893 50 15 50H35C42.071 50 45.6065 50 47.8032 47.8826C50 45.7653 50 42.3575 50 35.5421V33.1324C50 26.317 50 22.9098 47.8032 20.7924C45.6065 18.675 42.071 18.675 35 18.675Z" fill="white"/>
</svg>
