<svg width="39" height="36" viewBox="0 0 39 36" fill="none" xmlns="http://www.w3.org/2000/svg">
<g clip-path="url(#clip0_1408_16052)">
<path fill-rule="evenodd" clip-rule="evenodd" d="M19.4778 2.5382L25.5271 0L28.8438 5.47685L35.2771 6.87533L34.6423 13.1993L39 17.9985L34.6582 22.7545L35.293 29.1247L28.8818 30.4954L25.5271 36L19.5222 33.4587L13.4729 36L10.1562 30.5201L3.7229 29.1247L4.35767 22.7976L0 17.9985L4.3418 13.2455L3.7229 6.87533L10.1182 5.50458L13.4729 0L19.4778 2.5382ZM11.8828 19.8836C9.9563 17.8722 12.9143 14.875 15.0566 16.7725C15.812 17.4409 16.9102 18.4174 17.6719 19.0797L23.5435 12.0688C25.5874 10.0204 28.8152 13.0299 26.7966 15.0937L19.4238 23.6324C19.0203 24.0469 18.4664 24.2928 17.8795 24.3181C17.2925 24.3434 16.7184 24.1461 16.2786 23.7679C15.0281 22.6128 13.1936 20.9464 11.8828 19.8836Z" fill="black"/>
</g>
<defs>
<clipPath id="clip0_1408_16052">
<rect width="39" height="36" fill="white"/>
</clipPath>
</defs>
</svg>
