<svg width="39" height="28" viewBox="0 0 39 28" fill="none" xmlns="http://www.w3.org/2000/svg">
<rect x="1" y="3" width="35" height="24" rx="2" fill="#2F2F2F"/>
<path d="M35.2158 0H3.78422C1.69778 0 0 1.56246 0 3.48303V5.71866V22.277V24.5213C-6.09375e-08 26.4392 1.69839 28 3.78538 28H32.7771C34.4018 28 35.7869 27.0523 36.3227 25.7284C38.0241 25.5705 39 24.3419 39 22.277V3.48303C39 1.56246 37.3022 0 35.2158 0ZM32.7771 26.88H3.78538C2.37029 26.88 1.21875 25.8218 1.21875 24.5213V22.277V5.71866C1.21875 4.41823 2.37029 3.36 3.78538 3.36H32.7771C34.1923 3.36 35.3438 4.41823 35.3438 5.71866V9.52H27.9997C24.9927 9.52 22.5469 11.8289 22.5469 14.6672V15.5734C22.5469 18.4111 24.9927 20.72 27.9997 20.72H35.3438V24.5213C35.3438 25.8218 34.1923 26.88 32.7771 26.88ZM35.3438 19.6H27.9997C25.6652 19.6 23.7656 17.7937 23.7656 15.5734V14.6672C23.7656 12.4463 25.6652 10.64 27.9997 10.64H35.3438V19.6ZM37.7812 22.277C37.7812 23.9194 37.117 24.4194 36.5597 24.5721C36.56 24.555 36.5625 24.5385 36.5625 24.5213V5.71866C36.5625 3.80078 34.8641 2.24 32.7771 2.24H3.78538C2.813 2.24 1.92782 2.58171 1.25665 3.13768C1.43995 1.99903 2.49807 1.12 3.78422 1.12H35.2158C36.6303 1.12 37.7812 2.17986 37.7812 3.48303V22.277Z" fill="black"/>
<path d="M25.5938 15.1218C25.5938 16.3573 26.687 17.3618 28.0312 17.3618C29.3756 17.3618 30.4688 16.3573 30.4688 15.1218C30.4688 13.8865 29.3756 12.8818 28.0312 12.8818C26.687 12.8818 25.5938 13.8865 25.5938 15.1218ZM28.0312 14.0018C28.7031 14.0018 29.25 14.5044 29.25 15.1218C29.25 15.7393 28.7031 16.2418 28.0312 16.2418C27.3594 16.2418 26.8125 15.7393 26.8125 15.1218C26.8125 14.5044 27.3594 14.0018 28.0312 14.0018Z" fill="black"/>
</svg>
