<svg width="20" height="16" viewBox="0 0 20 16" fill="none" xmlns="http://www.w3.org/2000/svg">
<path d="M18.0594 0H1.94062C0.870656 0 0 0.892832 0 1.9903V3.26781V12.7297V14.0122C-3.125e-08 15.1081 0.870969 16 1.94122 16H16.8088C17.642 16 18.3523 15.4585 18.627 14.7019C19.4995 14.6117 20 13.9096 20 12.7297V1.9903C20 0.892832 19.1293 0 18.0594 0ZM16.8088 15.36H1.94122C1.21553 15.36 0.625 14.7553 0.625 14.0122V12.7297V3.26781C0.625 2.5247 1.21553 1.92 1.94122 1.92H16.8088C17.5345 1.92 18.125 2.5247 18.125 3.26781V5.44H14.3588C12.8168 5.44 11.5625 6.75939 11.5625 8.38125V8.89907C11.5625 10.5206 12.8168 11.84 14.3588 11.84H18.125V14.0122C18.125 14.7553 17.5345 15.36 16.8088 15.36ZM18.125 11.2H14.3588C13.1616 11.2 12.1875 10.1678 12.1875 8.89907V8.38125C12.1875 7.11219 13.1616 6.08 14.3588 6.08H18.125V11.2ZM19.375 12.7297C19.375 13.6682 19.0343 13.9539 18.7486 14.0412C18.7487 14.0315 18.75 14.022 18.75 14.0122V3.26781C18.75 2.17187 17.879 1.28 16.8088 1.28H1.94122C1.44256 1.28 0.988626 1.47526 0.644437 1.79296C0.738437 1.1423 1.28106 0.64 1.94062 0.64H18.0594C18.7848 0.64 19.375 1.24563 19.375 1.9903V12.7297Z" fill="white"/>
<path d="M13.125 8.64133C13.125 9.34728 13.6856 9.92133 14.375 9.92133C15.0644 9.92133 15.625 9.34728 15.625 8.64133C15.625 7.93541 15.0644 7.36133 14.375 7.36133C13.6856 7.36133 13.125 7.93541 13.125 8.64133ZM14.375 8.00133C14.7196 8.00133 15 8.28853 15 8.64133C15 8.99416 14.7196 9.28133 14.375 9.28133C14.0305 9.28133 13.75 8.99416 13.75 8.64133C13.75 8.28853 14.0305 8.00133 14.375 8.00133Z" fill="white"/>
</svg>
