<svg width="180" height="37" viewBox="0 0 180 37" fill="none" xmlns="http://www.w3.org/2000/svg">
<path d="M139 25.0685V12.2049C139 11.7784 139.196 11.3695 139.546 11.0679C139.895 10.7664 140.369 10.5969 140.864 10.5969C141.358 10.5969 141.832 10.7664 142.181 11.0679C142.531 11.3695 142.727 11.7784 142.727 12.2049V25.0685C142.727 25.495 142.531 25.904 142.181 26.2055C141.832 26.5071 141.358 26.6765 140.864 26.6765C140.369 26.6765 139.895 26.5071 139.546 26.2055C139.196 25.904 139 25.495 139 25.0685ZM152.045 31.5004V5.77308C152.045 5.34663 151.849 4.93764 151.5 4.63609C151.15 4.33454 150.676 4.16513 150.182 4.16513C149.688 4.16513 149.214 4.33454 148.864 4.63609C148.515 4.93764 148.318 5.34663 148.318 5.77308V31.5004C148.318 31.9268 148.515 32.3358 148.864 32.6374C149.214 32.9389 149.688 33.1083 150.182 33.1083C150.676 33.1083 151.15 32.9389 151.5 32.6374C151.849 32.3358 152.045 31.9268 152.045 31.5004ZM161.364 34.7163V2.55717C161.364 2.13072 161.167 1.72173 160.818 1.42018C160.468 1.11863 159.994 0.949219 159.5 0.949219C159.006 0.949219 158.532 1.11863 158.182 1.42018C157.833 1.72173 157.636 2.13072 157.636 2.55717V34.7163C157.636 35.1427 157.833 35.5517 158.182 35.8533C158.532 36.1548 159.006 36.3242 159.5 36.3242C159.994 36.3242 160.468 36.1548 160.818 35.8533C161.167 35.5517 161.364 35.1427 161.364 34.7163ZM170.682 31.5004V5.77308C170.682 5.34663 170.485 4.93764 170.136 4.63609C169.786 4.33454 169.312 4.16513 168.818 4.16513C168.324 4.16513 167.85 4.33454 167.5 4.63609C167.151 4.93764 166.955 5.34663 166.955 5.77308V31.5004C166.955 31.9268 167.151 32.3358 167.5 32.6374C167.85 32.9389 168.324 33.1083 168.818 33.1083C169.312 33.1083 169.786 32.9389 170.136 32.6374C170.485 32.3358 170.682 31.9268 170.682 31.5004ZM178.136 10.5969C177.642 10.5969 177.168 10.7664 176.819 11.0679C176.469 11.3695 176.273 11.7784 176.273 12.2049V25.0685C176.273 25.495 176.469 25.904 176.819 26.2055C177.168 26.5071 177.642 26.6765 178.136 26.6765C178.631 26.6765 179.105 26.5071 179.454 26.2055C179.804 25.904 180 25.495 180 25.0685V12.2049C180 11.7784 179.804 11.3695 179.454 11.0679C179.105 10.7664 178.631 10.5969 178.136 10.5969Z" fill="#656565"/>
<path d="M102 25.0685V12.2049C102 11.7784 102.196 11.3695 102.546 11.0679C102.895 10.7664 103.369 10.5969 103.864 10.5969C104.358 10.5969 104.832 10.7664 105.181 11.0679C105.531 11.3695 105.727 11.7784 105.727 12.2049V25.0685C105.727 25.495 105.531 25.904 105.181 26.2055C104.832 26.5071 104.358 26.6765 103.864 26.6765C103.369 26.6765 102.895 26.5071 102.546 26.2055C102.196 25.904 102 25.495 102 25.0685ZM115.045 31.5004V5.77308C115.045 5.34663 114.849 4.93764 114.5 4.63609C114.15 4.33454 113.676 4.16513 113.182 4.16513C112.688 4.16513 112.214 4.33454 111.864 4.63609C111.515 4.93764 111.318 5.34663 111.318 5.77308V31.5004C111.318 31.9268 111.515 32.3358 111.864 32.6374C112.214 32.9389 112.688 33.1083 113.182 33.1083C113.676 33.1083 114.15 32.9389 114.5 32.6374C114.849 32.3358 115.045 31.9268 115.045 31.5004ZM124.364 34.7163V2.55717C124.364 2.13072 124.167 1.72173 123.818 1.42018C123.468 1.11863 122.994 0.949219 122.5 0.949219C122.006 0.949219 121.532 1.11863 121.182 1.42018C120.833 1.72173 120.636 2.13072 120.636 2.55717V34.7163C120.636 35.1427 120.833 35.5517 121.182 35.8533C121.532 36.1548 122.006 36.3242 122.5 36.3242C122.994 36.3242 123.468 36.1548 123.818 35.8533C124.167 35.5517 124.364 35.1427 124.364 34.7163ZM133.682 31.5004V5.77308C133.682 5.34663 133.485 4.93764 133.136 4.63609C132.786 4.33454 132.312 4.16513 131.818 4.16513C131.324 4.16513 130.85 4.33454 130.5 4.63609C130.151 4.93764 129.955 5.34663 129.955 5.77308V31.5004C129.955 31.9268 130.151 32.3358 130.5 32.6374C130.85 32.9389 131.324 33.1083 131.818 33.1083C132.312 33.1083 132.786 32.9389 133.136 32.6374C133.485 32.3358 133.682 31.9268 133.682 31.5004ZM141.136 10.5969C140.642 10.5969 140.168 10.7664 139.819 11.0679C139.469 11.3695 139.273 11.7784 139.273 12.2049V25.0685C139.273 25.495 139.469 25.904 139.819 26.2055C140.168 26.5071 140.642 26.6765 141.136 26.6765C141.631 26.6765 142.105 26.5071 142.454 26.2055C142.804 25.904 143 25.495 143 25.0685V12.2049C143 11.7784 142.804 11.3695 142.454 11.0679C142.105 10.7664 141.631 10.5969 141.136 10.5969Z" fill="#656565"/>
<path d="M65 25.0685V12.2049C65 11.7784 65.1963 11.3695 65.5458 11.0679C65.8953 10.7664 66.3694 10.5969 66.8636 10.5969C67.3579 10.5969 67.8319 10.7664 68.1814 11.0679C68.5309 11.3695 68.7273 11.7784 68.7273 12.2049V25.0685C68.7273 25.495 68.5309 25.904 68.1814 26.2055C67.8319 26.5071 67.3579 26.6765 66.8636 26.6765C66.3694 26.6765 65.8953 26.5071 65.5458 26.2055C65.1963 25.904 65 25.495 65 25.0685ZM78.0455 31.5004V5.77308C78.0455 5.34663 77.8491 4.93764 77.4996 4.63609C77.1501 4.33454 76.6761 4.16513 76.1818 4.16513C75.6876 4.16513 75.2135 4.33454 74.864 4.63609C74.5145 4.93764 74.3182 5.34663 74.3182 5.77308V31.5004C74.3182 31.9268 74.5145 32.3358 74.864 32.6374C75.2135 32.9389 75.6876 33.1083 76.1818 33.1083C76.6761 33.1083 77.1501 32.9389 77.4996 32.6374C77.8491 32.3358 78.0455 31.9268 78.0455 31.5004ZM87.3636 34.7163V2.55717C87.3636 2.13072 87.1673 1.72173 86.8178 1.42018C86.4683 1.11863 85.9943 0.949219 85.5 0.949219C85.0057 0.949219 84.5317 1.11863 84.1822 1.42018C83.8327 1.72173 83.6364 2.13072 83.6364 2.55717V34.7163C83.6364 35.1427 83.8327 35.5517 84.1822 35.8533C84.5317 36.1548 85.0057 36.3242 85.5 36.3242C85.9943 36.3242 86.4683 36.1548 86.8178 35.8533C87.1673 35.5517 87.3636 35.1427 87.3636 34.7163ZM96.6818 31.5004V5.77308C96.6818 5.34663 96.4855 4.93764 96.136 4.63609C95.7865 4.33454 95.3124 4.16513 94.8182 4.16513C94.3239 4.16513 93.8499 4.33454 93.5004 4.63609C93.1509 4.93764 92.9545 5.34663 92.9545 5.77308V31.5004C92.9545 31.9268 93.1509 32.3358 93.5004 32.6374C93.8499 32.9389 94.3239 33.1083 94.8182 33.1083C95.3124 33.1083 95.7865 32.9389 96.136 32.6374C96.4855 32.3358 96.6818 31.9268 96.6818 31.5004ZM104.136 10.5969C103.642 10.5969 103.168 10.7664 102.819 11.0679C102.469 11.3695 102.273 11.7784 102.273 12.2049V25.0685C102.273 25.495 102.469 25.904 102.819 26.2055C103.168 26.5071 103.642 26.6765 104.136 26.6765C104.631 26.6765 105.105 26.5071 105.454 26.2055C105.804 25.904 106 25.495 106 25.0685V12.2049C106 11.7784 105.804 11.3695 105.454 11.0679C105.105 10.7664 104.631 10.5969 104.136 10.5969Z" fill="#656565"/>
<path d="M28 25.0685V12.2049C28 11.7784 28.1963 11.3695 28.5458 11.0679C28.8953 10.7664 29.3694 10.5969 29.8636 10.5969C30.3579 10.5969 30.8319 10.7664 31.1814 11.0679C31.5309 11.3695 31.7273 11.7784 31.7273 12.2049V25.0685C31.7273 25.495 31.5309 25.904 31.1814 26.2055C30.8319 26.5071 30.3579 26.6765 29.8636 26.6765C29.3694 26.6765 28.8953 26.5071 28.5458 26.2055C28.1963 25.904 28 25.495 28 25.0685ZM41.0455 31.5004V5.77308C41.0455 5.34663 40.8491 4.93764 40.4996 4.63609C40.1501 4.33454 39.6761 4.16513 39.1818 4.16513C38.6876 4.16513 38.2135 4.33454 37.864 4.63609C37.5145 4.93764 37.3182 5.34663 37.3182 5.77308V31.5004C37.3182 31.9268 37.5145 32.3358 37.864 32.6374C38.2135 32.9389 38.6876 33.1083 39.1818 33.1083C39.6761 33.1083 40.1501 32.9389 40.4996 32.6374C40.8491 32.3358 41.0455 31.9268 41.0455 31.5004ZM50.3636 34.7163V2.55717C50.3636 2.13072 50.1673 1.72173 49.8178 1.42018C49.4683 1.11863 48.9943 0.949219 48.5 0.949219C48.0057 0.949219 47.5317 1.11863 47.1822 1.42018C46.8327 1.72173 46.6364 2.13072 46.6364 2.55717V34.7163C46.6364 35.1427 46.8327 35.5517 47.1822 35.8533C47.5317 36.1548 48.0057 36.3242 48.5 36.3242C48.9943 36.3242 49.4683 36.1548 49.8178 35.8533C50.1673 35.5517 50.3636 35.1427 50.3636 34.7163ZM59.6818 31.5004V5.77308C59.6818 5.34663 59.4855 4.93764 59.136 4.63609C58.7865 4.33454 58.3124 4.16513 57.8182 4.16513C57.3239 4.16513 56.8499 4.33454 56.5004 4.63609C56.1509 4.93764 55.9545 5.34663 55.9545 5.77308V31.5004C55.9545 31.9268 56.1509 32.3358 56.5004 32.6374C56.8499 32.9389 57.3239 33.1083 57.8182 33.1083C58.3124 33.1083 58.7865 32.9389 59.136 32.6374C59.4855 32.3358 59.6818 31.9268 59.6818 31.5004ZM67.1364 10.5969C66.6421 10.5969 66.1681 10.7664 65.8186 11.0679C65.4691 11.3695 65.2727 11.7784 65.2727 12.2049V25.0685C65.2727 25.495 65.4691 25.904 65.8186 26.2055C66.1681 26.5071 66.6421 26.6765 67.1364 26.6765C67.6306 26.6765 68.1047 26.5071 68.4542 26.2055C68.8037 25.904 69 25.495 69 25.0685V12.2049C69 11.7784 68.8037 11.3695 68.4542 11.0679C68.1047 10.7664 67.6306 10.5969 67.1364 10.5969Z" fill="#656565"/>
<path d="M0 25.0685V12.2049C0 11.7784 0.196347 11.3695 0.545846 11.0679C0.895346 10.7664 1.36937 10.5969 1.86364 10.5969C2.3579 10.5969 2.83193 10.7664 3.18143 11.0679C3.53093 11.3695 3.72727 11.7784 3.72727 12.2049V25.0685C3.72727 25.495 3.53093 25.904 3.18143 26.2055C2.83193 26.5071 2.3579 26.6765 1.86364 26.6765C1.36937 26.6765 0.895346 26.5071 0.545846 26.2055C0.196347 25.904 0 25.495 0 25.0685ZM13.0455 31.5004V5.77308C13.0455 5.34663 12.8491 4.93764 12.4996 4.63609C12.1501 4.33454 11.6761 4.16513 11.1818 4.16513C10.6876 4.16513 10.2135 4.33454 9.86403 4.63609C9.51453 4.93764 9.31818 5.34663 9.31818 5.77308V31.5004C9.31818 31.9268 9.51453 32.3358 9.86403 32.6374C10.2135 32.9389 10.6876 33.1083 11.1818 33.1083C11.6761 33.1083 12.1501 32.9389 12.4996 32.6374C12.8491 32.3358 13.0455 31.9268 13.0455 31.5004ZM22.3636 34.7163V2.55717C22.3636 2.13072 22.1673 1.72173 21.8178 1.42018C21.4683 1.11863 20.9943 0.949219 20.5 0.949219C20.0057 0.949219 19.5317 1.11863 19.1822 1.42018C18.8327 1.72173 18.6364 2.13072 18.6364 2.55717V34.7163C18.6364 35.1427 18.8327 35.5517 19.1822 35.8533C19.5317 36.1548 20.0057 36.3242 20.5 36.3242C20.9943 36.3242 21.4683 36.1548 21.8178 35.8533C22.1673 35.5517 22.3636 35.1427 22.3636 34.7163ZM31.6818 31.5004V5.77308C31.6818 5.34663 31.4855 4.93764 31.136 4.63609C30.7865 4.33454 30.3124 4.16513 29.8182 4.16513C29.3239 4.16513 28.8499 4.33454 28.5004 4.63609C28.1509 4.93764 27.9545 5.34663 27.9545 5.77308V31.5004C27.9545 31.9268 28.1509 32.3358 28.5004 32.6374C28.8499 32.9389 29.3239 33.1083 29.8182 33.1083C30.3124 33.1083 30.7865 32.9389 31.136 32.6374C31.4855 32.3358 31.6818 31.9268 31.6818 31.5004ZM39.1364 10.5969C38.6421 10.5969 38.1681 10.7664 37.8186 11.0679C37.4691 11.3695 37.2727 11.7784 37.2727 12.2049V25.0685C37.2727 25.495 37.4691 25.904 37.8186 26.2055C38.1681 26.5071 38.6421 26.6765 39.1364 26.6765C39.6306 26.6765 40.1047 26.5071 40.4542 26.2055C40.8037 25.904 41 25.495 41 25.0685V12.2049C41 11.7784 40.8037 11.3695 40.4542 11.0679C40.1047 10.7664 39.6306 10.5969 39.1364 10.5969Z" fill="#656565"/>
</svg>
