<svg width="113" height="111" viewBox="0 0 113 111" fill="none" xmlns="http://www.w3.org/2000/svg">
<g filter="url(#filter0_f_1487_21521)">
<path d="M34.4255 87.8503L35.9002 88.7023C42.0939 92.287 49.1954 94.1833 56.4375 94.1865H56.4526C78.6928 94.1865 96.7928 76.5388 96.802 54.8481C96.806 44.3371 92.6129 34.4528 84.9947 27.0175C81.2582 23.3506 76.813 20.443 71.9165 18.4628C67.02 16.4826 61.7693 15.4693 56.4685 15.4814C34.2111 15.4814 16.1105 33.1272 16.1026 54.8166C16.0917 62.2229 18.2303 69.481 22.2712 75.7518L23.2312 77.2395L19.1542 91.7549L34.4255 87.8503ZM7.49805 103L14.3858 78.475C10.1379 71.2977 7.90317 63.1553 7.90581 54.8134C7.91703 28.7169 29.6934 7.48633 56.4533 7.48633C69.439 7.49276 81.6277 12.4211 90.7944 21.3672C99.9612 30.3133 105.005 42.2046 105 54.8513C104.988 80.9459 83.2086 102.18 56.4526 102.18H56.4315C48.3073 102.177 40.3242 100.189 33.2333 96.4187L7.49805 103Z" fill="#B3B3B3"/>
</g>
<path d="M7 102.514L13.8878 77.9887C9.63259 70.7941 7.39748 62.6326 7.40776 54.3271C7.41898 28.2306 29.1953 7 55.9552 7C68.941 7.00643 81.1296 11.9348 90.2964 20.8809C99.4631 29.827 104.507 41.7183 104.502 54.365C104.49 80.4596 82.7105 101.694 55.9546 101.694H55.9335C47.8092 101.691 39.8262 99.7031 32.7352 95.9324L7 102.514Z" fill="white"/>
<path d="M55.9714 14.9947C33.714 14.9947 15.6134 32.6406 15.6055 54.3299C15.5945 61.7362 17.7331 68.9943 21.7741 75.2651L22.7341 76.7535L18.6571 91.2688L33.9291 87.3636L35.4038 88.2156C41.5974 91.8003 48.6989 93.696 55.941 93.6999H55.9562C78.1964 93.6999 96.297 76.0521 96.3055 54.3615C96.3223 49.1916 95.2874 44.0698 93.2607 39.2926C91.2339 34.5155 88.2556 30.1778 84.4982 26.5308C80.7617 22.8639 76.3164 19.9562 71.4197 17.976C66.5231 15.9958 61.2723 14.9825 55.9714 14.9947Z" fill="url(#paint0_linear_1487_21521)"/>
<path fill-rule="evenodd" clip-rule="evenodd" d="M43.8222 34.5415C42.913 32.5719 41.9562 32.532 41.0925 32.4979L38.7674 32.4702C37.9584 32.4702 36.6441 32.7662 35.533 33.9502C34.4219 35.1342 31.2871 37.9957 31.2871 43.8158C31.2871 49.636 35.6339 55.2599 36.2396 56.0501C36.8453 56.8403 44.6311 69.1646 56.961 73.9063C67.2072 77.8469 69.2922 77.0632 71.517 76.8663C73.7419 76.6694 78.6938 74.0048 79.704 71.2424C80.7141 68.48 80.7148 66.1133 80.4119 65.6185C80.1091 65.1236 79.3002 64.8296 78.0861 64.2376C76.8721 63.6456 70.9094 60.7841 69.7976 60.389C68.6858 59.9939 67.8775 59.7976 67.0679 60.9816C66.2584 62.1656 63.9365 64.8289 63.2285 65.6185C62.5205 66.408 61.8139 66.5071 60.5998 65.9157C59.3858 65.3244 55.4797 64.0748 50.8452 60.0447C47.2393 56.9091 44.8053 53.0367 44.0967 51.8534C43.388 50.6701 44.0214 50.0292 44.6298 49.4397C45.1741 48.9095 45.8425 48.0582 46.4502 47.3678C47.0579 46.6773 47.2578 46.1838 47.6616 45.3956C48.0654 44.6073 47.8642 43.9149 47.5607 43.3236C47.2571 42.7322 44.9003 36.8812 43.8222 34.5415Z" fill="white"/>
<defs>
<filter id="filter0_f_1487_21521" x="0.436047" y="0.424328" width="111.626" height="109.638" filterUnits="userSpaceOnUse" color-interpolation-filters="sRGB">
<feFlood flood-opacity="0" result="BackgroundImageFix"/>
<feBlend mode="normal" in="SourceGraphic" in2="BackgroundImageFix" result="shape"/>
<feGaussianBlur stdDeviation="3.531" result="effect1_foregroundBlur_1487_21521"/>
</filter>
<linearGradient id="paint0_linear_1487_21521" x1="55.1341" y1="19.7178" x2="55.5231" y2="86.9764" gradientUnits="userSpaceOnUse">
<stop stop-color="#57D163"/>
<stop offset="1" stop-color="#23B33A"/>
</linearGradient>
</defs>
</svg>
