<svg width="14" height="15" viewBox="0 0 14 15" fill="none" xmlns="http://www.w3.org/2000/svg">
<path d="M6.60417 13.4427C9.94089 13.4427 12.6458 10.7378 12.6458 7.40104C12.6458 4.06432 9.94089 1.35938 6.60417 1.35938C3.26745 1.35938 0.5625 4.06432 0.5625 7.40104C0.5625 10.7378 3.26745 13.4427 6.60417 13.4427Z" stroke="white"/>
<path d="M1.08528 10.8359L0.126953 14.2318L3.64779 13.2526L3.83527 12.1693L1.5436 12.8984L2.14778 10.7109L1.08528 10.8359Z" fill="white"/>
<path d="M1.50195 12.918C1.50195 12.8971 2.23112 10.4805 2.23112 10.4805L3.98112 12.1263L1.50195 12.918Z" fill="#2F2F2F"/>
<path d="M3.99475 4.40295C3.78204 4.55055 3.60069 4.73887 3.46123 4.957C3.32176 5.17514 3.22695 5.41876 3.18225 5.67378C3.07808 6.48628 3.57808 7.31962 3.57808 7.31962C4.08527 8.0742 4.68743 8.76039 5.36975 9.36128C5.96661 9.83358 6.64426 10.1936 7.36974 10.4238C7.79293 10.5927 8.25586 10.6361 8.70308 10.5488C9.09947 10.44 9.45016 10.2062 9.70306 9.88212C9.76233 9.73469 9.8043 9.58088 9.82808 9.42378C9.85193 9.28592 9.85193 9.14498 9.82808 9.00712C9.80725 8.86128 8.30725 8.17378 8.16142 8.21545C8.01558 8.25712 7.89056 8.52795 7.7239 8.75712C7.55723 8.98628 7.49475 9.09045 7.32808 9.09045C7.16142 9.09045 6.43223 8.79878 5.74473 8.17378C5.35205 7.83329 5.04516 7.40505 4.84891 6.92378C4.84891 6.92378 4.97392 6.77795 5.14058 6.54878C5.27027 6.40668 5.36323 6.23504 5.4114 6.04878C5.4114 5.94462 4.82807 4.46545 4.68224 4.40295C4.45419 4.37089 4.2228 4.37089 3.99475 4.40295Z" fill="white"/>
</svg>
