<svg width="28" height="28" viewBox="0 0 28 28" fill="none" xmlns="http://www.w3.org/2000/svg">
<g filter="url(#filter0_d_1247_13371)">
<path d="M20.3561 19.2232C21.3821 20.0139 21.9681 21.4225 21.8947 22.8311C21.8455 23.6899 21.8212 23.7251 21.0398 23.8625C20.5514 23.9659 17.4742 24 14.3001 24C10.7102 24 6.95 23.8966 6.68119 23.7933C5.60673 23.415 6.1928 20.6659 7.60952 19.3607C8.7082 18.3644 10.9548 16.8524 11.5659 16.6798C12.3965 16.439 12.4942 15.7176 11.5659 13.3809C11.3463 12.8652 11.1017 11.285 11.0775 9.63558C11.0532 6.9547 11.4197 5.13371 13.0803 4.24082C13.4225 4.06928 13.764 4 14.0813 4C15.1799 4 16.2059 4.85881 16.6209 6.13108C17.2312 7.8146 16.9874 12.3165 16.3521 13.9318C15.6191 15.7528 15.6925 16.3378 16.499 16.6468C17.0366 16.8535 18.6971 17.9532 20.3576 19.2243L20.3561 19.2232ZM7.0719 18.1929C6.68119 18.5711 6.3147 19.0517 6.02167 19.5333C5.09334 19.5333 4.38537 19.4992 4.31191 19.464C3.70162 19.2573 4.04311 17.6771 4.84953 16.9899C5.45982 16.4401 6.70541 15.5813 7.04767 15.4779C7.48761 15.3404 7.58529 14.9622 7.04767 13.6569C6.92577 13.382 6.77886 12.488 6.77886 11.561C6.75464 10.049 6.97422 9.01759 7.90255 8.57115C8.68397 8.15879 9.56307 8.67451 9.88033 9.6026C10.1976 10.5648 10.0272 13.0389 9.68497 13.9329C9.29426 14.9985 9.36772 15.2734 9.80688 15.4449C9.90455 15.479 10.0999 15.6165 10.3687 15.7891C9.29426 16.4082 7.8291 17.5419 7.0719 18.1951V18.1929ZM23.1403 16.8865C23.7263 17.333 24.0436 18.0895 23.9952 18.8801C23.9709 19.3618 23.9709 19.3959 23.531 19.464C23.4091 19.4981 22.8472 19.5333 22.1143 19.5333C21.797 18.9494 21.3571 18.3996 20.8202 18.0213C19.8192 17.1966 18.5979 16.3026 17.6946 15.7528C17.9391 15.6154 18.1587 15.512 18.2564 15.4779C18.7206 15.3404 18.794 14.9622 18.2564 13.6569C18.1587 13.382 17.9876 12.488 17.9876 11.561C17.9634 10.049 18.1587 9.01759 19.0863 8.57115C19.8919 8.15879 20.771 8.67451 21.064 9.6026C21.3813 10.5648 21.2594 13.0389 20.9171 13.9329C20.5264 14.9985 20.5749 15.2734 20.9906 15.4449C21.2836 15.5824 22.212 16.2015 23.1395 16.8887L23.1403 16.8865Z" fill="#00C0CC"/>
</g>
<defs>
<filter id="filter0_d_1247_13371" x="0" y="0" width="28" height="28" filterUnits="userSpaceOnUse" color-interpolation-filters="sRGB">
<feFlood flood-opacity="0" result="BackgroundImageFix"/>
<feColorMatrix in="SourceAlpha" type="matrix" values="0 0 0 0 0 0 0 0 0 0 0 0 0 0 0 0 0 0 127 0" result="hardAlpha"/>
<feOffset/>
<feGaussianBlur stdDeviation="2"/>
<feComposite in2="hardAlpha" operator="out"/>
<feColorMatrix type="matrix" values="0 0 0 0 0 0 0 0 0 0.752 0 0 0 0 0.8 0 0 0 1 0"/>
<feBlend mode="normal" in2="BackgroundImageFix" result="effect1_dropShadow_1247_13371"/>
<feBlend mode="normal" in="SourceGraphic" in2="effect1_dropShadow_1247_13371" result="shape"/>
</filter>
</defs>
</svg>
