<svg width="114" height="122" viewBox="0 0 114 122" fill="none" xmlns="http://www.w3.org/2000/svg">
<path fill-rule="evenodd" clip-rule="evenodd" d="M70.8022 77.6691C66.9659 72.8955 62.9425 68.0474 58.7276 63.2473C44.9096 77.4915 32.1136 93.531 22.8533 111.663C11.4934 133.907 -5.2703 115.705 2.33561 99.5838C8.44974 84.8764 24.1715 64.4713 43.0682 46.7663C32.6613 36.7533 21.2547 27.7244 8.76146 21.0691C-9.5208 11.3274 4.44639 -4.99767 17.6721 1.47763C28.8138 6.23449 44.1882 18.4819 58.2534 33.7149C72.3052 22.7083 87.0984 14.0826 100.435 10.7058C103.33 9.97135 111.78 7.98652 113.726 10.9554C114.458 12.0762 113.652 13.7586 112.149 15.585C107.031 21.8155 93.2726 31.6941 86.6063 37.3821C81.7947 41.4886 76.9097 45.7799 72.0513 50.2727C77.2169 57.1872 81.8348 64.3465 85.5153 71.4338C88.7149 77.5923 91.2042 83.698 92.7338 89.5445C93.433 92.2157 95.35 100.018 93.0411 101.943C92.1705 102.67 90.79 101.981 89.2671 100.652C84.0703 96.1182 75.6205 83.6668 70.8022 77.6691Z" fill="#EB0100"/>
</svg>
