<svg width="80" height="80" viewBox="0 0 80 80" fill="none" xmlns="http://www.w3.org/2000/svg">
<path d="M61.9359 0H18.0641C8.08756 0 0 8.12501 0 18.1477V61.8523C0 71.875 8.08756 80 18.0641 80H61.9359C71.9124 80 80 71.875 80 61.8523V18.1477C80 8.12501 71.9124 0 61.9359 0Z" fill="black"/>
<path d="M54.1661 13H61.9862L44.9018 35.8751L65 67H49.2622L36.9366 48.1242L22.8313 67H15.0067L33.2798 42.5348L14 13H30.1361L41.2775 30.2552L54.1661 13ZM51.4208 61.5171H55.7552L27.7827 18.1964H23.1322L51.4208 61.5171Z" fill="white"/>
</svg>
